<?xml version="1.0"?>
<svg xmlns="http://www.w3.org/2000/svg" xmlns:xlink="http://www.w3.org/1999/xlink" version="1.1" id="Capa_1" x="0px" y="0px" viewBox="0 0 512.007 512.007" style="enable-background:new 0 0 512.007 512.007;" xml:space="preserve" width="512px" height="512px" class=""><g><g>
	<g>
		<g>
			<g>
				<path style="fill:#2863C9" d="M55.411,271.003H15.018c-8.284,0-15-6.716-15-15c0-8.284,6.716-15,15-15h40.393      c8.284,0,15,6.716,15,15C70.411,264.287,63.695,271.003,55.411,271.003z" data-original="#9EBBDB" class="" data-old_color="#2763C9"/>
			</g>
			<g>
				<path style="fill:#0D47A1" d="M150.631,487.805c-2.202,0-4.437-0.486-6.549-1.514      c-46.111-22.424-84.096-57.833-109.848-102.398C7.88,338.284-3.614,286.346,0.992,233.692      c3.969-45.366,19.934-88.862,46.169-125.786c25.453-35.823,59.907-64.684,99.639-83.464c7.489-3.54,16.431-0.339,19.972,7.151      c3.54,7.49,0.338,16.431-7.151,19.972c-35.092,16.587-65.524,42.078-88.004,73.717c-23.148,32.579-37.235,70.97-40.739,111.024      c-4.067,46.486,6.076,92.33,29.332,132.577c22.745,39.363,56.284,70.633,96.992,90.429c7.45,3.623,10.552,12.6,6.93,20.05      C161.536,484.699,156.192,487.805,150.631,487.805z" data-original="#C9DFF7" class="" data-old_color="#C9DFF7"/>
			</g>
			<g>
				<g>
					<g>
						<path style="fill:#2863C9" d="M496.989,271.003h-40.393c-8.284,0-15-6.716-15-15c0-8.284,6.716-15,15-15h40.393        c8.284,0,15,6.716,15,15C511.989,264.287,505.273,271.003,496.989,271.003z" data-original="#9EBBDB" class="" data-old_color="#2763C9"/>
					</g>
				</g>
				<path style="fill:#0D47A1" d="M356.957,489.871c-5.667,0-11.09-3.227-13.625-8.708c-3.477-7.52-0.199-16.434,7.32-19.91      c35.531-16.428,66.37-41.93,89.182-73.75c23.482-32.754,37.761-71.414,41.294-111.802c4.067-46.486-6.076-92.33-29.332-132.577      c-22.745-39.363-56.284-70.632-96.992-90.429c-7.45-3.622-10.552-12.599-6.929-20.049c3.622-7.451,12.601-10.551,20.049-6.929      c46.111,22.424,84.096,57.833,109.848,102.398c26.354,45.608,37.849,97.547,33.242,150.201      c-4.002,45.743-20.185,89.544-46.798,126.667c-25.828,36.027-60.744,64.901-100.974,83.501      C361.205,489.425,359.064,489.871,356.957,489.871z" data-original="#C9DFF7" class="" data-old_color="#C9DFF7"/>
			</g>
		</g>
		<g>
			<path style="fill:#FFE169" d="M403.981,502.489c-1.285,0-2.591-0.167-3.892-0.515l-47.027-12.602     c-8.002-2.144-12.75-10.369-10.606-18.371l12.601-47.03c2.144-8.002,10.368-12.753,18.371-10.607     c8.002,2.144,12.75,10.369,10.606,18.371l-8.719,32.541l32.539,8.719c8.002,2.144,12.75,10.369,10.606,18.371     C416.665,498.069,410.603,502.489,403.981,502.489z" data-original="#F7A520" class="" data-old_color="#F7A520"/>
		</g>
		<g>
			<path style="fill:#FFE169" d="M140.661,100.094c-1.285,0-2.591-0.167-3.892-0.515c-8.002-2.144-12.751-10.369-10.606-18.371     l8.719-32.542l-32.539-8.72c-8.002-2.144-12.751-10.37-10.606-18.372c2.144-8.002,10.366-12.753,18.372-10.606l47.027,12.602     c8.002,2.144,12.751,10.369,10.607,18.371l-12.601,47.03C153.345,95.674,147.284,100.094,140.661,100.094z" data-original="#F7A520" class="" data-old_color="#F7A520"/>
		</g>
	</g>
	<g>
		<path style="fill:#FFE169" d="M155.398,187.116c20.879,0,41.938,13.14,41.938,37.258c0,39.059-55.618,51.838-55.618,68.217v1.62    h47.158c4.5,0,8.46,5.58,8.46,12.06c0,6.479-3.96,12.419-8.46,12.419H124.8c-5.04,0-12.24-3.42-12.24-8.64v-17.46    c0-28.259,56.698-44.458,56.698-67.317c0-5.76-3.6-12.78-13.679-12.78c-7.2,0-13.499,3.6-13.499,13.5    c0,5.22-5.58,10.26-14.759,10.26c-7.2,0-12.6-3.24-12.6-14.58C114.72,199.716,134.879,187.116,155.398,187.116z" data-original="#DB0253" class="active-path" data-old_color="#DB0253"/>
		<path style="fill:#FFE169" d="M256.193,290.972h-42.119c-5.22,0-9.359-3.42-9.359-9.72c0-1.44,0.36-3.42,1.44-5.4l41.578-81.537    c2.7-5.22,7.2-7.2,11.7-7.2c4.86,0,14.04,4.14,14.04,10.62c0,1.08-0.36,2.16-0.9,3.42l-31.858,63.897h15.48v-12.6    c0-5.94,7.02-8.46,14.039-8.46c7.02,0,14.04,2.52,14.04,8.46v12.6h7.74c5.76,0,8.64,6.48,8.64,12.96c0,6.48-4.32,12.96-8.64,12.96    h-7.74v19.079c0,5.76-7.02,8.64-14.04,8.64c-7.02,0-14.039-2.88-14.039-8.64V290.972z" data-original="#DB0253" class="active-path" data-old_color="#DB0253"/>
		<path style="fill:#FFE169" d="M343.486,310.051c0,4.32-6.48,8.64-14.04,8.64c-8.1,0-13.859-4.32-13.859-8.64V192.516    c0-5.04,5.76-8.46,13.859-8.46c7.56,0,14.04,3.42,14.04,8.46v53.098c3.24-7.02,11.159-13.679,22.319-13.679    c16.379,0,30.599,17.099,30.599,37.798v40.318c0,5.76-7.02,8.64-14.039,8.64c-6.48,0-13.859-2.88-13.859-8.64v-40.318    c0-6.84-5.94-13.5-12.96-13.5c-5.94,0-12.059,5.04-12.059,13.5V310.051z" data-original="#DB0253" class="active-path" data-old_color="#DB0253"/>
	</g>
	<g>
		<g>
			<path style="fill:#2863C9" d="M256.003,70.399c-8.284,0-15-6.716-15-15V15.003c0-8.284,6.716-15,15-15c8.284,0,15,6.716,15,15     v40.396C271.003,63.683,264.288,70.399,256.003,70.399z" data-original="#9EBBDB" class="" data-old_color="#2763C9"/>
		</g>
		<g>
			<path style="fill:#2863C9" d="M256.003,512.003c-8.284,0-15-6.716-15-15v-40.396c0-8.284,6.716-15,15-15c8.284,0,15,6.716,15,15     v40.396C271.003,505.287,264.288,512.003,256.003,512.003z" data-original="#9EBBDB" class="" data-old_color="#2763C9"/>
		</g>
	</g>
</g></g> </svg>
