<?xml version="1.0" encoding="utf-8"?>
<!-- Generator: Adobe Illustrator 21.1.0, SVG Export Plug-In . SVG Version: 6.00 Build 0)  -->
<svg version="1.1" xmlns="http://www.w3.org/2000/svg" xmlns:xlink="http://www.w3.org/1999/xlink" x="0px" y="0px"
	 viewBox="0 0 500 500" style="enable-background:new 0 0 500 500;" xml:space="preserve">
<style type="text/css">
	.st0{display:none;}
	.st1{fill:#3B6292;}
	.st2{fill:#4B72A1;}
	.st3{display:none;fill:#5681B6;}
	.st4{fill:#5681B6;}
	.st5{display:none;fill:none;stroke:#84B5E1;stroke-linecap:round;stroke-linejoin:round;stroke-miterlimit:10;}
	.st6{display:none;fill:none;stroke:#84B5E1;stroke-width:2;stroke-linecap:round;stroke-linejoin:round;stroke-miterlimit:10;}
	.st7{display:inline;fill:#FFFFFF;}
	.st8{display:inline;fill:#CEE9E5;}
	.st9{display:inline;fill:#F06173;}
	.st10{display:inline;fill:#5AA6DB;}
	.st11{display:inline;fill:#FFF040;}
	.st12{display:inline;fill:#FCD641;}
	.st13{display:inline;fill:#919088;}
	.st14{display:inline;fill:#AEACA1;}
	.st15{display:inline;fill:#FFF390;}
	.st16{display:inline;fill:#FDF5A5;}
	.st17{display:inline;fill:#C2B099;}
	.st18{display:inline;fill:#FFCB3A;}
	.st19{display:inline;fill:#FBB017;}
	.st20{display:inline;fill:#8A762B;}
	.st21{display:inline;}
	.st22{fill:#9CDBF8;}
	.st23{fill:#63CCF5;}
	.st24{fill:#FFFFFF;}
	.st25{fill:#F3816D;}
	.st26{fill:#F1634D;}
	.st27{display:inline;fill:#FFF22E;}
	.st28{display:inline;fill:#FBB22A;}
	.st29{fill:#FFF690;}
	.st30{fill:#F6932C;}
	.st31{display:inline;fill:#C2E5E1;}
	.st32{display:inline;fill:#88CEBB;}
	.st33{fill:none;stroke:#84B5E1;stroke-width:2;stroke-linecap:round;stroke-linejoin:round;stroke-miterlimit:10;}
	.st34{display:none;fill:#FFFFFF;}
	.st35{display:inline;fill:#A0C0E5;}
	.st36{display:none;clip-path:url(#SVGID_2_);fill:#3B6292;}
	.st37{clip-path:url(#SVGID_2_);}
	.st38{fill:#FDC98E;}
	.st39{fill:#FAB577;}
	.st40{fill:#070500;}
	.st41{fill:#BFD6E2;}
	.st42{fill:#66BDEA;}
	.st43{fill:#FDDA64;}
	.st44{fill:#F8931F;}
	.st45{fill:#FFE092;}
	.st46{fill:none;stroke:#FFFFFF;stroke-linecap:round;stroke-linejoin:round;stroke-miterlimit:10;}
	.st47{fill:#98DAF8;}
</style>
<g id="BACKGROUND" class="st0">
	<rect class="st1" width="500" height="500"/>
	<path class="st2" d="M298.4,500h-96.8C90.3,500,0,409.7,0,298.4v-96.8C0,90.3,90.3,0,201.6,0h96.8C409.7,0,500,90.3,500,201.6v96.8
		C500,409.7,409.7,500,298.4,500z"/>
</g>
<g id="OBJECTS">
	<circle class="st3" cx="184" cy="69.2" r="45.5"/>
	<ellipse class="st4" cx="317" cy="73.6" rx="45.5" ry="45.2"/>
	<ellipse class="st4" cx="64.7" cy="219" rx="45.5" ry="45.2"/>
	<circle class="st3" cx="78.5" cy="353.7" r="45.5"/>
	<circle class="st3" cx="423" cy="344.7" r="45.5"/>
	<circle class="st3" cx="403.5" cy="189.7" r="44"/>
	<ellipse class="st3" cx="241.7" cy="130.2" rx="20" ry="19.8"/>
	<ellipse class="st3" cx="138.3" cy="387.5" rx="16.7" ry="16.5"/>
	<ellipse class="st3" cx="161.7" cy="167.2" rx="12.7" ry="12.6"/>
	<ellipse class="st3" cx="324.3" cy="173.8" rx="12.7" ry="12.6"/>
	<ellipse class="st3" cx="342.3" cy="337.2" rx="12.7" ry="12.6"/>
	<circle class="st3" cx="134.3" cy="280" r="12.7"/>
	<ellipse class="st3" cx="341.7" cy="247.3" rx="14.7" ry="14.6"/>
	<polyline class="st5" points="226,123.2 253.7,134.9 234,153.2 	"/>
	<line class="st5" x1="148.7" y1="167.9" x2="174" y2="169.2"/>
	<line class="st5" x1="119.5" y1="264.2" x2="143.5" y2="270.2"/>
	<line class="st5" x1="302.5" y1="172.7" x2="328" y2="176.7"/>
	<polyline class="st5" points="324,266.2 339,244.2 359,270.2 	"/>
	<line class="st5" x1="336.5" y1="341.2" x2="357" y2="335.7"/>
	<polyline class="st5" points="149,366.7 122.8,379.2 142.5,395.2 	"/>
	<line class="st6" x1="133.1" y1="317.7" x2="168.8" y2="290.3"/>
	<g class="st0">
		<path class="st7" d="M351.5,66.1c-0.4-8.5-7.5-15.3-16.1-15.3c-3.7,0-7.1,1.3-9.8,3.3c-3-7.3-10.2-12.4-18.6-12.4
			c-11.1,0-20.1,9-20.1,20.1c0,1.4,0.1,2.8,0.4,4.1c-6.1,2.9-10.3,9-10.3,16.2c0,9.9,8,17.9,17.9,17.9h48.5c9.9,0,17.9-8,17.9-17.9
			C361.4,75.1,357.4,69,351.5,66.1z"/>
		<path class="st8" d="M343.5,87.3H295c-7.7,0-14.2-4.8-16.8-11.6c-0.8,2-1.2,4.1-1.2,6.4c0,9.9,8,17.9,17.9,17.9h48.5
			c9.9,0,17.9-8,17.9-17.9c0-2.3-0.4-4.4-1.2-6.4C357.7,82.5,351.2,87.3,343.5,87.3z"/>
		<polygon class="st9" points="350.6,88.3 334.1,70.9 317.6,88.3 324.7,88.3 324.7,111.4 343.5,111.4 343.5,88.3 		"/>
		<polygon class="st10" points="287.9,94 304.4,111.4 320.9,94 313.8,94 313.8,70.9 295,70.9 295,94 		"/>
	</g>
	<g class="st0">
		<path class="st11" d="M206.3,63.4c0-13.2-11.5-23.8-25-22.2c-9.9,1.1-18.1,9-19.5,19c-1.1,7.5,1.6,14.4,6.4,19.2
			c4.7,4.7,7.2,11.2,7.2,17.9l0,0h17.1l0,0c0-6.8,2.7-13.3,7.5-18.2C203.9,75,206.3,69.5,206.3,63.4z"/>
		<path class="st12" d="M199.3,77.7c-7.8,2.5-17,1.7-23.1-3.7c-3.8-3.4-6.1-8.3-6.9-13.3c-0.8-4.9-0.4-9.9,0.7-14.8
			c-4.3,3.5-7.4,8.5-8.2,14.2c-1.1,7.5,1.6,14.4,6.4,19.2c4.7,4.7,7.2,11.2,7.2,17.9h17.1c0-6.8,2.7-13.3,7.5-18.2
			c0.7-0.7,1.3-1.4,1.9-2.2C201,77.1,200.1,77.4,199.3,77.7z"/>
		<circle class="st13" cx="183.9" cy="107.1" r="4.8"/>
		<path class="st14" d="M192.6,100.6h-17.3c-1.3,0-2.4-1.1-2.4-2.4v-2c0-1.3,1.1-2.4,2.4-2.4h17.3c1.3,0,2.4,1.1,2.4,2.4v2
			C195,99.5,193.9,100.6,192.6,100.6z"/>
		<path class="st14" d="M192.6,107.1h-17.3c-1.3,0-2.4-1.1-2.4-2.4v-2c0-1.3,1.1-2.4,2.4-2.4h17.3c1.3,0,2.4,1.1,2.4,2.4v2
			C195,106,193.9,107.1,192.6,107.1z"/>
		<path class="st15" d="M192.7,77.7c0-0.8-0.7-1.3-1.5-1.1c-1.7,0.5-2.9,1.4-4.2,2.5c-0.2,0.2-2.6,2.7-2.9,1.8
			c-0.3-0.8-0.5-1.5-0.9-2.2c-0.4-0.7-1.5-0.7-1.9,0c-0.5,0.9-0.8,1.8-1.3,2.7c-1.4-1.3-2.9-2.4-4.6-3.3c-1-0.5-1.8,0.5-1.4,1.4
			c1.3,2.7,3.7,8,3.2,11c-0.1,0.6,0.7,1,1,0.4c0.8-1.4,0.2-3.3-0.1-4.7c-0.3-1.5-0.7-3.1-1.2-4.7c0.9,0.7,1.8,1.5,2.6,2.3
			c0.4,0.4,1.1,0.5,1.5,0c0.5-0.6,0.8-1.1,1.1-1.8c0.4,1,0.9,1.9,2,1.9c2.3,0,4.1-2.6,6.2-4.1c-0.5,3.6-2.2,7.3-1.5,10.8
			c0.1,0.7,1.3,0.9,1.6,0.2C192,87,192.8,81.7,192.7,77.7z"/>
		<path class="st16" d="M200.1,51c-1.2-2.5-3.9-4.2-6.3-5.6c-2.3-1.4-5.4-2.6-8.1-1.7c-0.8,0.3-0.7,1.2,0,1.5
			c2.3,0.9,4.3,1.7,6.4,3.1c2.1,1.4,3.7,3.6,6.1,4.6C199.5,53.5,200.8,52.3,200.1,51z"/>
		<path class="st16" d="M202.9,57c-0.2-0.8-0.3-1.6-1-2.1c-0.3-0.2-0.7-0.1-1,0.1c-0.6,0.6-0.5,1.5-0.6,2.3c-0.1,0.9-0.2,2,0.1,2.9
			c0.3,0.7,0.7,1.1,1.5,1.1c0.3,0,0.5-0.1,0.8-0.2c0.5-0.3,0.8-0.8,0.8-1.3C203.4,58.9,203.1,57.9,202.9,57z"/>
		<path class="st11" d="M158.8,78.2c-0.9,0.3-1.6,0.8-2.3,1.3c-0.8,0.6-1.5,1.1-1.8,2.1c-0.4,1.1,0.8,2.2,1.9,1.9
			c0.9-0.3,1.3-0.8,1.9-1.5c0.6-0.7,1.2-1.3,1.6-2C160.6,79,159.8,77.9,158.8,78.2z"/>
		<path class="st11" d="M155.4,59.5c-1-0.5-2-0.5-3-0.6c-1.1-0.1-2.1-0.5-3.2-0.6c-0.8,0-1.3,0.8-1.1,1.5c0.6,2.8,5.3,1.5,7.2,1.2
			C155.9,60.9,156,59.8,155.4,59.5z"/>
		<path class="st11" d="M162.2,42.9c-0.7-0.8-1.5-1.6-2.2-2.4c-0.7-0.8-1.3-1.6-2.2-2.2c-0.8-0.6-1.6,0.4-1.5,1.1
			c0.5,2.2,3.2,3.8,5,4.7C162,44.5,162.7,43.5,162.2,42.9z"/>
		<path class="st11" d="M209.9,78.2c0.9,0.3,1.6,0.8,2.3,1.3c0.8,0.6,1.5,1.1,1.8,2.1c0.4,1.1-0.8,2.2-1.9,1.9
			c-0.9-0.3-1.3-0.8-1.9-1.5c-0.6-0.7-1.2-1.3-1.6-2C208,79,208.9,77.9,209.9,78.2z"/>
		<path class="st11" d="M213.2,59.5c1-0.5,2-0.5,3-0.6c1.1-0.1,2.1-0.5,3.2-0.6c0.8,0,1.3,0.8,1.1,1.5c-0.6,2.8-5.3,1.5-7.2,1.2
			C212.8,60.9,212.6,59.8,213.2,59.5z"/>
		<path class="st11" d="M206.5,42.9c0.7-0.8,1.5-1.6,2.2-2.4c0.7-0.8,1.3-1.6,2.2-2.2c0.8-0.6,1.6,0.4,1.5,1.1
			c-0.5,2.2-3.2,3.8-5,4.7C206.6,44.5,205.9,43.5,206.5,42.9z"/>
		<path class="st11" d="M182.7,28.5c-0.3-0.2-0.8-0.2-1.2,0c-1.4,0.9-0.9,2.4-0.8,3.9c0.1,1.1,0,2.9,1,3.7c0.2,0.2,0.5,0.2,0.7,0
			c0.9-0.8,0.8-2.6,1-3.7C183.7,31,184.1,29.4,182.7,28.5z"/>
	</g>
	<g class="st0">
		<path class="st17" d="M84.6,147.7H74.5c-9.4,0-17.1,7.6-17.1,17.1v22.7c0,9.4,7.6,17.1,17.1,17.1h10.1c9.4,0,17.1-7.6,17.1-17.1
			v-22.7C101.7,155.3,94,147.7,84.6,147.7z M94.8,184c0,6.5-5.3,11.8-11.8,11.8h-7c-6.5,0-11.8-5.3-11.8-11.8v-15.7
			c0-6.5,5.3-11.8,11.8-11.8h7c6.5,0,11.8,5.3,11.8,11.8V184z"/>
		<path class="st18" d="M101,179H58.1c-3.7,0-6.8,3-6.8,6.8v33.5c0,3.7,3,6.8,6.8,6.8H101c3.7,0,6.8-3,6.8-6.8v-33.5
			C107.7,182.1,104.7,179,101,179z"/>
		<path class="st19" d="M74.6,211.8c-11.3-6.1-20.1-17.5-21.7-30.1c-0.9,1.1-1.5,2.6-1.5,4.1v33.5c0,3.7,3,6.8,6.8,6.8H101
			c3.7,0,6.8-3,6.8-6.8V218C96.3,218.8,84.6,217.2,74.6,211.8z"/>
		<circle class="st20" cx="79.5" cy="196.1" r="8.5"/>
		<path class="st20" d="M80.1,216H79c-2.1,0-3.9-1.7-3.9-3.9v-10.9c0-2.1,1.7-3.9,3.9-3.9h1.1c2.1,0,3.9,1.7,3.9,3.9v10.9
			C84,214.3,82.2,216,80.1,216z"/>
	</g>
	<g class="st0">
		<g class="st21">
			<path class="st22" d="M80.1,342.2H35.9c-6.2,0-11.2,5-11.2,11.2v23.3c0,6.2,5,11.2,11.2,11.2h29.7l7.3,12.7l7.4-12.7
				c6.1-0.1,11-5.1,11-11.2v-23.3C91.3,347.2,86.3,342.2,80.1,342.2z"/>
			<path class="st23" d="M91.3,375.6c-4.7,1.7-9.5,3.1-14.4,4.1c-9.7,2-19.8,2.3-29.5,0c-3.7-0.9-7.4-2.2-11-3.5
				c-3.5-1.2-7.1-2.5-9.9-4.9c-0.7-0.6-1.3-1.3-1.8-2v7.3c0,6.2,5,11.2,11.2,11.2h29.7l7.3,12.7l7.4-12.7c6.1-0.1,11-5.1,11-11.2
				V375.6z"/>
			<path class="st24" d="M37.9,370.7c-1.8,0-3.2,1.5-3.2,3.2c0,1.8,1.5,3.2,3.2,3.2c1.8,0,3.2-1.5,3.2-3.2
				C41.2,372.2,39.7,370.7,37.9,370.7z"/>
			<path class="st24" d="M58.2,370.7c-1.8,0-3.2,1.5-3.2,3.2c0,1.8,1.5,3.2,3.2,3.2c1.8,0,3.2-1.5,3.2-3.2
				C61.4,372.2,59.9,370.7,58.2,370.7z"/>
			<path class="st24" d="M78,370.7c-1.8,0-3.2,1.5-3.2,3.2c0,1.8,1.5,3.2,3.2,3.2c1.8,0,3.2-1.5,3.2-3.2
				C81.2,372.2,79.8,370.7,78,370.7z"/>
		</g>
		<g class="st21">
			<path class="st25" d="M116.6,319.9H72.4c-6.2,0-11.2,5-11.2,11.2v23.3c0,6.2,5,11.2,11.2,11.2h29.7l7.3,12.7l7.4-12.7
				c6.1-0.1,11-5.1,11-11.2v-23.3C127.8,324.9,122.8,319.9,116.6,319.9z"/>
			<path class="st26" d="M127.8,353.3c-4.7,1.7-9.5,3.1-14.4,4.1c-9.7,2-19.8,2.3-29.5,0c-3.7-0.9-7.4-2.2-11-3.5
				c-3.5-1.2-7.1-2.5-9.9-4.9c-0.7-0.6-1.3-1.3-1.8-2v7.3c0,6.2,5,11.2,11.2,11.2h29.7l7.3,12.7l7.4-12.7c6.1-0.1,11-5.1,11-11.2
				V353.3z"/>
			<path class="st24" d="M74.5,348.4c-1.8,0-3.2,1.5-3.2,3.2c0,1.8,1.5,3.2,3.2,3.2c1.8,0,3.2-1.5,3.2-3.2
				C77.8,349.9,76.3,348.4,74.5,348.4z"/>
			<path class="st24" d="M94.7,348.4c-1.8,0-3.2,1.5-3.2,3.2c0,1.8,1.5,3.2,3.2,3.2c1.8,0,3.2-1.5,3.2-3.2
				C98,349.9,96.5,348.4,94.7,348.4z"/>
			<path class="st24" d="M114.5,348.4c-1.8,0-3.2,1.5-3.2,3.2c0,1.8,1.5,3.2,3.2,3.2c1.8,0,3.2-1.5,3.2-3.2
				C117.8,349.9,116.3,348.4,114.5,348.4z"/>
		</g>
	</g>
	<g class="st0">
		<circle class="st27" cx="402.3" cy="189.9" r="36.6"/>
		<circle class="st28" cx="402.3" cy="189.9" r="32.3"/>
		<circle class="st27" cx="402.3" cy="189.9" r="29.2"/>
		<g class="st21">
			<path class="st29" d="M373.1,188.4c3-1.8,5.9-3.5,8.7-5.4c7.5-5.1,14.9-10.3,22.3-15.5c2.5-1.7,5-3.5,7.6-5.3
				c-2.9-1-6.1-1.5-9.4-1.5c-1.1,0-2.2,0.1-3.2,0.2c-2.4,1.8-4.8,3.7-7.1,5.5c-5.8,4.6-11.6,9.2-17.3,14
				C373.8,182.9,373.3,185.6,373.1,188.4z"/>
			<path class="st29" d="M398.5,192.2c9.2-6.6,18.6-12.7,28.1-18.6c-2.2-3.2-4.9-5.9-8.2-8.1c-0.1,0.1-0.3,0.2-0.4,0.2
				c-8.4,5.2-16.3,11.1-24,17.1c-6.6,5.1-12.9,10.5-19.7,15.4c0.9,2.9,2.1,5.5,3.8,8C385.3,202.3,391.8,196.9,398.5,192.2z"/>
		</g>
		<g class="st21">
			<path class="st30" d="M404.4,170.8c5.4,0.7,7.8,4.3,7.8,9.5v1h-4.6V180c0-3.4-1.6-5.5-5.1-5.5c-3.5,0-5,2.1-5,5.5
				c0,8.7,14.8,8.7,14.8,19.6c0,5.2-2.5,8.9-7.9,9.5v2.9h-4v-2.9c-5.5-0.7-8-4.3-8-9.5v-2.4h4.6v2.6c0,3.5,1.6,5.5,5.2,5.5
				c3.6,0,5.2-2,5.2-5.5c0-8.6-14.8-8.7-14.8-19.6c0-5.3,2.5-8.8,7.8-9.5v-3.1h4V170.8z"/>
		</g>
	</g>
	<g class="st0">
		<polygon class="st31" points="423,340.8 402.2,328.5 402.2,306.5 423,318.8 		"/>
		<polygon class="st32" points="423,340.8 443.7,328.5 443.7,306.5 423,318.8 		"/>
		<polygon class="st7" points="423,293.9 402.3,306.5 423,319 443.7,306.5 		"/>
	</g>
	<g class="st0">
		<polygon class="st31" points="393.7,385.2 373,372.9 373,350.9 393.7,363.2 		"/>
		<polygon class="st32" points="393.7,385.2 414.5,372.9 414.5,350.9 393.7,363.2 		"/>
		<polygon class="st7" points="393.8,338.3 373,350.9 393.7,363.4 414.4,350.9 		"/>
	</g>
	<g class="st0">
		<polygon class="st31" points="451.7,385.2 431,372.9 431,350.9 451.7,363.2 		"/>
		<polygon class="st32" points="451.7,385.2 472.5,372.9 472.5,350.9 451.7,363.2 		"/>
		<polygon class="st7" points="451.8,338.3 431,350.9 451.7,363.4 472.4,350.9 		"/>
	</g>
	<line class="st33" x1="185.6" y1="122.2" x2="206.3" y2="184.4"/>
	<line class="st33" x1="122.8" y1="228" x2="168.8" y2="237.4"/>
	<path class="st33" d="M304.4,122.2c0-0.7-36.7,62.2-36.7,62.2"/>
	<line class="st33" x1="308.5" y1="214.3" x2="357" y2="202.3"/>
	<line class="st33" x1="311.8" y1="290.4" x2="374.3" y2="319.1"/>
	<circle class="st34" cx="226" cy="123.2" r="8"/>
	<circle class="st34" cx="253.5" cy="133.7" r="6"/>
	<circle class="st34" cx="234" cy="153.2" r="3"/>
	<circle class="st34" cx="150" cy="167.7" r="7"/>
	<circle class="st34" cx="174" cy="169.2" r="3.5"/>
	<circle class="st34" cx="119.5" cy="264.2" r="6.5"/>
	<circle class="st34" cx="143.5" cy="270.2" r="2.5"/>
	<circle class="st34" cx="149" cy="366.7" r="4.5"/>
	<circle class="st34" cx="142.5" cy="395.2" r="4"/>
	<circle class="st34" cx="122.8" cy="379.2" r="3.3"/>
	<circle class="st34" cx="336.5" cy="341.2" r="4.5"/>
	<circle class="st34" cx="357" cy="335.7" r="2"/>
	<circle class="st34" cx="339" cy="244.2" r="5"/>
	<circle class="st34" cx="324" cy="266.2" r="4"/>
	<circle class="st34" cx="359" cy="270.2" r="6"/>
	<circle class="st34" cx="328" cy="176.7" r="6"/>
	<circle class="st34" cx="302.5" cy="172.7" r="2.5"/>
	<g class="st0">
		<path class="st35" d="M91.6,67.5c-0.3-0.3-0.8-0.3-1.1,0c-0.6,0.5-0.5,1.1-0.5,1.8c0,0.7,0,1.3,0,2c0,0.7,0.5,1,1,1
			c0.5,0,1-0.3,1-1c0-0.7,0-1.3,0-2C92.1,68.7,92.2,68,91.6,67.5z"/>
		<path class="st35" d="M91.6,86.3c-0.3-0.3-0.8-0.3-1.1,0c-0.6,0.5-0.5,1.1-0.5,1.8c0,0.7,0,1.3,0,2c0,0.7,0.5,1,1,1
			c0.5,0,1-0.3,1-1c0-0.7,0-1.3,0-2C92.1,87.4,92.2,86.7,91.6,86.3z"/>
		<path class="st35" d="M99.7,71.3c0-0.5-0.3-0.7-0.8-0.8c-0.7-0.1-1.2,0.5-1.6,0.9c-0.5,0.5-0.9,1-1.4,1.4c-0.5,0.5-0.3,1,0,1.4
			c0.4,0.4,0.9,0.5,1.4,0c0.5-0.5,1-0.9,1.4-1.4C99.2,72.5,99.8,72,99.7,71.3z"/>
		<path class="st35" d="M86.4,84.6c0-0.5-0.3-0.7-0.8-0.8c-0.7-0.1-1.2,0.5-1.6,0.9c-0.5,0.5-0.9,1-1.4,1.4c-0.5,0.5-0.3,1,0,1.4
			c0.4,0.4,0.9,0.5,1.4,0c0.5-0.5,1-0.9,1.4-1.4C86,85.7,86.5,85.3,86.4,84.6z"/>
		<path class="st35" d="M102.7,79.7c0.3-0.3,0.3-0.8,0-1.1c-0.5-0.6-1.1-0.5-1.8-0.5c-0.7,0-1.3,0-2,0c-0.7,0-1,0.5-1,1
			c0,0.5,0.3,1,1,1c0.7,0,1.3,0,2,0C101.6,80.2,102.3,80.3,102.7,79.7z"/>
		<path class="st35" d="M84,79.7c0.3-0.3,0.3-0.8,0-1.1c-0.5-0.6-1.1-0.5-1.8-0.5c-0.7,0-1.3,0-2,0c-0.7,0-1,0.5-1,1
			c0,0.5,0.3,1,1,1c0.7,0,1.3,0,2,0C82.8,80.2,83.5,80.3,84,79.7z"/>
		<path class="st35" d="M98.9,87.8c0.5,0,0.7-0.3,0.8-0.8c0.1-0.7-0.5-1.2-0.9-1.6c-0.5-0.5-1-0.9-1.4-1.4c-0.5-0.5-1-0.3-1.4,0
			c-0.4,0.4-0.5,0.9,0,1.4c0.5,0.5,0.9,1,1.4,1.4C97.8,87.3,98.2,87.9,98.9,87.8z"/>
		<path class="st35" d="M85.7,74.5c0.5,0,0.7-0.3,0.8-0.8c0.1-0.7-0.5-1.2-0.9-1.6c-0.5-0.5-1-0.9-1.4-1.4c-0.5-0.5-1-0.3-1.4,0
			c-0.4,0.4-0.5,0.9,0,1.4c0.5,0.5,0.9,1,1.4,1.4C84.5,74.1,85,74.6,85.7,74.5z"/>
	</g>
	<g class="st0">
		<path class="st35" d="M384.2,110.4c-0.3-0.3-0.8-0.3-1.1,0c-0.6,0.5-0.5,1.1-0.5,1.8c0,0.7,0,1.3,0,2c0,0.7,0.5,1,1,1
			c0.5,0,1-0.3,1-1c0-0.7,0-1.3,0-2C384.7,111.5,384.7,110.9,384.2,110.4z"/>
		<path class="st35" d="M384.2,129.2c-0.3-0.3-0.8-0.3-1.1,0c-0.6,0.5-0.5,1.1-0.5,1.8c0,0.7,0,1.3,0,2c0,0.7,0.5,1,1,1
			c0.5,0,1-0.3,1-1c0-0.7,0-1.3,0-2C384.7,130.3,384.7,129.6,384.2,129.2z"/>
		<path class="st35" d="M392.3,114.2c0-0.5-0.3-0.7-0.8-0.8c-0.7-0.1-1.2,0.5-1.6,0.9c-0.5,0.5-0.9,1-1.4,1.4c-0.5,0.5-0.3,1,0,1.4
			c0.4,0.4,0.9,0.5,1.4,0c0.5-0.5,1-0.9,1.4-1.4C391.8,115.4,392.3,114.9,392.3,114.2z"/>
		<path class="st35" d="M379,127.5c0-0.5-0.3-0.7-0.8-0.8c-0.7-0.1-1.2,0.5-1.6,0.9c-0.5,0.5-0.9,1-1.4,1.4c-0.5,0.5-0.3,1,0,1.4
			c0.4,0.4,0.9,0.5,1.4,0c0.5-0.5,1-0.9,1.4-1.4C378.5,128.6,379.1,128.2,379,127.5z"/>
		<path class="st35" d="M395.3,122.6c0.3-0.3,0.3-0.8,0-1.1c-0.5-0.6-1.1-0.5-1.8-0.5c-0.7,0-1.3,0-2,0c-0.7,0-1,0.5-1,1
			c0,0.5,0.3,1,1,1c0.7,0,1.3,0,2,0C394.2,123.1,394.8,123.2,395.3,122.6z"/>
		<path class="st35" d="M376.5,122.6c0.3-0.3,0.3-0.8,0-1.1c-0.5-0.6-1.1-0.5-1.8-0.5c-0.7,0-1.3,0-2,0c-0.7,0-1,0.5-1,1
			c0,0.5,0.3,1,1,1c0.7,0,1.3,0,2,0C375.4,123.1,376.1,123.2,376.5,122.6z"/>
		<path class="st35" d="M391.5,130.7c0.5,0,0.7-0.3,0.8-0.8c0.1-0.7-0.5-1.2-0.9-1.6c-0.5-0.5-1-0.9-1.4-1.4c-0.5-0.5-1-0.3-1.4,0
			c-0.4,0.4-0.5,0.9,0,1.4c0.5,0.5,0.9,1,1.4,1.4C390.3,130.2,390.8,130.8,391.5,130.7z"/>
		<path class="st35" d="M378.2,117.4c0.5,0,0.7-0.3,0.8-0.8c0.1-0.7-0.5-1.2-0.9-1.6c-0.5-0.5-1-0.9-1.4-1.4c-0.5-0.5-1-0.3-1.4,0
			c-0.4,0.4-0.5,0.9,0,1.4c0.5,0.5,0.9,1,1.4,1.4C377.1,116.9,377.5,117.5,378.2,117.4z"/>
	</g>
	<g class="st0">
		<path class="st35" d="M54.7,265.9c-0.3-0.3-0.8-0.3-1.1,0c-0.6,0.5-0.5,1.1-0.5,1.8c0,0.7,0,1.3,0,2c0,0.7,0.5,1,1,1
			c0.5,0,1-0.3,1-1c0-0.7,0-1.3,0-2C55.2,267.1,55.2,266.4,54.7,265.9z"/>
		<path class="st35" d="M54.7,284.7c-0.3-0.3-0.8-0.3-1.1,0c-0.6,0.5-0.5,1.1-0.5,1.8c0,0.7,0,1.3,0,2c0,0.7,0.5,1,1,1
			c0.5,0,1-0.3,1-1c0-0.7,0-1.3,0-2C55.2,285.9,55.2,285.2,54.7,284.7z"/>
		<path class="st35" d="M62.8,269.8c0-0.5-0.3-0.7-0.8-0.8c-0.7-0.1-1.2,0.5-1.6,0.9c-0.5,0.5-0.9,1-1.4,1.4c-0.5,0.5-0.3,1,0,1.4
			c0.4,0.4,0.9,0.5,1.4,0c0.5-0.5,1-0.9,1.4-1.4C62.3,270.9,62.8,270.5,62.8,269.8z"/>
		<path class="st35" d="M49.5,283c0-0.5-0.3-0.7-0.8-0.8c-0.7-0.1-1.2,0.5-1.6,0.9c-0.5,0.5-0.9,1-1.4,1.4c-0.5,0.5-0.3,1,0,1.4
			c0.4,0.4,0.9,0.5,1.4,0c0.5-0.5,1-0.9,1.4-1.4C49,284.2,49.6,283.7,49.5,283z"/>
		<path class="st35" d="M65.8,278.2c0.3-0.3,0.3-0.8,0-1.1c-0.5-0.6-1.1-0.5-1.8-0.5c-0.7,0-1.3,0-2,0c-0.7,0-1,0.5-1,1
			c0,0.5,0.3,1,1,1c0.7,0,1.3,0,2,0C64.6,278.6,65.3,278.7,65.8,278.2z"/>
		<path class="st35" d="M47,278.2c0.3-0.3,0.3-0.8,0-1.1c-0.5-0.6-1.1-0.5-1.8-0.5c-0.7,0-1.3,0-2,0c-0.7,0-1,0.5-1,1
			c0,0.5,0.3,1,1,1c0.7,0,1.3,0,2,0C45.9,278.6,46.6,278.7,47,278.2z"/>
		<path class="st35" d="M62,286.2c0.5,0,0.7-0.3,0.8-0.8c0.1-0.7-0.5-1.2-0.9-1.6c-0.5-0.5-1-0.9-1.4-1.4c-0.5-0.5-1-0.3-1.4,0
			c-0.4,0.4-0.5,0.9,0,1.4c0.5,0.5,0.9,1,1.4,1.4C60.8,285.8,61.3,286.3,62,286.2z"/>
		<path class="st35" d="M48.7,273c0.5,0,0.7-0.3,0.8-0.8c0.1-0.7-0.5-1.2-0.9-1.6c-0.5-0.5-1-0.9-1.4-1.4c-0.5-0.5-1-0.3-1.4,0
			c-0.4,0.4-0.5,0.9,0,1.4c0.5,0.5,0.9,1,1.4,1.4C47.6,272.5,48,273,48.7,273z"/>
	</g>
	<g class="st0">
		<path class="st35" d="M120.9,427.3c-0.3-0.3-0.8-0.3-1.1,0c-0.6,0.5-0.5,1.1-0.5,1.8c0,0.7,0,1.3,0,2c0,0.7,0.5,1,1,1
			c0.5,0,1-0.3,1-1c0-0.7,0-1.3,0-2C121.3,428.4,121.4,427.7,120.9,427.3z"/>
		<path class="st35" d="M120.9,446.1c-0.3-0.3-0.8-0.3-1.1,0c-0.6,0.5-0.5,1.1-0.5,1.8c0,0.7,0,1.3,0,2c0,0.7,0.5,1,1,1
			c0.5,0,1-0.3,1-1c0-0.7,0-1.3,0-2C121.3,447.2,121.4,446.5,120.9,446.1z"/>
		<path class="st35" d="M128.9,431.1c0-0.5-0.3-0.7-0.8-0.8c-0.7-0.1-1.2,0.5-1.6,0.9c-0.5,0.5-0.9,1-1.4,1.4c-0.5,0.5-0.3,1,0,1.4
			c0.4,0.4,0.9,0.5,1.4,0c0.5-0.5,1-0.9,1.4-1.4C128.5,432.2,129,431.8,128.9,431.1z"/>
		<path class="st35" d="M115.7,444.4c0-0.5-0.3-0.7-0.8-0.8c-0.7-0.1-1.2,0.5-1.6,0.9c-0.5,0.5-0.9,1-1.4,1.4c-0.5,0.5-0.3,1,0,1.4
			c0.4,0.4,0.9,0.5,1.4,0c0.5-0.5,1-0.9,1.4-1.4C115.2,445.5,115.7,445.1,115.7,444.4z"/>
		<path class="st35" d="M132,439.5c0.3-0.3,0.3-0.8,0-1.1c-0.5-0.6-1.1-0.5-1.8-0.5c-0.7,0-1.3,0-2,0c-0.7,0-1,0.5-1,1
			c0,0.5,0.3,1,1,1c0.7,0,1.3,0,2,0C130.8,440,131.5,440,132,439.5z"/>
		<path class="st35" d="M113.2,439.5c0.3-0.3,0.3-0.8,0-1.1c-0.5-0.6-1.1-0.5-1.8-0.5c-0.7,0-1.3,0-2,0c-0.7,0-1,0.5-1,1
			c0,0.5,0.3,1,1,1c0.7,0,1.3,0,2,0C112,440,112.7,440,113.2,439.5z"/>
		<path class="st35" d="M128.2,447.6c0.5,0,0.7-0.3,0.8-0.8c0.1-0.7-0.5-1.2-0.9-1.6c-0.5-0.5-1-0.9-1.4-1.4c-0.5-0.5-1-0.3-1.4,0
			c-0.4,0.4-0.5,0.9,0,1.4c0.5,0.5,0.9,1,1.4,1.4C127,447.1,127.4,447.6,128.2,447.6z"/>
		<path class="st35" d="M114.9,434.3c0.5,0,0.7-0.3,0.8-0.8c0.1-0.7-0.5-1.2-0.9-1.6c-0.5-0.5-1-0.9-1.4-1.4c-0.5-0.5-1-0.3-1.4,0
			c-0.4,0.4-0.5,0.9,0,1.4c0.5,0.5,0.9,1,1.4,1.4C113.7,433.8,114.2,434.4,114.9,434.3z"/>
	</g>
	<g class="st0">
		<path class="st35" d="M421.9,408.3c-0.3-0.3-0.8-0.3-1.1,0c-0.6,0.5-0.5,1.1-0.5,1.8c0,0.7,0,1.3,0,2c0,0.7,0.5,1,1,1
			c0.5,0,1-0.3,1-1c0-0.7,0-1.3,0-2C422.3,409.4,422.4,408.7,421.9,408.3z"/>
		<path class="st35" d="M421.9,427.1c-0.3-0.3-0.8-0.3-1.1,0c-0.6,0.5-0.5,1.1-0.5,1.8c0,0.7,0,1.3,0,2c0,0.7,0.5,1,1,1
			c0.5,0,1-0.3,1-1c0-0.7,0-1.3,0-2C422.3,428.2,422.4,427.5,421.9,427.1z"/>
		<path class="st35" d="M429.9,412.1c0-0.5-0.3-0.7-0.8-0.8c-0.7-0.1-1.2,0.5-1.6,0.9c-0.5,0.5-0.9,1-1.4,1.4c-0.5,0.5-0.3,1,0,1.4
			c0.4,0.4,0.9,0.5,1.4,0c0.5-0.5,1-0.9,1.4-1.4C429.5,413.2,430,412.8,429.9,412.1z"/>
		<path class="st35" d="M416.7,425.4c0-0.5-0.3-0.7-0.8-0.8c-0.7-0.1-1.2,0.5-1.6,0.9c-0.5,0.5-0.9,1-1.4,1.4c-0.5,0.5-0.3,1,0,1.4
			c0.4,0.4,0.9,0.5,1.4,0c0.5-0.5,1-0.9,1.4-1.4C416.2,426.5,416.7,426.1,416.7,425.4z"/>
		<path class="st35" d="M433,420.5c0.3-0.3,0.3-0.8,0-1.1c-0.5-0.6-1.1-0.5-1.8-0.5c-0.7,0-1.3,0-2,0c-0.7,0-1,0.5-1,1
			c0,0.5,0.3,1,1,1c0.7,0,1.3,0,2,0C431.8,421,432.5,421,433,420.5z"/>
		<path class="st35" d="M414.2,420.5c0.3-0.3,0.3-0.8,0-1.1c-0.5-0.6-1.1-0.5-1.8-0.5c-0.7,0-1.3,0-2,0c-0.7,0-1,0.5-1,1
			c0,0.5,0.3,1,1,1c0.7,0,1.3,0,2,0C413,421,413.7,421,414.2,420.5z"/>
		<path class="st35" d="M429.2,428.6c0.5,0,0.7-0.3,0.8-0.8c0.1-0.7-0.5-1.2-0.9-1.6c-0.5-0.5-1-0.9-1.4-1.4c-0.5-0.5-1-0.3-1.4,0
			c-0.4,0.4-0.5,0.9,0,1.4c0.5,0.5,0.9,1,1.4,1.4C428,428.1,428.4,428.6,429.2,428.6z"/>
		<path class="st35" d="M415.9,415.3c0.5,0,0.7-0.3,0.8-0.8c0.1-0.7-0.5-1.2-0.9-1.6c-0.5-0.5-1-0.9-1.4-1.4c-0.5-0.5-1-0.3-1.4,0
			c-0.4,0.4-0.5,0.9,0,1.4c0.5,0.5,0.9,1,1.4,1.4C414.7,414.8,415.2,415.4,415.9,415.3z"/>
	</g>
	<g class="st0">
		<path class="st35" d="M432.9,237.8c-0.3-0.3-0.8-0.3-1.1,0c-0.6,0.5-0.5,1.1-0.5,1.8c0,0.7,0,1.3,0,2c0,0.7,0.5,1,1,1
			c0.5,0,1-0.3,1-1c0-0.7,0-1.3,0-2C433.3,238.9,433.4,238.2,432.9,237.8z"/>
		<path class="st35" d="M432.9,256.6c-0.3-0.3-0.8-0.3-1.1,0c-0.6,0.5-0.5,1.1-0.5,1.8c0,0.7,0,1.3,0,2c0,0.7,0.5,1,1,1
			c0.5,0,1-0.3,1-1c0-0.7,0-1.3,0-2C433.3,257.7,433.4,257,432.9,256.6z"/>
		<path class="st35" d="M440.9,241.6c0-0.5-0.3-0.7-0.8-0.8c-0.7-0.1-1.2,0.5-1.6,0.9c-0.5,0.5-0.9,1-1.4,1.4c-0.5,0.5-0.3,1,0,1.4
			c0.4,0.4,0.9,0.5,1.4,0c0.5-0.5,1-0.9,1.4-1.4C440.5,242.7,441,242.3,440.9,241.6z"/>
		<path class="st35" d="M427.7,254.9c0-0.5-0.3-0.7-0.8-0.8c-0.7-0.1-1.2,0.5-1.6,0.9c-0.5,0.5-0.9,1-1.4,1.4c-0.5,0.5-0.3,1,0,1.4
			c0.4,0.4,0.9,0.5,1.4,0c0.5-0.5,1-0.9,1.4-1.4C427.2,256,427.7,255.6,427.7,254.9z"/>
		<path class="st35" d="M444,250c0.3-0.3,0.3-0.8,0-1.1c-0.5-0.6-1.1-0.5-1.8-0.5c-0.7,0-1.3,0-2,0c-0.7,0-1,0.5-1,1
			c0,0.5,0.3,1,1,1c0.7,0,1.3,0,2,0C442.8,250.5,443.5,250.5,444,250z"/>
		<path class="st35" d="M425.2,250c0.3-0.3,0.3-0.8,0-1.1c-0.5-0.6-1.1-0.5-1.8-0.5c-0.7,0-1.3,0-2,0c-0.7,0-1,0.5-1,1
			c0,0.5,0.3,1,1,1c0.7,0,1.3,0,2,0C424,250.5,424.7,250.5,425.2,250z"/>
		<path class="st35" d="M440.2,258.1c0.5,0,0.7-0.3,0.8-0.8c0.1-0.7-0.5-1.2-0.9-1.6c-0.5-0.5-1-0.9-1.4-1.4c-0.5-0.5-1-0.3-1.4,0
			c-0.4,0.4-0.5,0.9,0,1.4c0.5,0.5,0.9,1,1.4,1.4C439,257.6,439.4,258.1,440.2,258.1z"/>
		<path class="st35" d="M426.9,244.8c0.5,0,0.7-0.3,0.8-0.8c0.1-0.7-0.5-1.2-0.9-1.6c-0.5-0.5-1-0.9-1.4-1.4c-0.5-0.5-1-0.3-1.4,0
			c-0.4,0.4-0.5,0.9,0,1.4c0.5,0.5,0.9,1,1.4,1.4C425.7,244.3,426.2,244.9,426.9,244.8z"/>
	</g>
	<g class="st0">
		<path class="st35" d="M109.1,102.4c-0.3-0.2-0.6-0.2-0.9,0c-0.4,0.4-0.4,0.9-0.4,1.4c0,0.5,0,1,0,1.6c0,0.5,0.4,0.8,0.8,0.8
			c0.4,0,0.8-0.2,0.8-0.8c0-0.5,0-1,0-1.6C109.5,103.2,109.5,102.7,109.1,102.4z"/>
		<path class="st35" d="M109.1,116.9c-0.3-0.2-0.6-0.2-0.9,0c-0.4,0.4-0.4,0.9-0.4,1.4c0,0.5,0,1,0,1.6c0,0.5,0.4,0.8,0.8,0.8
			c0.4,0,0.8-0.2,0.8-0.8c0-0.5,0-1,0-1.6C109.5,117.8,109.5,117.3,109.1,116.9z"/>
		<path class="st35" d="M115.4,105.3c0-0.4-0.3-0.6-0.6-0.6c-0.6,0-0.9,0.4-1.2,0.7c-0.4,0.4-0.7,0.7-1.1,1.1
			c-0.4,0.4-0.3,0.8,0,1.1c0.3,0.3,0.7,0.4,1.1,0c0.4-0.4,0.7-0.7,1.1-1.1C115,106.2,115.4,105.9,115.4,105.3z"/>
		<path class="st35" d="M105.1,115.6c0-0.4-0.3-0.6-0.6-0.6c-0.6,0-0.9,0.4-1.2,0.7c-0.4,0.4-0.7,0.7-1.1,1.1
			c-0.4,0.4-0.3,0.8,0,1.1c0.3,0.3,0.7,0.4,1.1,0c0.4-0.4,0.7-0.7,1.1-1.1C104.7,116.5,105.1,116.2,105.1,115.6z"/>
		<path class="st35" d="M117.7,111.8c0.2-0.3,0.2-0.6,0-0.9c-0.4-0.4-0.9-0.4-1.4-0.4c-0.5,0-1,0-1.6,0c-0.5,0-0.8,0.4-0.8,0.8
			c0,0.4,0.2,0.8,0.8,0.8c0.5,0,1,0,1.6,0C116.8,112.2,117.4,112.3,117.7,111.8z"/>
		<path class="st35" d="M103.2,111.8c0.2-0.3,0.2-0.6,0-0.9c-0.4-0.4-0.9-0.4-1.4-0.4c-0.5,0-1,0-1.6,0c-0.5,0-0.8,0.4-0.8,0.8
			c0,0.4,0.2,0.8,0.8,0.8c0.5,0,1,0,1.6,0C102.3,112.2,102.8,112.3,103.2,111.8z"/>
		<path class="st35" d="M114.8,118.1c0.4,0,0.6-0.3,0.6-0.6c0-0.6-0.4-0.9-0.7-1.2c-0.4-0.4-0.7-0.7-1.1-1.1c-0.4-0.4-0.8-0.3-1.1,0
			c-0.3,0.3-0.4,0.7,0,1.1c0.4,0.4,0.7,0.7,1.1,1.1C113.9,117.7,114.2,118.1,114.8,118.1z"/>
		<path class="st35" d="M104.5,107.8c0.4,0,0.6-0.3,0.6-0.6c0-0.6-0.4-0.9-0.7-1.2c-0.4-0.4-0.7-0.7-1.1-1.1c-0.4-0.4-0.8-0.3-1.1,0
			c-0.3,0.3-0.4,0.7,0,1.1c0.4,0.4,0.7,0.7,1.1,1.1C103.6,107.4,103.9,107.9,104.5,107.8z"/>
	</g>
	<g class="st0">
		<path class="st35" d="M33.4,252.6c-0.2-0.2-0.5-0.2-0.7,0c-0.4,0.3-0.3,0.7-0.3,1.2c0,0.4,0,0.9,0,1.3c0,0.4,0.3,0.6,0.7,0.6
			c0.3,0,0.7-0.2,0.7-0.6c0-0.4,0-0.9,0-1.3C33.7,253.4,33.8,252.9,33.4,252.6z"/>
		<path class="st35" d="M33.4,264.8c-0.2-0.2-0.5-0.2-0.7,0c-0.4,0.3-0.3,0.7-0.3,1.2c0,0.4,0,0.9,0,1.3c0,0.4,0.3,0.6,0.7,0.6
			c0.3,0,0.7-0.2,0.7-0.6c0-0.4,0-0.9,0-1.3C33.7,265.5,33.8,265.1,33.4,264.8z"/>
		<path class="st35" d="M38.7,255.1c0-0.3-0.2-0.5-0.5-0.5c-0.5,0-0.7,0.3-1,0.6c-0.3,0.3-0.6,0.6-0.9,0.9c-0.3,0.3-0.2,0.7,0,0.9
			c0.2,0.2,0.6,0.3,0.9,0c0.3-0.3,0.6-0.6,0.9-0.9C38.4,255.8,38.7,255.6,38.7,255.1z"/>
		<path class="st35" d="M30.1,263.7c0-0.3-0.2-0.5-0.5-0.5c-0.5,0-0.7,0.3-1,0.6c-0.3,0.3-0.6,0.6-0.9,0.9c-0.3,0.3-0.2,0.7,0,0.9
			c0.2,0.2,0.6,0.3,0.9,0c0.3-0.3,0.6-0.6,0.9-0.9C29.8,264.5,30.1,264.2,30.1,263.7z"/>
		<path class="st35" d="M40.6,260.5c0.2-0.2,0.2-0.5,0-0.7c-0.3-0.4-0.7-0.3-1.2-0.3c-0.4,0-0.9,0-1.3,0c-0.4,0-0.6,0.3-0.6,0.7
			c0,0.3,0.2,0.7,0.6,0.7c0.4,0,0.9,0,1.3,0C39.9,260.9,40.3,260.9,40.6,260.5z"/>
		<path class="st35" d="M28.5,260.5c0.2-0.2,0.2-0.5,0-0.7c-0.3-0.4-0.7-0.3-1.2-0.3c-0.4,0-0.9,0-1.3,0c-0.4,0-0.6,0.3-0.6,0.7
			c0,0.3,0.2,0.7,0.6,0.7c0.4,0,0.9,0,1.3,0C27.7,260.9,28.2,260.9,28.5,260.5z"/>
		<path class="st35" d="M38.2,265.8c0.3,0,0.5-0.2,0.5-0.5c0-0.5-0.3-0.7-0.6-1c-0.3-0.3-0.6-0.6-0.9-0.9c-0.3-0.3-0.7-0.2-0.9,0
			c-0.2,0.2-0.3,0.6,0,0.9c0.3,0.3,0.6,0.6,0.9,0.9C37.4,265.5,37.7,265.8,38.2,265.8z"/>
		<path class="st35" d="M29.6,257.2c0.3,0,0.5-0.2,0.5-0.5c0-0.5-0.3-0.7-0.6-1c-0.3-0.3-0.6-0.6-0.9-0.9c-0.3-0.3-0.7-0.2-0.9,0
			c-0.2,0.2-0.3,0.6,0,0.9c0.3,0.3,0.6,0.6,0.9,0.9C28.8,256.9,29.1,257.2,29.6,257.2z"/>
	</g>
	<g class="st0">
		<path class="st35" d="M370.7,401.6c-0.2-0.2-0.5-0.2-0.7,0c-0.4,0.3-0.3,0.7-0.3,1.2c0,0.4,0,0.9,0,1.3c0,0.4,0.3,0.6,0.7,0.6
			c0.3,0,0.7-0.2,0.7-0.6c0-0.4,0-0.9,0-1.3C371,402.3,371.1,401.9,370.7,401.6z"/>
		<path class="st35" d="M370.7,413.7c-0.2-0.2-0.5-0.2-0.7,0c-0.4,0.3-0.3,0.7-0.3,1.2c0,0.4,0,0.9,0,1.3c0,0.4,0.3,0.6,0.7,0.6
			c0.3,0,0.7-0.2,0.7-0.6c0-0.4,0-0.9,0-1.3C371,414.5,371.1,414,370.7,413.7z"/>
		<path class="st35" d="M376,404c0-0.3-0.2-0.5-0.5-0.5c-0.5,0-0.7,0.3-1,0.6c-0.3,0.3-0.6,0.6-0.9,0.9c-0.3,0.3-0.2,0.7,0,0.9
			c0.2,0.2,0.6,0.3,0.9,0c0.3-0.3,0.6-0.6,0.9-0.9C375.7,404.8,376,404.5,376,404z"/>
		<path class="st35" d="M367.3,412.6c0-0.3-0.2-0.5-0.5-0.5c-0.5,0-0.7,0.3-1,0.6c-0.3,0.3-0.6,0.6-0.9,0.9c-0.3,0.3-0.2,0.7,0,0.9
			c0.2,0.2,0.6,0.3,0.9,0c0.3-0.3,0.6-0.6,0.9-0.9C367,413.4,367.4,413.1,367.3,412.6z"/>
		<path class="st35" d="M377.9,409.5c0.2-0.2,0.2-0.5,0-0.7c-0.3-0.4-0.7-0.3-1.2-0.3c-0.4,0-0.9,0-1.3,0c-0.4,0-0.6,0.3-0.6,0.7
			c0,0.3,0.2,0.7,0.6,0.7c0.4,0,0.9,0,1.3,0C377.2,409.8,377.6,409.8,377.9,409.5z"/>
		<path class="st35" d="M365.7,409.5c0.2-0.2,0.2-0.5,0-0.7c-0.3-0.4-0.7-0.3-1.2-0.3c-0.4,0-0.9,0-1.3,0c-0.4,0-0.6,0.3-0.6,0.7
			c0,0.3,0.2,0.7,0.6,0.7c0.4,0,0.9,0,1.3,0C365,409.8,365.4,409.8,365.7,409.5z"/>
		<path class="st35" d="M375.5,414.7c0.3,0,0.5-0.2,0.5-0.5c0-0.5-0.3-0.7-0.6-1c-0.3-0.3-0.6-0.6-0.9-0.9c-0.3-0.3-0.7-0.2-0.9,0
			c-0.2,0.2-0.3,0.6,0,0.9c0.3,0.3,0.6,0.6,0.9,0.9C374.7,414.4,375,414.8,375.5,414.7z"/>
		<path class="st35" d="M366.8,406.1c0.3,0,0.5-0.2,0.5-0.5c0-0.5-0.3-0.7-0.6-1c-0.3-0.3-0.6-0.6-0.9-0.9c-0.3-0.3-0.7-0.2-0.9,0
			c-0.2,0.2-0.3,0.6,0,0.9c0.3,0.3,0.6,0.6,0.9,0.9C366.1,405.8,366.4,406.2,366.8,406.1z"/>
	</g>
	<g class="st0">
		<path class="st35" d="M401,266c-0.2-0.2-0.5-0.2-0.7,0c-0.4,0.3-0.3,0.7-0.3,1.2c0,0.4,0,0.9,0,1.3c0,0.4,0.3,0.6,0.7,0.6
			c0.3,0,0.7-0.2,0.7-0.6c0-0.4,0-0.9,0-1.3C401.3,266.7,401.3,266.3,401,266z"/>
		<path class="st35" d="M401,278.1c-0.2-0.2-0.5-0.2-0.7,0c-0.4,0.3-0.3,0.7-0.3,1.2c0,0.4,0,0.9,0,1.3c0,0.4,0.3,0.6,0.7,0.6
			c0.3,0,0.7-0.2,0.7-0.6c0-0.4,0-0.9,0-1.3C401.3,278.9,401.3,278.4,401,278.1z"/>
		<path class="st35" d="M406.2,268.4c0-0.3-0.2-0.5-0.5-0.5c-0.5,0-0.7,0.3-1,0.6c-0.3,0.3-0.6,0.6-0.9,0.9c-0.3,0.3-0.2,0.7,0,0.9
			c0.2,0.2,0.6,0.3,0.9,0c0.3-0.3,0.6-0.6,0.9-0.9C405.9,269.2,406.2,268.9,406.2,268.4z"/>
		<path class="st35" d="M397.6,277c0-0.3-0.2-0.5-0.5-0.5c-0.5,0-0.7,0.3-1,0.6c-0.3,0.3-0.6,0.6-0.9,0.9c-0.3,0.3-0.2,0.7,0,0.9
			c0.2,0.2,0.6,0.3,0.9,0c0.3-0.3,0.6-0.6,0.9-0.9C397.3,277.8,397.6,277.5,397.6,277z"/>
		<path class="st35" d="M408.2,273.9c0.2-0.2,0.2-0.5,0-0.7c-0.3-0.4-0.7-0.3-1.2-0.3c-0.4,0-0.9,0-1.3,0c-0.4,0-0.6,0.3-0.6,0.7
			c0,0.3,0.2,0.7,0.6,0.7c0.4,0,0.9,0,1.3,0C407.4,274.2,407.9,274.2,408.2,273.9z"/>
		<path class="st35" d="M396,273.9c0.2-0.2,0.2-0.5,0-0.7c-0.3-0.4-0.7-0.3-1.2-0.3c-0.4,0-0.9,0-1.3,0c-0.4,0-0.6,0.3-0.6,0.7
			c0,0.3,0.2,0.7,0.6,0.7c0.4,0,0.9,0,1.3,0C395.2,274.2,395.7,274.2,396,273.9z"/>
		<path class="st35" d="M405.7,279.1c0.3,0,0.5-0.2,0.5-0.5c0-0.5-0.3-0.7-0.6-1c-0.3-0.3-0.6-0.6-0.9-0.9c-0.3-0.3-0.7-0.2-0.9,0
			c-0.2,0.2-0.3,0.6,0,0.9c0.3,0.3,0.6,0.6,0.9,0.9C405,278.8,405.2,279.2,405.7,279.1z"/>
		<path class="st35" d="M397.1,270.5c0.3,0,0.5-0.2,0.5-0.5c0-0.5-0.3-0.7-0.6-1c-0.3-0.3-0.6-0.6-0.9-0.9c-0.3-0.3-0.7-0.2-0.9,0
			c-0.2,0.2-0.3,0.6,0,0.9c0.3,0.3,0.6,0.6,0.9,0.9C396.3,270.2,396.6,270.6,397.1,270.5z"/>
	</g>
	<g class="st0">
		<path class="st35" d="M250,26.3c-0.2-0.2-0.5-0.2-0.7,0c-0.3,0.3-0.3,0.7-0.3,1.1c0,0.4,0,0.8,0,1.3c0,0.4,0.3,0.6,0.6,0.6
			c0.3,0,0.6-0.2,0.6-0.6c0-0.4,0-0.8,0-1.3C250.3,27.1,250.3,26.6,250,26.3z"/>
		<path class="st35" d="M250,38.1c-0.2-0.2-0.5-0.2-0.7,0c-0.3,0.3-0.3,0.7-0.3,1.1c0,0.4,0,0.8,0,1.3c0,0.4,0.3,0.6,0.6,0.6
			c0.3,0,0.6-0.2,0.6-0.6c0-0.4,0-0.8,0-1.3C250.3,38.9,250.3,38.4,250,38.1z"/>
		<path class="st35" d="M255.1,28.7c0-0.3-0.2-0.5-0.5-0.5c-0.4,0-0.7,0.3-1,0.6c-0.3,0.3-0.6,0.6-0.9,0.9c-0.3,0.3-0.2,0.7,0,0.9
			c0.2,0.2,0.6,0.3,0.9,0c0.3-0.3,0.6-0.6,0.9-0.9C254.8,29.5,255.1,29.2,255.1,28.7z"/>
		<path class="st35" d="M246.7,37.1c0-0.3-0.2-0.5-0.5-0.5c-0.4,0-0.7,0.3-1,0.6c-0.3,0.3-0.6,0.6-0.9,0.9c-0.3,0.3-0.2,0.7,0,0.9
			c0.2,0.2,0.6,0.3,0.9,0c0.3-0.3,0.6-0.6,0.9-0.9C246.4,37.8,246.8,37.5,246.7,37.1z"/>
		<path class="st35" d="M257,34c0.2-0.2,0.2-0.5,0-0.7c-0.3-0.3-0.7-0.3-1.1-0.3c-0.4,0-0.8,0-1.3,0c-0.4,0-0.6,0.3-0.6,0.6
			c0,0.3,0.2,0.6,0.6,0.6c0.4,0,0.8,0,1.3,0C256.3,34.3,256.7,34.4,257,34z"/>
		<path class="st35" d="M245.2,34c0.2-0.2,0.2-0.5,0-0.7c-0.3-0.3-0.7-0.3-1.1-0.3c-0.4,0-0.8,0-1.3,0c-0.4,0-0.6,0.3-0.6,0.6
			c0,0.3,0.2,0.6,0.6,0.6c0.4,0,0.8,0,1.3,0C244.5,34.3,244.9,34.4,245.2,34z"/>
		<path class="st35" d="M254.6,39.1c0.3,0,0.5-0.2,0.5-0.5c0-0.4-0.3-0.7-0.6-1c-0.3-0.3-0.6-0.6-0.9-0.9c-0.3-0.3-0.7-0.2-0.9,0
			c-0.2,0.2-0.3,0.6,0,0.9c0.3,0.3,0.6,0.6,0.9,0.9C253.9,38.8,254.1,39.1,254.6,39.1z"/>
		<path class="st35" d="M246.3,30.8c0.3,0,0.5-0.2,0.5-0.5c0-0.4-0.3-0.7-0.6-1c-0.3-0.3-0.6-0.6-0.9-0.9c-0.3-0.3-0.7-0.2-0.9,0
			c-0.2,0.2-0.3,0.6,0,0.9c0.3,0.3,0.6,0.6,0.9,0.9C245.5,30.5,245.8,30.8,246.3,30.8z"/>
	</g>
	<g>
		<defs>
			<rect id="SVGID_1_" width="500" height="496.2"/>
		</defs>
		<clipPath id="SVGID_2_">
			<use xlink:href="#SVGID_1_"  style="overflow:visible;"/>
		</clipPath>
		<path class="st36" d="M328.2,367.5c-12-16.9-12.9-41.8-19-51.9v-95.3c0-9.1-7.4-16.5-16.5-16.5H204c-9.1,0-16.5,7.4-16.5,16.5
			v86.4c-5.8-1.8-11.9-3-18-3.4c-5.8-0.4-12.7,0.3-15.8,5.2c0,0,0,0,0,0c-0.6,0.9-1,1.9-1.2,2.9c0,0.1,0,0.1,0,0.2
			c-0.1,0.3-0.1,0.6-0.2,1c-0.2,2.1,0.1,4.3,0.9,6.4c0.2,0.4,0.3,0.8,0.5,1.2c0,0,0,0,0,0c0.1,0.2,0.3,0.5,0.4,0.7
			c0.2,0.3,0.4,0.7,0.7,1c2,2.9,4.9,5.2,7.9,7.3c0.3,0.2,0.5,0.4,0.8,0.5c1.2,0.8,2.4,1.5,3.6,2.2c5.3,3.2,10.9,5.8,16.7,8
			c-4.8,0.5-8.5,6.3-10.1,12.5c0,0,0,0,0,0c-0.1,0.4-0.2,0.8-0.3,1.1c0,0,0,0,0,0.1c-0.1,0.4-0.2,0.7-0.2,1.1c0,0,0,0.1,0,0.1
			c-0.1,0.4-0.1,0.7-0.2,1.1c0,0,0,0.1,0,0.1c0,0.3-0.1,0.7-0.1,1c0,0.1,0,0.1,0,0.2c0,0.3,0,0.6-0.1,0.9c0,0.1,0,0.2,0,0.3
			c0,0.3,0,0.6,0,0.8c0,0.1,0,0.2,0,0.3c0,0.3,0,0.5,0,0.7c0,0.1,0,0.2,0,0.3c0,0.2,0,0.4,0.1,0.7c0,0.1,0,0.2,0.1,0.4
			c0,0.2,0.1,0.4,0.1,0.6c0,0.1,0.1,0.3,0.1,0.4c0,0.2,0.1,0.3,0.1,0.5c0,0.1,0.1,0.3,0.1,0.4c0.1,0.1,0.1,0.3,0.2,0.4
			c0.1,0.1,0.1,0.3,0.2,0.4c0.1,0.1,0.1,0.2,0.2,0.3c0.1,0.1,0.2,0.2,0.2,0.4c0.1,0.1,0.1,0.2,0.2,0.3c0.1,0.1,0.2,0.2,0.3,0.4
			c0.1,0.1,0.1,0.1,0.2,0.2c0.2,0.2,0.4,0.3,0.6,0.4c0,0,0,0,0,0c2,1.2,6.2,3.3,11.3,5.5c-2.1-0.5-4.3-1-6.4-1.4
			c-6.2-1.2-10.9,6.2-12.8,13.6c0,0,0,0,0,0c-0.1,0.4-0.2,0.8-0.3,1.2c0,0,0,0,0,0.1c-0.1,0.4-0.1,0.7-0.2,1.1c0,0,0,0.1,0,0.1
			c-0.1,0.4-0.1,0.7-0.2,1.1c0,0.1,0,0.1,0,0.2c0,0.3-0.1,0.7-0.1,1c0,0.1,0,0.1,0,0.2c0,0.3,0,0.6,0,0.9c0,0.1,0,0.2,0,0.3
			c0,0.3,0,0.6,0,0.8c0,0.1,0,0.2,0,0.3c0,0.2,0,0.5,0,0.7c0,0.1,0,0.2,0,0.3c0,0.2,0,0.4,0.1,0.6c0,0.1,0,0.3,0.1,0.4
			c0,0.2,0.1,0.4,0.1,0.6c0,0.1,0.1,0.3,0.1,0.4c0,0.2,0.1,0.3,0.1,0.5c0,0.1,0.1,0.3,0.2,0.4c0.1,0.1,0.1,0.3,0.2,0.4
			c0.1,0.1,0.1,0.2,0.2,0.4c0.1,0.1,0.1,0.2,0.2,0.3c0.1,0.1,0.2,0.2,0.3,0.3c0.1,0.1,0.1,0.2,0.2,0.3c0.1,0.1,0.2,0.2,0.3,0.3
			c0.1,0.1,0.1,0.1,0.2,0.2c0.2,0.1,0.4,0.3,0.6,0.4c0,0,0,0,0,0c0.9,0.4,2.1,0.9,3.7,1.5c-3.4,2.3-6,7.4-7.1,12.4c0,0,0,0.1,0,0.1
			c-0.1,0.3-0.1,0.6-0.2,0.9c0,0.1,0,0.1,0,0.2c-0.1,0.3-0.1,0.6-0.1,0.9c0,0.1,0,0.1,0,0.2c0,0.3-0.1,0.6-0.1,0.9
			c0,0.1,0,0.1,0,0.2c0,0.3-0.1,0.6-0.1,0.8c0,0,0,0.1,0,0.1c0,0.9,0,1.7,0,2.4c0,0.1,0,0.2,0,0.2c0,0.2,0,0.3,0.1,0.5
			c0,0.1,0,0.3,0.1,0.4c0,0.1,0.1,0.3,0.1,0.4c0,0.1,0.1,0.3,0.1,0.4c0,0.1,0.1,0.2,0.1,0.4c0,0.1,0.1,0.3,0.1,0.4
			c0,0.1,0.1,0.2,0.1,0.3c0.1,0.1,0.1,0.2,0.2,0.4c0.1,0.1,0.1,0.2,0.2,0.3c0.1,0.1,0.2,0.2,0.2,0.3c0.1,0.1,0.1,0.1,0.2,0.2
			c0.1,0.1,0.2,0.2,0.3,0.3c0.1,0,0.1,0.1,0.2,0.1c0.2,0.1,0.3,0.2,0.5,0.3c2.8,1.4,10,3.9,18.1,6.3c0.4,0.1,0.8,0.2,1.3,0.4
			c0.5,0.2,1.1,0.3,1.6,0.5c0,0,0,0.1,0,0.1c1.9,6.9,5.3,16.6,10.9,27.3c11.2,21.4,17.4,29,20.1,38.8c2.7,9.8,2.7,21.9,2.7,21.9
			l58.1-3c0.5,1.1,0.8,1.7,0.8,1.7l38.6,0.4c0,0,0-18.1,2-26.1C328.2,467.1,342.9,388.3,328.2,367.5z"/>
		<g class="st37">
			<path class="st38" d="M187.2,301c-8.4-3.6-17.4-5.8-26.5-6.5c-5.8-0.4-12.7,0.3-15.8,5.2c-2.3,3.6-1.7,8.5,0.5,12.2
				c2.2,3.7,5.8,6.4,9.4,8.7c11.7,7.6,25,12.7,38.8,14.9c2.9,0.5,6.1,0.8,8.7-0.6c1.6-0.8,2.8-2.2,4-3.6c3.6-4.3,6.7-9,9.5-13.9"/>
			<path class="st39" d="M192.6,327.6c-0.9-1-2.3-1.3-3.5-1.7c-13.6-3.6-27.4-8.2-37.6-17.8c-2.6-2.5-5.1-5.6-6.1-9
				c-0.2,0.2-0.4,0.4-0.5,0.6c-2.3,3.6-1.7,8.5,0.5,12.2c2.2,3.7,5.8,6.4,9.4,8.7c11.7,7.6,25,12.7,38.8,14.9c0.2,0,0.5,0.1,0.7,0.1
				c0.2-1.8,0.1-3.6-0.3-5.4C193.7,329.3,193.3,328.3,192.6,327.6z"/>
			<path class="st39" d="M177.8,409.6c0,0,2.2,16.8,13.4,38.1c11.2,21.2,17.4,28.8,20.1,38.5c2.7,9.7,2.7,21.7,2.7,21.7l94.6-4.9
				l-27.7-95.6l-59.3-15.1l-45.1,19"/>
			<path class="st40" d="M284,195.8h-88.8c-9.1,0-16.5,7.3-16.5,16.4v201.4c0,9,7.4,16.4,16.5,16.4H284c9.1,0,16.5-7.3,16.5-16.4
				V212.2C300.5,203.1,293.1,195.8,284,195.8z"/>
			<path class="st41" d="M280.5,205.3h-81.9c-8.4,0-15.2,6.7-15.2,15v185c0,8.3,6.8,15,15.2,15h81.9c8.4,0,15.2-6.7,15.2-15v-185
				C295.7,212,288.9,205.3,280.5,205.3z"/>
			<path class="st42" d="M278.9,207.4h-78.7c-8.1,0-14.6,6.6-14.6,14.7v181.3c0,8.1,6.6,14.7,14.6,14.7h78.7
				c8.1,0,14.6-6.6,14.6-14.7V222.2C293.6,214.1,287,207.4,278.9,207.4z"/>
			<path class="st38" d="M177.6,331c-10.9-3.2-17.6,21.9-10.9,25.9c6.7,4,37,17.3,46.4,15.9c9.4-1.3,9.4-17.9,5.4-22.6
				C214.4,345.6,195.6,336.3,177.6,331z"/>
			<path class="st38" d="M171.5,361c-11.2-2.1-17.8,23.8-10.7,27.1c7.1,3.3,41,13.3,50.2,11c9.2-2.3,7.5-18.8,3.1-23
				C209.6,371.9,190,364.5,171.5,361z"/>
			<path class="st38" d="M169.7,388.4c-10.3-2.2-16.9,21.8-10.4,24.9c6.5,3.2,37.8,13,46.4,11.1c8.6-1.9,7.3-17.3,3.2-21.3
				C204.9,399.2,186.8,392,169.7,388.4z"/>
			<path class="st39" d="M210.7,362c-10.5-0.8-21.2-1.7-30.7-6.3c-6.1-2.9-11.6-7.8-14.8-13.7c-2,6.2-1.8,13,1.4,14.9
				c6.7,4,37,17.3,46.4,15.9c4.8-0.7,7.2-5.4,7.7-10.5C217.4,362.5,214,362.2,210.7,362z"/>
			<path class="st39" d="M191.5,389.2c-11.9-2.6-23.3-7.9-32.4-15.8c-1.9,6.4-1.6,13.2,1.7,14.8c7.1,3.3,41,13.3,50.2,11
				c3.7-0.9,5.6-4.1,6.3-7.9C208.7,391.6,200,391,191.5,389.2z"/>
			<path class="st39" d="M185.2,416.7c-10.6-2.2-20.3-7.9-27.6-15.8c-1.5,5.5-1.2,11.1,1.7,12.5c6.5,3.2,37.8,13,46.4,11.1
				c3.8-0.9,5.7-4.3,6.2-8.3C203,417.9,194,418.5,185.2,416.7z"/>
			<polygon class="st24" points="270.7,293 277.4,289 238.8,265.8 200.2,289 202,290.1 200.1,289 200.1,329.8 238.8,352.6 
				277.5,329.8 277.5,289 			"/>
			<g>
				<polygon class="st43" points="238.8,346.2 205.8,326.7 205.8,292 238.8,311.5 				"/>
				<polygon class="st44" points="238.8,346.2 271.8,326.7 271.8,292 238.8,311.5 				"/>
				<polygon class="st45" points="238.8,272.2 205.9,292 238.8,311.8 271.7,292 				"/>
			</g>
			<path class="st38" d="M272.8,506.5c0,0-26.3-54-18.3-88.5c8-34.5,24.8-41.8,30.8-47.8c0,0-9.4-20.6-8.7-39.2
				c0,0-26.8-19.3-20.7-36.5c6-17.3,28.1,5.3,39.5,8c11.4,2.7,9.4,35.2,24.1,55.8c14.7,20.6,0,98.8-6,122.8c-2,8-2,25.9-2,25.9"/>
			<path class="st39" d="M255.9,294.5c-6,17.3,20.7,36.5,20.7,36.5c-0.7,18.6,8.7,39.2,8.7,39.2c-0.2,0.2-0.5,0.5-0.8,0.7
				c4.3-1.6,8.8-2.8,13.3-3.5c-11.1-14.2-16.6-32.5-15.1-50.4c0.1-0.8,0.1-1.7-0.2-2.5c-0.6-1.3-2.3-1.7-3.7-2.1
				c-10.3-2.7-18.5-11.8-20.7-22.1C257.3,291.4,256.5,292.7,255.9,294.5z"/>
			<line class="st46" x1="238.8" y1="392.3" x2="238.8" y2="365.4"/>
			<line class="st46" x1="282.2" y1="286.2" x2="288.9" y2="282.2"/>
			<g>
				<path class="st47" d="M207.5,207.4c-7.4,6.7-14.7,13.6-21.9,20.5v32.2c20.7-17.6,41.4-35.1,62.1-52.7H207.5z"/>
				<path class="st47" d="M278.9,207.4h-6.2c-29.1,22.5-58.1,45-87.2,67.5v19.4c34.8-27.3,69.8-54.2,105.1-80.8
					C288.1,209.8,283.8,207.4,278.9,207.4z"/>
			</g>
			<line class="st46" x1="238.8" y1="253.3" x2="238.8" y2="226.4"/>
			<line class="st46" x1="194.3" y1="286.2" x2="187.6" y2="282.2"/>
			<path class="st41" d="M249.3,198.8c-7.1,0-14.1,0.1-21.2,0.1c-2.1,0-2.1,3.3,0,3.3c7.1,0,14.1,0.1,21.2,0.1
				c1.1,0,1.7-0.9,1.7-1.7C251,199.7,250.4,198.8,249.3,198.8z"/>
			<path class="st41" d="M258.3,198.1c-2.7,0-2.7,4.2,0,4.2C261,202.3,261,198.1,258.3,198.1z"/>
			<path class="st41" d="M219.3,198.1c-2.7,0-2.7,4.2,0,4.2C222.1,202.3,222.1,198.1,219.3,198.1z"/>
		</g>
	</g>
	<g>
		<path class="st44" d="M320.8,28.9c-25.6,0-46.4,20.6-46.4,46c0,25.4,20.8,46,46.4,46c25.6,0,46.4-20.6,46.4-46
			C367.2,49.5,346.4,28.9,320.8,28.9z M320.8,111.9c-20.6,0-37.3-16.6-37.3-37c0-20.5,16.7-37,37.3-37c20.6,0,37.3,16.6,37.3,37
			C358.2,95.3,341.5,111.9,320.8,111.9z"/>
		<ellipse class="st43" cx="321.5" cy="75.6" rx="40.6" ry="40.3"/>
		<path class="st45" d="M317.6,26.4c-25.6,0-46.4,20.6-46.4,46c0,25.4,20.8,46,46.4,46c25.6,0,46.4-20.6,46.4-46
			C364,47,343.2,26.4,317.6,26.4z M317.6,109.4c-20.6,0-37.3-16.6-37.3-37c0-20.5,16.7-37,37.3-37c20.6,0,37.3,16.6,37.3,37
			C355,92.8,338.3,109.4,317.6,109.4z"/>
		<path class="st44" d="M334.8,77.6c-1.3-1.5-3.3-2.5-6-3v-0.3c2.2-0.4,3.8-1.3,5-2.8c1.2-1.5,1.7-3.3,1.7-5.6
			c0-3.3-1.2-5.7-3.5-7.3c-1.4-0.9-3.4-1.6-5.9-1.9v-7.1h-5v6.8c-0.2,0-0.4,0-0.6,0h-0.7h-1.2v-6.8h-5v6.8h-4.6h-5.7v5.2h5.7v27.8
			h-5.7v5.2h5.7l0,0h4.6v6.9h5v-6.9h2.5v6.9h5v-7.1c2.9-0.4,5.2-1.3,7-2.7c2.4-1.9,3.6-4.6,3.6-8.1C336.7,81.1,336,79.1,334.8,77.6z
			 M319.8,61.7h1c2.8,0,4.9,0.4,6.2,1.2c1.3,0.8,2,2.1,2,3.9c0,2-0.6,3.4-1.8,4.2c-1.2,0.8-3.1,1.2-5.8,1.2h-6.1V61.7h3.3H319.8z
			 M328,87.9c-1.3,1-3.3,1.5-6,1.5h-6.7V77.3h6.4c2.8,0,4.9,0.5,6.2,1.4c1.4,1,2.1,2.4,2.1,4.4C330,85.3,329.4,86.9,328,87.9z"/>
		<path class="st45" d="M333.6,76.2c-1.3-1.5-3.3-2.5-6-3v-0.3c2.2-0.4,3.8-1.3,5-2.8c1.2-1.5,1.7-3.3,1.7-5.6
			c0-3.3-1.2-5.7-3.5-7.3c-1.4-0.9-3.4-1.6-5.9-1.9v-7.1h-5V55c-0.2,0-0.4,0-0.6,0h-0.7h-1.2v-6.8h-5V55h-4.6h-5.7v5.2h5.7V88h-5.7
			v5.2h5.7l0,0h4.6v6.9h5v-6.9h2.5v6.9h5v-7.1c2.9-0.4,5.2-1.3,7-2.7c2.4-1.9,3.6-4.6,3.6-8.1C335.6,79.7,334.9,77.7,333.6,76.2z
			 M318.7,60.2h1c2.8,0,4.9,0.4,6.2,1.2c1.3,0.8,2,2.1,2,3.9c0,2-0.6,3.4-1.8,4.2c-1.2,0.8-3.1,1.2-5.8,1.2h-6.1V60.2h3.3H318.7z
			 M326.9,86.5c-1.3,1-3.3,1.5-6,1.5h-6.7V75.9h6.4c2.8,0,4.9,0.5,6.2,1.4c1.4,1,2.1,2.4,2.1,4.4C328.9,83.9,328.2,85.5,326.9,86.5z
			"/>
		<polygon class="st44" points="326,49.7 324.9,48.3 324.9,50.6 		"/>
		<polygon class="st44" points="318.6,49.7 317.5,48.3 317.5,50.6 		"/>
		<polygon class="st44" points="302.3,60.2 303.4,61.7 304.8,60.2 		"/>
		<polygon class="st44" points="302.3,93.2 303.4,94.7 305.3,93.2 		"/>
		<polygon class="st44" points="312.5,100.1 313.6,101.5 314.9,100.1 		"/>
		<polygon class="st44" points="320,100.1 321.1,101.5 322.2,100.1 		"/>
	</g>
	<g>
		<path class="st44" d="M170.5,22.8C144.2,22.8,123,43.9,123,70c0,26,21.3,47.1,47.5,47.1C196.7,117.1,218,96,218,70
			C218,43.9,196.7,22.8,170.5,22.8z M170.5,107.9c-21.1,0-38.2-17-38.2-37.9c0-21,17.1-37.9,38.2-37.9c21.1,0,38.2,17,38.2,37.9
			C208.7,90.9,191.6,107.9,170.5,107.9z"/>
		<ellipse class="st43" cx="171.2" cy="70.7" rx="41.6" ry="41.3"/>
		<path class="st45" d="M167.2,20.2c-26.2,0-47.5,21.1-47.5,47.1c0,26,21.3,47.1,47.5,47.1c26.2,0,47.5-21.1,47.5-47.1
			C214.7,41.3,193.4,20.2,167.2,20.2z M167.2,105.3c-21.1,0-38.2-17-38.2-37.9c0-21,17.1-37.9,38.2-37.9c21.1,0,38.2,17,38.2,37.9
			C205.4,88.3,188.3,105.3,167.2,105.3z"/>
		<polygon class="st44" points="168.2,45 167.1,43.5 167.1,45.8 		"/>
		<polygon class="st45" points="168.6,40.5 156.3,67 168.6,72.6 		"/>
		<polygon class="st44" points="168.6,40.5 180.8,67 168.6,72.6 		"/>
		<polygon class="st45" points="168.6,97 156.3,70.5 168.6,76.8 		"/>
		<polygon class="st44" points="168.6,97 180.8,70.5 168.6,76.8 		"/>
	</g>
	<g>
		<path class="st44" d="M412.1,141.2c-25.9,0-46.9,20.8-46.9,46.5c0,25.7,21,46.5,46.9,46.5c25.9,0,46.9-20.8,46.9-46.5
			C459,162,438,141.2,412.1,141.2z M412.1,225.1c-20.8,0-37.7-16.8-37.7-37.4c0-20.7,16.9-37.4,37.7-37.4
			c20.8,0,37.7,16.8,37.7,37.4C449.8,208.4,432.9,225.1,412.1,225.1z"/>
		<ellipse class="st43" cx="412.8" cy="188.4" rx="41" ry="40.7"/>
		<path class="st45" d="M408.9,138.6c-25.9,0-46.9,20.8-46.9,46.5c0,25.7,21,46.5,46.9,46.5c25.9,0,46.9-20.8,46.9-46.5
			C455.7,159.5,434.7,138.6,408.9,138.6z M408.9,222.6c-20.8,0-37.7-16.8-37.7-37.4c0-20.7,16.9-37.4,37.7-37.4
			c20.8,0,37.7,16.8,37.7,37.4C446.6,205.8,429.7,222.6,408.9,222.6z"/>
		<polygon class="st44" points="385.1,190.8 386.8,184.2 406.2,184.2 403.9,190.8 		"/>
		<path class="st44" d="M394.4,178.1l33.6-0.2l-6.3,19.1l-35.2-0.2l-1.4,5.9h36.5c0,0,5.6,0.6,8.6-5.9c3-6.6,5.9-16.8,5.9-16.8
			s2.5-8.5-7.1-8.1c-9.6,0.4-33,0-33,0L394.4,178.1z"/>
		<polygon class="st45" points="384.4,189.2 386.2,182.5 405.6,182.5 403.3,189.2 		"/>
		<path class="st45" d="M393.8,176.4l33.6-0.2l-6.3,19.1l-35.2-0.2l-1.4,5.9h36.5c0,0,5.6,0.6,8.6-5.9c3-6.6,5.9-16.8,5.9-16.8
			s2.5-8.5-7.1-8.1c-9.6,0.4-33,0-33,0L393.8,176.4z"/>
		<polygon class="st44" points="394.4,178.1 393.8,176.4 395.9,176.4 		"/>
		<polygon class="st44" points="406.2,184.2 405.6,182.5 404.7,185.1 		"/>
		<polygon class="st44" points="384.4,189.2 386.7,189.2 385.1,190.8 		"/>
		<polygon class="st44" points="384.4,201 386.7,201.1 385.1,202.7 		"/>
	</g>
	<g>
		<path class="st44" d="M61.4,168.7c-28.8,0-52.1,23.1-52.1,51.7c0,28.5,23.3,51.7,52.1,51.7c28.8,0,52.1-23.1,52.1-51.7
			C113.5,191.9,90.2,168.7,61.4,168.7z M61.4,262c-23.2,0-41.9-18.6-41.9-41.6c0-23,18.8-41.6,41.9-41.6c23.2,0,41.9,18.6,41.9,41.6
			C103.4,243.4,84.6,262,61.4,262z"/>
		<ellipse class="st43" cx="62.2" cy="221.2" rx="45.6" ry="45.3"/>
		<path class="st45" d="M57.9,165.9c-28.8,0-52.1,23.1-52.1,51.7c0,28.5,23.3,51.7,52.1,51.7c28.8,0,52.1-23.1,52.1-51.7
			C110,189,86.6,165.9,57.9,165.9z M57.9,259.2c-23.2,0-41.9-18.6-41.9-41.6s18.8-41.6,41.9-41.6c23.2,0,41.9,18.6,41.9,41.6
			S81,259.2,57.9,259.2z"/>
		<g>
			<polygon class="st44" points="28.8,230.6 34.9,237.9 44.4,237.9 44.4,219 59.9,233.2 75,219 75,237.9 83.7,237.9 90.6,230.6 
				83.8,230.5 83.7,198.5 59.7,222 36.2,198.5 36.2,230.6 			"/>
			<polygon class="st45" points="27.7,229.4 33.8,236.7 43.3,236.7 43.3,217.8 58.8,232 73.9,217.8 73.9,236.7 82.6,236.7 
				89.5,229.4 82.7,229.3 82.7,197.3 58.6,220.8 35.2,197.3 35.1,229.4 			"/>
			<polygon class="st44" points="75,237.9 73.9,236.7 76.7,236.7 			"/>
			<polygon class="st44" points="90.6,230.6 89.5,229.4 87.7,231.3 			"/>
			<polygon class="st44" points="83.7,198.5 82.7,197.3 82.7,200.8 			"/>
		</g>
	</g>
	<g>
		<path class="st44" d="M431.2,296.2c-26.2,0-47.5,21.1-47.5,47.1c0,26,21.3,47.1,47.5,47.1s47.5-21.1,47.5-47.1
			C478.7,317.3,457.4,296.2,431.2,296.2z M431.2,381.3c-21.1,0-38.2-17-38.2-37.9c0-21,17.1-37.9,38.2-37.9s38.2,17,38.2,37.9
			C469.4,364.3,452.3,381.3,431.2,381.3z"/>
		<ellipse class="st43" cx="431.9" cy="344.1" rx="41.6" ry="41.3"/>
		<path class="st45" d="M427.9,293.6c-26.2,0-47.5,21.1-47.5,47.1c0,26,21.3,47.1,47.5,47.1c26.2,0,47.5-21.1,47.5-47.1
			C475.4,314.7,454.1,293.6,427.9,293.6z M427.9,378.7c-21.1,0-38.2-17-38.2-37.9s17.1-37.9,38.2-37.9s38.2,17,38.2,37.9
			S449,378.7,427.9,378.7z"/>
		<path class="st44" d="M437.6,345.8c-1,0-2,0.1-2.9,0.4c-0.7-0.5-1.2-1.5-1.2-3c0-0.7,0.2-1.2,0.3-1.7c0.9,0.2,1.8,0.4,2.8,0.4
			c6.4,0,11.5-5.1,11.5-11.4c0-6.3-5.2-11.4-11.5-11.4c-6.4,0-11.5,5.1-11.5,11.4c0,3.1,1.3,5.9,3.3,8c-0.2,1-0.5,1.9-1.2,2.4
			c-0.7,0.5-1.5,0.5-2.2,0.4c-1-5.3-5.7-9.4-11.3-9.4c-6.4,0-11.5,5.1-11.5,11.4c0,6.3,5.2,11.5,11.5,11.5c4.9,0,9-3,10.7-7.3
			c1.1-0.4,2.3-0.5,3.3,0c1,0.5,1.4,1.3,1.5,2.2c-1.9,2-3,4.7-3,7.7c0,6.3,5.2,11.4,11.5,11.4s11.5-5.1,11.5-11.4
			C449.2,351,444,345.8,437.6,345.8z"/>
		<path class="st45" d="M437.2,344.2c-1,0-2,0.1-2.9,0.4c-0.7-0.5-1.2-1.5-1.2-3c0-0.7,0.2-1.2,0.3-1.7c0.9,0.2,1.8,0.4,2.8,0.4
			c6.4,0,11.5-5.1,11.5-11.5c0-6.3-5.2-11.4-11.5-11.4c-6.4,0-11.5,5.1-11.5,11.4c0,3.1,1.3,5.9,3.3,8c-0.2,1-0.5,1.9-1.2,2.4
			c-0.7,0.5-1.5,0.5-2.2,0.4c-1-5.3-5.7-9.4-11.3-9.4c-6.4,0-11.5,5.1-11.5,11.5c0,6.3,5.2,11.4,11.5,11.4c4.9,0,9-3,10.7-7.3
			c1.1-0.4,2.3-0.5,3.3,0c1,0.5,1.4,1.3,1.5,2.2c-1.9,2-3,4.7-3,7.7c0,6.3,5.2,11.4,11.5,11.4c6.4,0,11.5-5.1,11.5-11.4
			C448.8,349.4,443.6,344.2,437.2,344.2z"/>
	</g>
</g>
<g id="DESIGNED_BY_FREEPIK" class="st0">
	<g class="st21">
		<g>
			<g>
				<path class="st24" d="M178,481.7v-0.2c-0.2,0.3-0.5,0.5-0.7,0.6c-0.2,0.2-0.5,0.3-0.7,0.4c-0.3,0.1-0.5,0.1-0.8,0.1
					c-0.4,0-0.8-0.1-1.1-0.3c-0.3-0.2-0.6-0.4-0.9-0.7c-0.3-0.3-0.4-0.7-0.6-1.1c-0.1-0.4-0.2-0.9-0.2-1.4c0-1.1,0.3-1.9,0.8-2.5
					c0.5-0.6,1.2-0.9,2-0.9c0.5,0,0.9,0.1,1.2,0.3c0.3,0.2,0.7,0.4,1,0.8v-2.5c0-0.3,0.1-0.6,0.2-0.8c0.1-0.2,0.3-0.3,0.6-0.3
					c0.3,0,0.5,0.1,0.6,0.2c0.1,0.2,0.2,0.4,0.2,0.7v7.5c0,0.3-0.1,0.6-0.2,0.7c-0.1,0.2-0.3,0.2-0.6,0.2c-0.2,0-0.4-0.1-0.6-0.3
					C178.1,482.3,178,482.1,178,481.7z M174.7,479.3c0,0.5,0.1,0.9,0.2,1.2c0.1,0.3,0.3,0.6,0.6,0.7c0.2,0.2,0.5,0.2,0.8,0.2
					c0.3,0,0.6-0.1,0.8-0.2c0.2-0.2,0.4-0.4,0.6-0.7c0.1-0.3,0.2-0.7,0.2-1.2c0-0.5-0.1-0.8-0.2-1.2c-0.1-0.3-0.3-0.6-0.6-0.7
					c-0.3-0.2-0.5-0.3-0.8-0.3c-0.3,0-0.6,0.1-0.8,0.3c-0.2,0.2-0.4,0.4-0.6,0.8C174.7,478.4,174.7,478.8,174.7,479.3z"/>
				<path class="st24" d="M185.5,479.7h-3.3c0,0.4,0.1,0.7,0.2,1c0.2,0.3,0.4,0.5,0.6,0.7c0.3,0.2,0.5,0.2,0.8,0.2
					c0.2,0,0.4,0,0.6-0.1c0.2,0,0.3-0.1,0.5-0.2c0.2-0.1,0.3-0.2,0.4-0.3c0.1-0.1,0.3-0.3,0.5-0.5c0.1-0.1,0.2-0.1,0.4-0.1
					c0.2,0,0.3,0,0.4,0.1c0.1,0.1,0.2,0.2,0.2,0.4c0,0.2-0.1,0.3-0.2,0.5c-0.1,0.2-0.3,0.4-0.5,0.6c-0.2,0.2-0.5,0.3-0.9,0.5
					c-0.4,0.1-0.8,0.2-1.3,0.2c-1.1,0-1.9-0.3-2.5-0.9c-0.6-0.6-0.9-1.5-0.9-2.5c0-0.5,0.1-1,0.2-1.4c0.2-0.4,0.4-0.8,0.7-1.1
					c0.3-0.3,0.6-0.5,1.1-0.7c0.4-0.2,0.9-0.2,1.4-0.2c0.7,0,1.2,0.1,1.7,0.4c0.5,0.3,0.8,0.6,1.1,1.1c0.2,0.4,0.4,0.9,0.4,1.4
					c0,0.4-0.1,0.7-0.4,0.8C186.3,479.6,185.9,479.7,185.5,479.7z M182.2,478.7h3.1c0-0.6-0.2-1-0.5-1.3c-0.3-0.3-0.6-0.4-1.1-0.4
					c-0.4,0-0.8,0.1-1,0.4C182.4,477.7,182.2,478.1,182.2,478.7z"/>
				<path class="st24" d="M193.2,480.5c0,0.5-0.1,0.9-0.3,1.2c-0.2,0.3-0.6,0.6-1,0.8c-0.4,0.2-1,0.3-1.6,0.3
					c-0.6,0-1.1-0.1-1.6-0.3c-0.4-0.2-0.8-0.4-1-0.7c-0.2-0.3-0.3-0.6-0.3-0.8c0-0.2,0.1-0.3,0.2-0.5c0.1-0.1,0.3-0.2,0.5-0.2
					c0.2,0,0.3,0,0.4,0.1c0.1,0.1,0.2,0.2,0.3,0.4c0.2,0.3,0.4,0.5,0.6,0.7c0.2,0.1,0.6,0.2,1,0.2c0.3,0,0.6-0.1,0.8-0.2
					c0.2-0.2,0.3-0.3,0.3-0.5c0-0.3-0.1-0.5-0.3-0.7c-0.2-0.1-0.6-0.3-1.1-0.4c-0.6-0.1-1.1-0.3-1.4-0.5c-0.4-0.2-0.7-0.4-0.9-0.6
					c-0.2-0.3-0.3-0.6-0.3-1c0-0.3,0.1-0.7,0.3-1c0.2-0.3,0.5-0.5,0.9-0.7c0.4-0.2,0.9-0.3,1.4-0.3c0.4,0,0.8,0,1.2,0.1
					c0.4,0.1,0.6,0.2,0.9,0.4c0.2,0.2,0.4,0.3,0.5,0.5c0.1,0.2,0.2,0.4,0.2,0.5c0,0.2-0.1,0.4-0.2,0.5c-0.1,0.1-0.3,0.2-0.6,0.2
					c-0.2,0-0.3,0-0.4-0.1c-0.1-0.1-0.3-0.2-0.4-0.4c-0.1-0.2-0.3-0.3-0.5-0.4c-0.2-0.1-0.4-0.1-0.7-0.1c-0.3,0-0.6,0.1-0.8,0.2
					c-0.2,0.1-0.3,0.3-0.3,0.5c0,0.2,0.1,0.3,0.2,0.4c0.2,0.1,0.4,0.2,0.6,0.3c0.3,0.1,0.6,0.2,1,0.3c0.5,0.1,1,0.3,1.3,0.5
					c0.3,0.2,0.6,0.4,0.8,0.6C193.1,479.9,193.2,480.2,193.2,480.5z"/>
				<path class="st24" d="M195,475c-0.2,0-0.4-0.1-0.6-0.2c-0.2-0.1-0.3-0.4-0.3-0.6c0-0.2,0.1-0.4,0.3-0.6c0.2-0.2,0.4-0.2,0.6-0.2
					c0.2,0,0.4,0.1,0.6,0.2c0.2,0.1,0.3,0.3,0.3,0.6c0,0.3-0.1,0.5-0.2,0.6C195.4,475,195.2,475,195,475z M195.8,476.8v4.9
					c0,0.3-0.1,0.6-0.2,0.8c-0.2,0.2-0.4,0.3-0.6,0.3c-0.3,0-0.5-0.1-0.6-0.3c-0.2-0.2-0.2-0.4-0.2-0.8v-4.9c0-0.3,0.1-0.6,0.2-0.8
					c0.2-0.2,0.4-0.3,0.6-0.3c0.2,0,0.5,0.1,0.6,0.3C195.7,476.2,195.8,476.5,195.8,476.8z"/>
				<path class="st24" d="M203.2,477.1v4.9c0,0.6-0.1,1-0.2,1.5c-0.1,0.4-0.3,0.7-0.6,1c-0.3,0.3-0.6,0.5-1,0.6
					c-0.4,0.1-1,0.2-1.6,0.2c-0.6,0-1.1-0.1-1.6-0.2c-0.5-0.2-0.8-0.4-1.1-0.6c-0.2-0.3-0.4-0.5-0.4-0.8c0-0.2,0.1-0.4,0.2-0.5
					c0.1-0.1,0.3-0.2,0.5-0.2c0.2,0,0.5,0.1,0.7,0.3c0.1,0.1,0.2,0.2,0.3,0.3c0.1,0.1,0.2,0.2,0.3,0.3c0.1,0.1,0.3,0.1,0.4,0.2
					c0.2,0,0.4,0.1,0.6,0.1c0.4,0,0.8-0.1,1-0.2c0.2-0.1,0.4-0.3,0.5-0.5c0.1-0.2,0.2-0.5,0.2-0.7c0-0.3,0-0.7,0-1.2
					c-0.3,0.4-0.6,0.6-0.9,0.8c-0.3,0.2-0.7,0.3-1.2,0.3c-0.6,0-1.1-0.1-1.5-0.4c-0.4-0.3-0.8-0.7-1-1.2c-0.2-0.5-0.3-1.1-0.3-1.8
					c0-0.5,0.1-1,0.2-1.4c0.1-0.4,0.3-0.8,0.6-1c0.3-0.3,0.6-0.5,0.9-0.6c0.3-0.1,0.7-0.2,1.1-0.2c0.5,0,0.9,0.1,1.2,0.3
					c0.4,0.2,0.7,0.5,1,0.9v-0.2c0-0.3,0.1-0.5,0.2-0.7c0.1-0.2,0.3-0.2,0.6-0.2c0.3,0,0.5,0.1,0.7,0.3
					C203.2,476.4,203.2,476.7,203.2,477.1z M198.3,479.2c0,0.7,0.2,1.2,0.5,1.6c0.3,0.4,0.7,0.5,1.2,0.5c0.3,0,0.5-0.1,0.8-0.2
					c0.3-0.2,0.5-0.4,0.6-0.7c0.2-0.3,0.2-0.7,0.2-1.1c0-0.7-0.2-1.2-0.5-1.6c-0.3-0.4-0.7-0.6-1.2-0.6c-0.5,0-0.9,0.2-1.2,0.6
					C198.5,478,198.3,478.5,198.3,479.2z"/>
				<path class="st24" d="M205.9,476.8v0.2c0.3-0.4,0.6-0.7,1-0.9c0.4-0.2,0.8-0.3,1.2-0.3c0.4,0,0.8,0.1,1.2,0.3
					c0.4,0.2,0.6,0.5,0.8,0.8c0.1,0.2,0.2,0.4,0.2,0.7c0,0.2,0.1,0.5,0.1,0.9v3.2c0,0.3-0.1,0.6-0.2,0.8c-0.2,0.2-0.4,0.3-0.6,0.3
					c-0.3,0-0.5-0.1-0.6-0.3c-0.2-0.2-0.2-0.4-0.2-0.8v-2.8c0-0.6-0.1-1-0.2-1.3c-0.2-0.3-0.5-0.4-0.9-0.4c-0.3,0-0.6,0.1-0.8,0.3
					c-0.2,0.2-0.4,0.4-0.5,0.7c-0.1,0.3-0.1,0.7-0.1,1.4v2.1c0,0.3-0.1,0.6-0.2,0.8c-0.2,0.2-0.4,0.3-0.6,0.3
					c-0.2,0-0.4-0.1-0.6-0.3c-0.2-0.2-0.2-0.4-0.2-0.8v-4.9c0-0.3,0.1-0.6,0.2-0.7c0.1-0.2,0.3-0.2,0.6-0.2c0.2,0,0.3,0,0.4,0.1
					c0.1,0.1,0.2,0.2,0.3,0.3C205.9,476.4,205.9,476.6,205.9,476.8z"/>
				<path class="st24" d="M216.2,479.7h-3.3c0,0.4,0.1,0.7,0.2,1c0.2,0.3,0.4,0.5,0.6,0.7c0.2,0.2,0.5,0.2,0.8,0.2
					c0.2,0,0.4,0,0.6-0.1c0.2,0,0.3-0.1,0.5-0.2c0.2-0.1,0.3-0.2,0.4-0.3c0.1-0.1,0.3-0.3,0.5-0.5c0.1-0.1,0.2-0.1,0.4-0.1
					c0.2,0,0.3,0,0.4,0.1c0.1,0.1,0.2,0.2,0.2,0.4c0,0.2-0.1,0.3-0.2,0.5c-0.1,0.2-0.3,0.4-0.5,0.6c-0.2,0.2-0.5,0.3-0.9,0.5
					c-0.4,0.1-0.8,0.2-1.3,0.2c-1.1,0-1.9-0.3-2.5-0.9c-0.6-0.6-0.9-1.5-0.9-2.5c0-0.5,0.1-1,0.2-1.4c0.1-0.4,0.4-0.8,0.7-1.1
					c0.3-0.3,0.6-0.5,1.1-0.7c0.4-0.2,0.9-0.2,1.4-0.2c0.7,0,1.2,0.1,1.7,0.4c0.5,0.3,0.8,0.6,1.1,1.1c0.2,0.4,0.4,0.9,0.4,1.4
					c0,0.4-0.1,0.7-0.4,0.8C217,479.6,216.7,479.7,216.2,479.7z M212.9,478.7h3.1c0-0.6-0.2-1-0.5-1.3c-0.3-0.3-0.6-0.4-1.1-0.4
					c-0.4,0-0.8,0.1-1,0.4C213.1,477.7,213,478.1,212.9,478.7z"/>
				<path class="st24" d="M223.2,481.7v-0.2c-0.2,0.3-0.5,0.5-0.7,0.6c-0.2,0.2-0.5,0.3-0.7,0.4c-0.3,0.1-0.5,0.1-0.8,0.1
					c-0.4,0-0.8-0.1-1.1-0.3c-0.3-0.2-0.6-0.4-0.9-0.7c-0.3-0.3-0.4-0.7-0.6-1.1c-0.1-0.4-0.2-0.9-0.2-1.4c0-1.1,0.3-1.9,0.8-2.5
					c0.5-0.6,1.2-0.9,2-0.9c0.5,0,0.9,0.1,1.2,0.3c0.3,0.2,0.7,0.4,1,0.8v-2.5c0-0.3,0.1-0.6,0.2-0.8c0.1-0.2,0.3-0.3,0.6-0.3
					s0.5,0.1,0.6,0.2c0.1,0.2,0.2,0.4,0.2,0.7v7.5c0,0.3-0.1,0.6-0.2,0.7c-0.1,0.2-0.3,0.2-0.6,0.2c-0.2,0-0.4-0.1-0.6-0.3
					C223.2,482.3,223.2,482.1,223.2,481.7z M219.8,479.3c0,0.5,0.1,0.9,0.2,1.2c0.1,0.3,0.3,0.6,0.6,0.7c0.2,0.2,0.5,0.2,0.8,0.2
					c0.3,0,0.6-0.1,0.8-0.2c0.2-0.2,0.4-0.4,0.6-0.7c0.1-0.3,0.2-0.7,0.2-1.2c0-0.5-0.1-0.8-0.2-1.2c-0.1-0.3-0.3-0.6-0.6-0.7
					c-0.3-0.2-0.5-0.3-0.8-0.3c-0.3,0-0.6,0.1-0.8,0.3c-0.2,0.2-0.4,0.4-0.6,0.8C219.9,478.4,219.8,478.8,219.8,479.3z"/>
				<path class="st24" d="M230.1,474.3v2.6c0.3-0.3,0.6-0.6,1-0.8c0.3-0.2,0.7-0.3,1.2-0.3c0.6,0,1.1,0.1,1.5,0.4
					c0.4,0.3,0.8,0.7,1,1.2c0.2,0.5,0.4,1.1,0.4,1.8c0,0.5-0.1,1-0.2,1.4c-0.1,0.4-0.3,0.8-0.6,1.1c-0.2,0.3-0.5,0.6-0.9,0.7
					c-0.4,0.2-0.7,0.3-1.2,0.3c-0.3,0-0.5,0-0.7-0.1c-0.2-0.1-0.4-0.1-0.6-0.2c-0.2-0.1-0.3-0.2-0.4-0.3c-0.1-0.1-0.3-0.3-0.5-0.5
					v0.2c0,0.3-0.1,0.6-0.2,0.7c-0.2,0.2-0.3,0.2-0.6,0.2c-0.2,0-0.4-0.1-0.6-0.2c-0.1-0.2-0.2-0.4-0.2-0.7v-7.4
					c0-0.3,0.1-0.6,0.2-0.8c0.1-0.2,0.3-0.3,0.6-0.3c0.3,0,0.5,0.1,0.6,0.3C230,473.7,230.1,474,230.1,474.3z M230.2,479.3
					c0,0.7,0.2,1.2,0.5,1.6c0.3,0.4,0.7,0.5,1.2,0.5c0.4,0,0.8-0.2,1.1-0.6c0.3-0.4,0.5-0.9,0.5-1.6c0-0.4-0.1-0.8-0.2-1.2
					c-0.1-0.3-0.3-0.6-0.5-0.7c-0.2-0.2-0.5-0.3-0.8-0.3c-0.3,0-0.6,0.1-0.9,0.3c-0.3,0.2-0.5,0.4-0.6,0.8
					C230.2,478.4,230.2,478.8,230.2,479.3z"/>
				<path class="st24" d="M237.3,482.9l0.2-0.4l-2.1-5.3c-0.1-0.3-0.2-0.5-0.2-0.7c0-0.1,0-0.3,0.1-0.4c0.1-0.1,0.2-0.2,0.3-0.3
					c0.1-0.1,0.3-0.1,0.4-0.1c0.2,0,0.4,0.1,0.6,0.2c0.1,0.2,0.2,0.4,0.3,0.7l1.4,4.2l1.4-3.9c0.1-0.3,0.2-0.6,0.3-0.7
					c0.1-0.2,0.2-0.3,0.3-0.4c0.1-0.1,0.2-0.1,0.4-0.1c0.1,0,0.3,0,0.4,0.1c0.1,0.1,0.2,0.2,0.3,0.3c0.1,0.1,0.1,0.2,0.1,0.4
					c0,0.1,0,0.2-0.1,0.3c0,0.1-0.1,0.3-0.1,0.4l-2.2,5.8c-0.2,0.5-0.4,0.9-0.6,1.2c-0.2,0.3-0.4,0.5-0.7,0.7
					c-0.3,0.2-0.7,0.2-1.2,0.2c-0.5,0-0.9-0.1-1.1-0.2c-0.2-0.1-0.4-0.3-0.4-0.6c0-0.2,0.1-0.3,0.2-0.5c0.1-0.1,0.3-0.2,0.5-0.2
					c0.1,0,0.2,0,0.3,0c0.1,0,0.2,0,0.3,0c0.2,0,0.3,0,0.5-0.1c0.1-0.1,0.2-0.2,0.3-0.3C237.1,483.4,237.2,483.2,237.3,482.9z"/>
			</g>
			<g>
				<path class="st24" d="M261.9,476h0.4v-0.5c0-0.5,0.1-1,0.2-1.3c0.1-0.3,0.4-0.5,0.7-0.7c0.3-0.1,0.8-0.2,1.3-0.2
					c1,0,1.5,0.2,1.5,0.7c0,0.2-0.1,0.3-0.2,0.4c-0.1,0.1-0.2,0.2-0.4,0.2c-0.1,0-0.2,0-0.3,0c-0.2,0-0.3,0-0.4,0
					c-0.3,0-0.5,0.1-0.6,0.3c-0.1,0.2-0.1,0.4-0.1,0.8v0.4h0.4c0.6,0,1,0.2,1,0.6c0,0.3-0.1,0.5-0.3,0.5c-0.2,0.1-0.4,0.1-0.7,0.1
					H264v4.5c0,0.3-0.1,0.6-0.2,0.8c-0.2,0.2-0.4,0.3-0.6,0.3c-0.2,0-0.4-0.1-0.6-0.3c-0.2-0.2-0.2-0.4-0.2-0.8v-4.5h-0.5
					c-0.3,0-0.4-0.1-0.6-0.2c-0.1-0.1-0.2-0.3-0.2-0.4C261,476.2,261.3,476,261.9,476"/>
				<path class="st24" d="M267.4,480.3v1.4c0,0.3-0.1,0.6-0.2,0.8c-0.2,0.2-0.4,0.3-0.6,0.3c-0.3,0-0.5-0.1-0.6-0.3
					c-0.2-0.2-0.2-0.4-0.2-0.8V477c0-0.8,0.3-1.1,0.8-1.1c0.3,0,0.5,0.1,0.6,0.3c0.1,0.2,0.2,0.4,0.2,0.8c0.2-0.4,0.4-0.6,0.6-0.8
					c0.2-0.2,0.5-0.3,0.9-0.3c0.4,0,0.7,0.1,1,0.3c0.3,0.2,0.5,0.4,0.5,0.7c0,0.2-0.1,0.4-0.2,0.5c-0.1,0.1-0.3,0.2-0.5,0.2
					c-0.1,0-0.2,0-0.5-0.1c-0.2-0.1-0.4-0.1-0.6-0.1c-0.2,0-0.5,0.1-0.6,0.2c-0.2,0.1-0.3,0.3-0.4,0.6c-0.1,0.3-0.1,0.6-0.2,0.9
					C267.5,479.3,267.4,479.8,267.4,480.3"/>
				<path class="st24" d="M275.2,479.7h-3.3c0,0.4,0.1,0.7,0.2,1c0.2,0.3,0.4,0.5,0.6,0.7c0.3,0.2,0.5,0.2,0.8,0.2
					c0.2,0,0.4,0,0.6-0.1c0.2,0,0.3-0.1,0.5-0.2c0.2-0.1,0.3-0.2,0.4-0.3c0.1-0.1,0.3-0.3,0.5-0.5c0.1-0.1,0.2-0.1,0.4-0.1
					c0.2,0,0.3,0,0.4,0.1c0.1,0.1,0.2,0.2,0.2,0.4c0,0.2-0.1,0.3-0.2,0.5c-0.1,0.2-0.3,0.4-0.5,0.6c-0.2,0.2-0.5,0.3-0.9,0.5
					c-0.4,0.1-0.8,0.2-1.3,0.2c-1.1,0-1.9-0.3-2.5-0.9c-0.6-0.6-0.9-1.5-0.9-2.5c0-0.5,0.1-1,0.2-1.4c0.1-0.4,0.4-0.8,0.7-1.1
					c0.3-0.3,0.6-0.5,1.1-0.7c0.4-0.2,0.9-0.2,1.4-0.2c0.7,0,1.2,0.1,1.7,0.4c0.5,0.3,0.8,0.6,1.1,1.1c0.2,0.4,0.4,0.9,0.4,1.4
					c0,0.4-0.1,0.7-0.4,0.8C276,479.6,275.7,479.7,275.2,479.7 M271.9,478.7h3.1c0-0.6-0.2-1-0.5-1.3c-0.3-0.3-0.6-0.4-1.1-0.4
					c-0.4,0-0.8,0.1-1,0.4C272.1,477.7,272,478.1,271.9,478.7"/>
				<path class="st24" d="M282.3,479.7H279c0,0.4,0.1,0.7,0.2,1c0.2,0.3,0.4,0.5,0.6,0.7c0.3,0.2,0.5,0.2,0.8,0.2
					c0.2,0,0.4,0,0.6-0.1c0.2,0,0.3-0.1,0.5-0.2c0.2-0.1,0.3-0.2,0.4-0.3c0.1-0.1,0.3-0.3,0.5-0.5c0.1-0.1,0.2-0.1,0.4-0.1
					c0.2,0,0.3,0,0.4,0.1c0.1,0.1,0.2,0.2,0.2,0.4c0,0.2-0.1,0.3-0.2,0.5c-0.1,0.2-0.3,0.4-0.5,0.6c-0.2,0.2-0.5,0.3-0.9,0.5
					c-0.4,0.1-0.8,0.2-1.3,0.2c-1.1,0-1.9-0.3-2.5-0.9c-0.6-0.6-0.9-1.5-0.9-2.5c0-0.5,0.1-1,0.2-1.4c0.1-0.4,0.4-0.8,0.7-1.1
					c0.3-0.3,0.6-0.5,1.1-0.7c0.4-0.2,0.9-0.2,1.4-0.2c0.7,0,1.2,0.1,1.7,0.4c0.5,0.3,0.8,0.6,1.1,1.1c0.2,0.4,0.4,0.9,0.4,1.4
					c0,0.4-0.1,0.7-0.4,0.8C283.1,479.6,282.7,479.7,282.3,479.7 M279,478.7h3.1c0-0.6-0.2-1-0.5-1.3c-0.3-0.3-0.6-0.4-1.1-0.4
					c-0.4,0-0.8,0.1-1,0.4C279.2,477.7,279,478.1,279,478.7"/>
				<path class="st24" d="M286,476.8v0.2c0.3-0.4,0.7-0.7,1-0.9c0.3-0.2,0.7-0.3,1.2-0.3c0.5,0,1,0.1,1.4,0.4c0.4,0.3,0.8,0.7,1,1.2
					c0.3,0.5,0.4,1.1,0.4,1.8c0,0.5-0.1,1-0.2,1.4c-0.1,0.4-0.4,0.8-0.6,1.1c-0.3,0.3-0.6,0.5-0.9,0.7c-0.4,0.2-0.7,0.2-1.1,0.2
					c-0.5,0-0.9-0.1-1.2-0.3c-0.3-0.2-0.6-0.5-0.9-0.9v2.5c0,0.7-0.3,1.1-0.8,1.1c-0.3,0-0.5-0.1-0.6-0.3c-0.1-0.2-0.2-0.5-0.2-0.8
					v-7.3c0-0.3,0.1-0.6,0.2-0.7c0.1-0.2,0.3-0.2,0.6-0.2c0.2,0,0.4,0.1,0.6,0.2C285.9,476.2,286,476.5,286,476.8 M289.3,479.2
					c0-0.4-0.1-0.8-0.2-1.2c-0.1-0.3-0.3-0.6-0.6-0.7c-0.2-0.2-0.5-0.3-0.8-0.3c-0.5,0-0.9,0.2-1.2,0.6c-0.3,0.4-0.5,0.9-0.5,1.6
					c0,0.7,0.2,1.2,0.5,1.6c0.3,0.4,0.7,0.6,1.2,0.6c0.3,0,0.5-0.1,0.8-0.2c0.2-0.2,0.4-0.4,0.6-0.7
					C289.3,480.1,289.3,479.7,289.3,479.2"/>
				<path class="st24" d="M292.8,475c-0.2,0-0.4-0.1-0.6-0.2c-0.2-0.1-0.3-0.3-0.3-0.6c0-0.2,0.1-0.4,0.3-0.6
					c0.2-0.2,0.4-0.2,0.6-0.2c0.2,0,0.4,0.1,0.6,0.2c0.2,0.1,0.3,0.3,0.3,0.6c0,0.3-0.1,0.5-0.2,0.6C293.2,474.9,293,475,292.8,475
					 M293.6,476.8v4.9c0,0.3-0.1,0.6-0.2,0.8c-0.2,0.2-0.4,0.3-0.6,0.3c-0.3,0-0.4-0.1-0.6-0.3c-0.2-0.2-0.2-0.4-0.2-0.8v-4.9
					c0-0.3,0.1-0.6,0.2-0.8c0.2-0.2,0.4-0.3,0.6-0.3c0.2,0,0.5,0.1,0.6,0.3C293.5,476.2,293.6,476.5,293.6,476.8"/>
				<path class="st24" d="M299.1,481.9l-1.5-2.5l-0.9,0.9v1.4c0,0.3-0.1,0.6-0.3,0.8c-0.2,0.2-0.4,0.3-0.6,0.3
					c-0.3,0-0.5-0.1-0.6-0.3c-0.1-0.2-0.2-0.4-0.2-0.8v-7.2c0-0.4,0.1-0.7,0.2-0.9c0.1-0.2,0.4-0.3,0.6-0.3c0.3,0,0.5,0.1,0.6,0.3
					c0.2,0.2,0.2,0.4,0.2,0.8v4.1l1.9-2c0.2-0.2,0.4-0.4,0.5-0.5c0.1-0.1,0.3-0.1,0.5-0.1c0.2,0,0.4,0.1,0.5,0.2
					c0.1,0.1,0.2,0.3,0.2,0.5c0,0.2-0.2,0.6-0.7,1l-0.9,0.8l1.7,2.7c0.1,0.2,0.2,0.4,0.3,0.5c0.1,0.1,0.1,0.2,0.1,0.3
					c0,0.3-0.1,0.5-0.2,0.6c-0.1,0.2-0.3,0.2-0.6,0.2c-0.2,0-0.4-0.1-0.5-0.2C299.4,482.4,299.3,482.2,299.1,481.9"/>
				<path class="st24" d="M302.8,482.7c-0.3,0-0.5-0.1-0.7-0.3c-0.2-0.2-0.3-0.4-0.3-0.7c0-0.3,0.1-0.5,0.3-0.7
					c0.2-0.2,0.4-0.3,0.7-0.3c0.3,0,0.5,0.1,0.7,0.3c0.2,0.2,0.3,0.4,0.3,0.7c0,0.3-0.1,0.5-0.3,0.7
					C303.2,482.6,303,482.7,302.8,482.7"/>
				<path class="st24" d="M311.2,480.6c0,0.2-0.1,0.4-0.2,0.7c-0.1,0.2-0.3,0.5-0.6,0.7c-0.3,0.2-0.6,0.4-1,0.5
					c-0.4,0.1-0.8,0.2-1.3,0.2c-1.1,0-1.9-0.3-2.5-0.9c-0.6-0.6-0.9-1.4-0.9-2.5c0-0.7,0.1-1.3,0.4-1.8c0.3-0.5,0.7-0.9,1.2-1.2
					c0.5-0.3,1.1-0.4,1.8-0.4c0.4,0,0.8,0.1,1.2,0.2c0.4,0.1,0.7,0.3,0.9,0.5c0.3,0.2,0.4,0.4,0.6,0.6c0.1,0.2,0.2,0.4,0.2,0.6
					c0,0.2-0.1,0.4-0.2,0.5c-0.2,0.1-0.3,0.2-0.5,0.2c-0.1,0-0.3,0-0.4-0.1c-0.1-0.1-0.2-0.2-0.3-0.4c-0.2-0.3-0.4-0.6-0.7-0.7
					c-0.2-0.2-0.5-0.2-0.9-0.2c-0.5,0-0.9,0.2-1.2,0.6c-0.3,0.4-0.5,0.9-0.5,1.6c0,0.3,0,0.6,0.1,0.9c0.1,0.3,0.2,0.5,0.3,0.7
					c0.2,0.2,0.3,0.3,0.5,0.4c0.2,0.1,0.4,0.1,0.7,0.1c0.3,0,0.6-0.1,0.9-0.2c0.2-0.2,0.5-0.4,0.6-0.7c0.1-0.2,0.2-0.3,0.3-0.4
					c0.1-0.1,0.3-0.2,0.4-0.2c0.2,0,0.4,0.1,0.5,0.2C311.1,480.3,311.2,480.4,311.2,480.6"/>
				<path class="st24" d="M318.5,479.3c0,0.5-0.1,1-0.2,1.4c-0.2,0.4-0.4,0.8-0.7,1.1c-0.3,0.3-0.7,0.5-1.1,0.7
					c-0.4,0.2-0.9,0.2-1.4,0.2c-0.5,0-1-0.1-1.4-0.3c-0.4-0.2-0.8-0.4-1.1-0.7c-0.3-0.3-0.5-0.7-0.7-1.1c-0.1-0.4-0.2-0.9-0.2-1.4
					c0-0.5,0.1-1,0.2-1.4c0.2-0.4,0.4-0.8,0.7-1.1c0.3-0.3,0.6-0.5,1.1-0.7c0.4-0.2,0.9-0.2,1.4-0.2c0.5,0,1,0.1,1.4,0.3
					c0.4,0.2,0.8,0.4,1.1,0.7c0.3,0.3,0.5,0.7,0.7,1.1C318.4,478.3,318.5,478.8,318.5,479.3 M316.8,479.3c0-0.7-0.2-1.2-0.5-1.6
					c-0.3-0.4-0.7-0.6-1.2-0.6c-0.3,0-0.6,0.1-0.9,0.3c-0.3,0.2-0.4,0.4-0.6,0.8c-0.1,0.3-0.2,0.7-0.2,1.2c0,0.4,0.1,0.8,0.2,1.2
					c0.1,0.3,0.3,0.6,0.6,0.8c0.3,0.2,0.5,0.3,0.9,0.3c0.5,0,0.9-0.2,1.2-0.6C316.7,480.5,316.8,479.9,316.8,479.3"/>
				<path class="st24" d="M325,479.4v2.3c0,0.4-0.1,0.6-0.2,0.8c-0.2,0.2-0.4,0.3-0.6,0.3c-0.3,0-0.5-0.1-0.6-0.3
					c-0.2-0.2-0.2-0.4-0.2-0.8v-2.7c0-0.4,0-0.8,0-1c0-0.2-0.1-0.4-0.2-0.6c-0.1-0.2-0.3-0.2-0.6-0.2c-0.6,0-0.9,0.2-1.1,0.6
					c-0.2,0.4-0.3,0.9-0.3,1.6v2.3c0,0.4-0.1,0.6-0.2,0.8c-0.2,0.2-0.4,0.3-0.6,0.3c-0.3,0-0.5-0.1-0.6-0.3
					c-0.2-0.2-0.2-0.4-0.2-0.8v-4.9c0-0.3,0.1-0.6,0.2-0.7c0.1-0.2,0.3-0.3,0.6-0.3c0.2,0,0.4,0.1,0.6,0.2c0.2,0.2,0.2,0.4,0.2,0.6
					v0.2c0.3-0.4,0.6-0.6,0.9-0.8c0.3-0.2,0.7-0.3,1.1-0.3c0.4,0,0.8,0.1,1.1,0.3c0.3,0.2,0.6,0.4,0.8,0.8c0.3-0.3,0.6-0.6,0.9-0.8
					c0.3-0.2,0.7-0.3,1.1-0.3c0.5,0,0.9,0.1,1.2,0.3c0.3,0.2,0.6,0.4,0.8,0.8c0.1,0.3,0.2,0.8,0.2,1.5v3.3c0,0.4-0.1,0.6-0.2,0.8
					c-0.2,0.2-0.4,0.3-0.6,0.3c-0.3,0-0.5-0.1-0.6-0.3c-0.2-0.2-0.2-0.4-0.2-0.8v-2.9c0-0.4,0-0.7,0-0.9c0-0.2-0.1-0.4-0.2-0.6
					c-0.1-0.2-0.3-0.2-0.6-0.2c-0.2,0-0.4,0.1-0.6,0.2c-0.2,0.1-0.4,0.3-0.5,0.5C325.1,478.2,325,478.7,325,479.4"/>
			</g>
			<g>
				<path class="st24" d="M246,478.9C246,478.9,246,478.8,246,478.9C246,478.8,246,478.9,246,478.9z"/>
				<path class="st24" d="M246.1,479.4C246.1,479.4,246.1,479.4,246.1,479.4c0-0.2-0.1-0.3-0.1-0.5
					C246,479.1,246.1,479.2,246.1,479.4z"/>
				<path class="st24" d="M246.7,481C246.7,481,246.7,481,246.7,481C246.7,481,246.7,481,246.7,481z"/>
				<path class="st24" d="M246.6,480.9C246.6,480.8,246.6,480.8,246.6,480.9C246.6,480.8,246.6,480.8,246.6,480.9z"/>
				<path class="st24" d="M246.3,480c0.1,0.3,0.2,0.5,0.3,0.8C246.4,480.5,246.3,480.3,246.3,480C246.3,480,246.3,480,246.3,480z"/>
				<path class="st24" d="M252.6,468.7c0.3,0,0.6,0,0.8,0.1l0.1-0.5c0,0-0.8-0.2-1.8-0.2l-0.1-0.3c0.3-0.1,0.5-0.3,0.5-0.7
					c0-0.4-0.3-0.7-0.7-0.7c-0.4,0-0.7,0.3-0.7,0.7c0,0.3,0.2,0.6,0.5,0.7l0.1,0.3c-1.1,0.1-1.9,0.6-1.9,0.6l0.2,0.5
					c0.6-0.2,1.2-0.3,1.7-0.4C251.9,468.7,252.3,468.7,252.6,468.7z"/>
				<path class="st24" d="M246.7,474.9L246.7,474.9C246.7,474.8,246.7,474.8,246.7,474.9l-0.1-0.2l-0.3-0.2c0,0-0.5,0.5-0.9,1.3
					c0,0,0-0.1-0.1-0.1c-0.1-0.1-0.3-0.2-0.5-0.2c0,0,0,0,0,0c-0.1,0-0.2,0-0.3-0.1c0.1-0.1,0.1-0.2,0.1-0.3c0-0.2-0.2-0.4-0.4-0.4
					c-0.2,0-0.4,0.2-0.4,0.4c0,0.2,0.2,0.4,0.4,0.4c0,0,0.1,0,0.1,0c0.1,0.1,0.3,0.2,0.5,0.2c0.1,0,0.2,0,0.3,0.1
					c0.1,0.1,0.1,0.2,0.1,0.3c0,0,0,0,0,0c-0.3,0.8-0.2,1.7-0.2,1.7l0.7,0c0-0.4,0.1-1,0.2-1.5C246.2,475.5,246.6,474.9,246.7,474.9
					z"/>
				<path class="st24" d="M258.6,472.9c-0.2,0-0.4,0.2-0.4,0.4c0,0,0,0.1,0,0.1c-0.1,0.1-0.2,0.3-0.2,0.5c0,0.1,0,0.2-0.1,0.3
					c-0.1,0.1-0.1,0.1-0.2,0.1c-0.5-0.7-1.1-1.2-1.1-1.2l-0.5,0.5c0.4,0.3,0.8,0.8,1.1,1.3c0.3,0.4,0.5,0.8,0.7,1.3l0.7-0.3
					c0,0-0.3-0.8-0.7-1.4c0.1,0,0.2-0.1,0.2-0.1c0.1-0.1,0.2-0.3,0.2-0.5c0-0.1,0-0.2,0.1-0.3c0.1,0.1,0.2,0.1,0.3,0.1
					c0.2,0,0.4-0.2,0.4-0.4S258.8,472.9,258.6,472.9z"/>
				<path class="st24" d="M256.9,479c-0.9,0.4-2.4,1-4.4,1.3c-0.8,0.1-1.5,0.1-2.2,0.1c-0.9,0-1.7-0.1-2.3-0.1
					c-0.7-0.1-1.3-0.2-1.6-0.3c0.1,0.3,0.2,0.5,0.3,0.8c0,0,0,0,0,0c0,0,0,0.1,0,0.1c0,0,0,0.1,0,0.1c0,0,0,0,0,0
					c0.2,0.4,0.4,0.7,0.7,1c0.9,1,1.9,1.2,1.9,1.2l0,0l0,0c0,0,0.9,0.3,2.2,0.3c1.3,0,2.5-0.3,3.7-0.8c0.9-0.5,1.7-1.1,2.1-1.7
					c0.3-0.5,0.6-1,0.7-1.5c0.1-0.3,0.1-0.7,0.1-1.2C257.8,478.4,257.4,478.7,256.9,479z"/>
				<path class="st24" d="M246.9,475.1c0,0-0.4,0.6-0.7,1.5c-0.2,0.7-0.2,1.6-0.2,1.6v0c0,0.2,0,0.4,0,0.7c0,0,0,0,0,0
					c0,0,0,0.1,0,0.1c0,0.2,0,0.3,0.1,0.5c0.5,0.1,3.2,0.8,6.2,0.3c1.9-0.3,3.4-0.8,4.3-1.3c0.7-0.4,1.2-0.7,1.4-0.8
					c-0.2-0.7-0.7-1.7-1.1-2.4c-1.3-1.9-2.7-2.4-3.5-2.5c-0.3,0-0.5-0.1-0.8-0.1c-0.3,0-0.7,0-1.1,0.1c-0.5,0.1-1,0.2-1.7,0.4
					c-0.9,0.3-1.7,0.8-2.3,1.3l0,0C247.4,474.6,247.2,474.8,246.9,475.1z M255,474.7c0.6,0,1.1,0.5,1.1,1.1s-0.5,1.1-1.1,1.1
					c-0.6,0-1.1-0.5-1.1-1.1S254.3,474.7,255,474.7z M249.6,474.6c1,0,1.8,0.8,1.8,1.8c0,1-0.8,1.8-1.8,1.8c-1,0-1.8-0.8-1.8-1.8
					C247.7,475.4,248.6,474.6,249.6,474.6z"/>
			</g>
		</g>
	</g>
</g>
</svg>
