<?xml version="1.0" encoding="utf-8"?>
<!-- Generator: Adobe Illustrator 21.1.0, SVG Export Plug-In . SVG Version: 6.00 Build 0)  -->
<svg version="1.1" xmlns="http://www.w3.org/2000/svg" xmlns:xlink="http://www.w3.org/1999/xlink" x="0px" y="0px"
	 viewBox="0 0 500 500" style="enable-background:new 0 0 500 500;" xml:space="preserve">
<style type="text/css">
	.st0{display:none;}
	.st1{display:inline;fill:#FFFFFF;}
	.st2{display:none;fill:url(#SVGID_1_);}
	.st3{fill:url(#SVGID_2_);}
	.st4{display:inline;fill:#4773FF;}
	.st5{font-family:'Montserrat-Black';}
	.st6{font-size:22.8034px;}
	.st7{letter-spacing:4;}
	.st8{display:inline;}
	.st9{fill:#FFFFFF;}
</style>
<g id="BACKGROUND" class="st0">
	<rect x="0" class="st1" width="500" height="500"/>
</g>
<g id="OBJECTS">
	<g>
		<linearGradient id="SVGID_1_" gradientUnits="userSpaceOnUse" x1="312.4049" y1="294.4076" x2="-31.8262" y2="44.3091">
			<stop  offset="0" style="stop-color:#A3FFAF"/>
			<stop  offset="1.036847e-02" style="stop-color:#A1FEB0"/>
			<stop  offset="0.3536" style="stop-color:#64EBCD"/>
			<stop  offset="0.6447" style="stop-color:#37DDE1"/>
			<stop  offset="0.8692" style="stop-color:#1BD4EE"/>
			<stop  offset="1" style="stop-color:#11D1F3"/>
		</linearGradient>
		<path class="st2" d="M0,497.6c0,0,7-73.9,73-105.1c72.5-34.3,122.8,9,171.7-58.1c36.8-50.4-3.3-117.1,32.5-161.2
			c50-61.5,103-24.6,156.7-62.1c66-46,66-110.7,66-110.7H0V497.6z"/>
		<linearGradient id="SVGID_2_" gradientUnits="userSpaceOnUse" x1="519.9294" y1="476.2491" x2="207.4616" y2="214.0576">
			<stop  offset="0" style="stop-color:#4CCAFE"/>
			<stop  offset="1" style="stop-color:#4730FF"/>
		</linearGradient>
		<path class="st3" d="M500,0.5v-1 M434,110.2c-53.7,37.5-106.7,0.6-156.7,62.1c-35.8,44,4.3,110.7-32.5,161.2
			c-48.9,67.1-99.2,23.7-171.7,58.1C7,422.8,0,496.6,0,496.6v3.4h500V0.5C500,0.5,500,64.2,434,110.2z"/>
	</g>
	<g class="st0">
		<path class="st1" d="M354.4,204.7H148.9c-11,0-20,9-20,20v25c0,11,9,20,20,20h205.5c11,0,20-9,20-20v-25
			C374.4,213.7,365.4,204.7,354.4,204.7z"/>
		<text transform="matrix(1 0 0 1 158.2278 246.4456)" class="st4 st5 st6 st7">follow us</text>
	</g>
</g>
<g id="DESIGNED_BY_FREEPIK" class="st0">
	<g class="st8">
		<g id="XMLID_1_">
			<g id="XMLID_20_">
				<path id="XMLID_28_" class="st9" d="M258.5,453.1c-0.4,0.4-0.8,0.9-1.1,1.5l-0.5-0.2c-0.1-0.3-0.3-0.5-0.7-0.5
					c-0.3,0-0.6,0.3-0.5,0.7c0,0.3,0.3,0.6,0.7,0.5c0.1,0,0.1,0,0.2-0.1l0.5,0.2c-0.3,0.6-0.4,1.1-0.5,1.7l0.7,0.1
					c0.2-1.3,0.8-2.5,1.8-3.5L258.5,453.1z"/>
				<path id="XMLID_27_" class="st9" d="M264,450.8c-0.2,0-0.3,0-0.5,0l-0.1-0.6c0.2-0.1,0.3-0.4,0.3-0.6c0-0.4-0.4-0.7-0.8-0.6
					c-0.4,0-0.7,0.4-0.6,0.8c0,0.3,0.2,0.5,0.4,0.6l0.1,0.6c-0.7,0.1-1.4,0.3-2.1,0.6l0.3,0.7c0.9-0.4,1.9-0.7,3-0.7
					c0.5,0,1,0.1,1.5,0.2l0.2-0.7C265.1,450.9,264.6,450.8,264,450.8z"/>
				<path id="XMLID_26_" class="st9" d="M270.6,453.4c0.3,0,0.6-0.3,0.5-0.7c0-0.3-0.3-0.6-0.7-0.5c-0.3,0-0.5,0.3-0.5,0.6l-0.4,0.4
					c-0.4-0.4-0.9-0.8-1.4-1.1l-0.4,0.6c1.1,0.7,2,1.7,2.6,2.9l0.7-0.3c-0.3-0.6-0.6-1.1-0.9-1.5l0.4-0.4
					C270.5,453.4,270.5,453.4,270.6,453.4z"/>
				<path id="XMLID_25_" class="st9" d="M263.5,461c-0.4,0-0.8,0-1.2,0c-0.9,0-1.7-0.1-2.5-0.2c-0.4-0.1-0.8-0.2-1.3-0.3
					c1,1.9,3.1,3.1,5.4,3.1c2.9,0,5.3-1.9,5.9-4.5c-0.7,0.4-1.5,0.8-2.5,1.1C266.3,460.7,264.9,460.9,263.5,461z"/>
				<path id="XMLID_21_" class="st9" d="M264,452.3c-3.4,0-6.1,2.7-6.1,5.9c0,0.4,0,0.8,0.1,1.3c0.7,0.5,2.7,0.9,5.3,0.7
					c2.9-0.2,5.3-1,6.7-2.2c0-0.2,0-0.4,0-0.6C269.7,454.6,267.1,452.3,264,452.3z M261.8,458.9c-1,0-1.8-0.8-1.8-1.8
					c0-1,0.8-1.8,1.8-1.8c1,0,1.8,0.8,1.8,1.8C263.7,458,262.9,458.9,261.8,458.9z M266.6,457.9c-0.8,0-1.4-0.6-1.4-1.4
					s0.6-1.4,1.4-1.4c0.8,0,1.4,0.6,1.4,1.4S267.3,457.9,266.6,457.9z"/>
			</g>
			<path id="XMLID_18_" class="st9" d="M280,454.2c-0.3-0.1-0.8-0.3-1.4-0.2c-0.6,0.1-0.8,0.3-0.8,1v0.9h2.2v1.7h-2.2v5.5h-1.9v-5.5
				h-1.3v-1.7h1.3V455c0-1.7,0.9-2.8,2.6-2.8c0.6,0,1.2,0.1,1.6,0.3L280,454.2z"/>
			<path id="XMLID_16_" class="st9" d="M284.7,457.5c-0.2,0-0.4,0-0.5,0c-0.9,0-1.5,0.5-1.5,1.6v3.9h-1.9v-7.2h1.9v0.8
				c0.5-0.7,1.1-1,2-1c0.4,0,0.8,0.1,1.1,0.3L284.7,457.5z"/>
			<path id="XMLID_13_" class="st9" d="M292.4,459.4c0,0.2,0,0.5,0,0.7h-5.1c0.2,1,0.9,1.5,1.8,1.5c0.6,0,1.3-0.3,1.8-0.7l1.1,1.2
				c-0.8,0.7-1.9,1.1-3.1,1.1c-2.2,0-3.7-1.5-3.7-3.8c0-2.3,1.5-3.8,3.6-3.8C291,455.6,292.4,457.2,292.4,459.4z M287.3,458.8h3.2
				c-0.2-0.9-0.7-1.4-1.6-1.4C288,457.3,287.4,457.9,287.3,458.8z"/>
			<path id="XMLID_10_" class="st9" d="M300,459.4c0,0.2,0,0.5,0,0.7h-5.1c0.2,1,0.9,1.5,1.8,1.5c0.6,0,1.3-0.3,1.8-0.7l1.1,1.2
				c-0.8,0.7-1.9,1.1-3.1,1.1c-2.2,0-3.7-1.5-3.7-3.8c0-2.3,1.5-3.8,3.6-3.8C298.6,455.6,300,457.2,300,459.4z M294.9,458.8h3.2
				c-0.2-0.9-0.7-1.4-1.6-1.4C295.6,457.3,295.1,457.9,294.9,458.8z"/>
			<path id="XMLID_7_" class="st9" d="M308.4,459.4c0,2.2-1.5,3.8-3.5,3.8c-1,0-1.6-0.4-2.1-0.9v3.7h-1.9v-10.1h1.9v0.8
				c0.5-0.6,1.2-1,2.1-1C306.9,455.6,308.4,457.3,308.4,459.4z M302.7,459.4c0,1.1,0.7,2,1.8,2c1.1,0,1.9-0.9,1.9-2
				c0-1.1-0.7-2-1.9-2C303.5,457.4,302.7,458.3,302.7,459.4z"/>
			<path id="XMLID_4_" class="st9" d="M311.5,453.5c0,0.7-0.5,1.2-1.2,1.2c-0.7,0-1.2-0.5-1.2-1.2c0-0.7,0.5-1.2,1.2-1.2
				C310.9,452.3,311.5,452.8,311.5,453.5z M311.2,463h-1.9v-7.2h1.9V463z"/>
			<path id="XMLID_2_" class="st9" d="M314.4,458.4l2.7-2.6h2.4l-3.5,3.4l3.5,3.8h-2.4l-2.7-2.9v2.9h-1.9v-10.7h1.9V458.4z"/>
		</g>
		<g>
			<path class="st9" d="M182.8,462.9v-1.1c-0.5,0.7-1.4,1.2-2.4,1.2c-1.8,0-3.1-1.4-3.1-3.7c0-2.3,1.3-3.7,3.1-3.7
				c1,0,1.8,0.5,2.4,1.2v-3.8h1.1v9.8H182.8z M182.8,461v-3.2c-0.4-0.6-1.2-1.1-2.1-1.1c-1.4,0-2.3,1.2-2.3,2.7
				c0,1.6,0.8,2.7,2.3,2.7C181.6,462.1,182.4,461.6,182.8,461z"/>
			<path class="st9" d="M185.3,459.4c0-2.1,1.5-3.7,3.5-3.7c2.1,0,3.4,1.7,3.4,3.8v0.3h-5.7c0.1,1.3,1,2.4,2.5,2.4
				c0.8,0,1.6-0.3,2.2-0.9l0.5,0.7c-0.7,0.7-1.7,1.1-2.8,1.1C186.9,463.1,185.3,461.6,185.3,459.4z M188.8,456.6
				c-1.5,0-2.3,1.3-2.3,2.4h4.6C191.1,457.9,190.4,456.6,188.8,456.6z"/>
			<path class="st9" d="M193,462l0.6-0.8c0.5,0.5,1.4,1,2.3,1c1.1,0,1.7-0.5,1.7-1.2c0-1.7-4.4-0.7-4.4-3.3c0-1.1,1-2,2.6-2
				c1.2,0,2.1,0.5,2.6,1l-0.5,0.8c-0.4-0.5-1.2-0.9-2.1-0.9c-1,0-1.6,0.5-1.6,1.1c0,1.6,4.4,0.5,4.4,3.3c0,1.2-1,2.1-2.8,2.1
				C194.7,463.1,193.7,462.8,193,462z"/>
			<path class="st9" d="M199.9,454.1c0-0.4,0.3-0.7,0.7-0.7c0.4,0,0.7,0.3,0.7,0.7c0,0.4-0.3,0.7-0.7,0.7
				C200.2,454.9,199.9,454.5,199.9,454.1z M200.1,462.9v-7.1h1.1v7.1H200.1z"/>
			<path class="st9" d="M203,464.8l0.6-0.8c0.6,0.7,1.3,1,2.3,1c1.2,0,2.3-0.6,2.3-2.1v-1c-0.5,0.7-1.4,1.3-2.4,1.3
				c-1.8,0-3.1-1.4-3.1-3.7c0-2.3,1.3-3.7,3.1-3.7c1,0,1.8,0.5,2.4,1.2v-1.1h1.1v6.9c0,2.3-1.6,3.1-3.4,3.1
				C204.7,465.8,203.8,465.6,203,464.8z M208.1,460.9v-3.1c-0.4-0.6-1.2-1.1-2.1-1.1c-1.4,0-2.3,1.1-2.3,2.7c0,1.6,0.8,2.7,2.3,2.7
				C206.9,462.1,207.7,461.5,208.1,460.9z"/>
			<path class="st9" d="M215.8,462.9v-4.6c0-1.2-0.6-1.6-1.6-1.6c-0.9,0-1.7,0.5-2.1,1.1v5.2h-1.1v-7.1h1.1v1
				c0.5-0.6,1.5-1.2,2.5-1.2c1.5,0,2.3,0.7,2.3,2.3v5H215.8z"/>
			<path class="st9" d="M218.3,459.4c0-2.1,1.5-3.7,3.5-3.7c2.1,0,3.4,1.7,3.4,3.8v0.3h-5.7c0.1,1.3,1,2.4,2.5,2.4
				c0.8,0,1.6-0.3,2.2-0.9l0.5,0.7c-0.7,0.7-1.7,1.1-2.8,1.1C219.9,463.1,218.3,461.6,218.3,459.4z M221.8,456.6
				c-1.5,0-2.3,1.3-2.3,2.4h4.6C224.1,457.9,223.4,456.6,221.8,456.6z"/>
			<path class="st9" d="M231.8,462.9v-1.1c-0.5,0.7-1.4,1.2-2.4,1.2c-1.8,0-3.1-1.4-3.1-3.7c0-2.3,1.3-3.7,3.1-3.7
				c1,0,1.8,0.5,2.4,1.2v-3.8h1.1v9.8H231.8z M231.8,461v-3.2c-0.4-0.6-1.2-1.1-2.1-1.1c-1.4,0-2.3,1.2-2.3,2.7
				c0,1.6,0.8,2.7,2.3,2.7C230.5,462.1,231.4,461.6,231.8,461z"/>
			<path class="st9" d="M238.1,462.9v-9.8h1.1v3.8c0.6-0.8,1.4-1.2,2.4-1.2c1.8,0,3.1,1.5,3.1,3.7c0,2.3-1.3,3.7-3.1,3.7
				c-1,0-1.9-0.5-2.4-1.2v1.1H238.1z M241.3,462.1c1.4,0,2.3-1.2,2.3-2.7c0-1.6-0.8-2.7-2.3-2.7c-0.9,0-1.7,0.5-2.1,1.1v3.2
				C239.6,461.6,240.5,462.1,241.3,462.1z"/>
			<path class="st9" d="M245.9,464.7c0.2,0.1,0.4,0.1,0.6,0.1c0.5,0,0.8-0.2,1.1-0.7l0.5-1.1l-3-7.1h1.2l2.4,5.8l2.3-5.8h1.2
				l-3.5,8.5c-0.4,1-1.1,1.4-2.1,1.4c-0.2,0-0.6,0-0.8-0.1L245.9,464.7z"/>
		</g>
	</g>
</g>
</svg>
