<?xml version="1.0" encoding="utf-8"?>
<!-- Generator: Adobe Illustrator 21.1.0, SVG Export Plug-In . SVG Version: 6.00 Build 0)  -->
<svg version="1.1" id="Layer_1" xmlns="http://www.w3.org/2000/svg" xmlns:xlink="http://www.w3.org/1999/xlink" x="0px" y="0px"
	 viewBox="0 0 150 150" style="enable-background:new 0 0 150 150;" xml:space="preserve">
<style type="text/css">
	.st0{display:none;fill:#221F20;}
	.st1{fill-rule:evenodd;clip-rule:evenodd;fill:#FBEC27;}
	.st2{fill-rule:evenodd;clip-rule:evenodd;fill:#FBBA2D;}
	.st3{fill-rule:evenodd;clip-rule:evenodd;fill:#FBCE37;}
	.st4{fill-rule:evenodd;clip-rule:evenodd;fill:#FBEE3D;}
	.st5{fill-rule:evenodd;clip-rule:evenodd;fill:#DC9D3B;}
</style>
<g>
	<path class="st0" d="M49.6,119.2v-11.3h2.5c0.7,0,1.3,0.2,1.9,0.6c0.5,0.4,0.8,0.7,0.9,1.4c0.1,0.4,0.2,0.7,0.2,1.2
		c0,0.7-0.2,1.3-0.6,1.8c-0.2,0.2-0.5,0.4-0.7,0.5c0.5,0.1,0.7,0.5,1.1,0.8c0.1,0.4,0.2,0.7,0.4,1.2c0,0.2,0,0.5,0,0.7
		c0,0.7-0.1,1.4-0.4,1.9c-0.2,0.4-0.5,0.7-0.9,0.9c-0.4,0.2-0.8,0.4-1.2,0.4H49.6z M51.4,117.6h0.7c0.6,0,1.1-0.4,1.3-0.9
		c0-0.1,0.1-0.4,0.1-0.7c0-0.6-0.1-1.1-0.4-1.3c-0.2-0.4-0.6-0.5-1.1-0.5h-0.7V117.6z M51.4,112.6h0.7c0.6,0,0.9-0.4,1.1-0.8
		c0.1-0.2,0.1-0.5,0.1-0.7c0-0.5-0.1-0.8-0.4-1.1c-0.1-0.2-0.5-0.4-0.8-0.4h-0.7V112.6z M58.4,119.2h-1.7V108h1.7V119.2z
		 M61.6,109.6h-1.8V108h5.3v1.7h-1.8v9.6h-1.8V109.6z M69.1,119.3c-0.8,0-1.4-0.2-2-0.7c-0.5-0.6-0.7-1.2-0.7-2v-6.1
		c0-0.7,0.2-1.3,0.7-1.9c0.6-0.5,1.2-0.7,2-0.7c0.7,0,1.3,0.2,1.9,0.7c0.5,0.6,0.7,1.2,0.7,1.9v1.3h-1.8v-1.3c0-0.2,0-0.5-0.2-0.7
		c-0.2-0.1-0.5-0.2-0.7-0.2c-0.2,0-0.5,0.1-0.7,0.2c-0.1,0.2-0.2,0.5-0.2,0.7v6.1c0,0.4,0.1,0.6,0.2,0.7c0.2,0.2,0.5,0.4,0.7,0.4
		c0.2,0,0.5-0.1,0.7-0.4c0.2-0.1,0.2-0.4,0.2-0.7v-1.5h1.8v1.5c0,0.8-0.2,1.4-0.7,2C70.4,119.1,69.8,119.3,69.1,119.3L69.1,119.3z
		 M75.8,107.8c0.7,0,1.3,0.4,1.9,0.8c0.5,0.6,0.8,1.2,0.8,1.9v6.1c0,0.8-0.4,1.4-0.8,2c-0.6,0.5-1.2,0.7-1.9,0.7
		c-0.8,0-1.4-0.2-1.9-0.7c-0.6-0.6-0.8-1.2-0.8-2v-6.1c0-0.7,0.2-1.3,0.8-1.9C74.4,108.1,75,107.8,75.8,107.8L75.8,107.8z
		 M76.7,110.5c0-0.2-0.1-0.5-0.4-0.7c-0.1-0.1-0.4-0.2-0.7-0.2c-0.2,0-0.5,0.1-0.7,0.2c-0.1,0.2-0.2,0.5-0.2,0.7v6.1
		c0,0.2,0.1,0.5,0.2,0.7c0.2,0.2,0.5,0.2,0.7,0.2c0.4,0,0.6,0,0.7-0.2c0.2-0.2,0.4-0.5,0.4-0.7V110.5z M81.7,119.2h-1.8V108h1.8
		V119.2z M85.1,107.9l2.2,7.7v-7.7H89v11.3h-1.8l-2.4-7.2v7.2h-1.7v-11.3H85.1z"/>
	<g>
		<path class="st1" d="M74.5,0C115.8,0,149,33.2,149,74.5c0,41.1-33.2,74.5-74.5,74.5C33.4,149,0,115.6,0,74.5C0,33.2,33.4,0,74.5,0
			L74.5,0z"/>
		<path class="st2" d="M74.5,2.4c39.9,0,72.1,32.2,72.1,72.1c0,39.7-32.2,71.9-72.1,71.9c-39.7,0-71.9-32.2-71.9-71.9
			C2.6,34.6,34.8,2.4,74.5,2.4L74.5,2.4z"/>
		<path class="st3" d="M74.5,2.4c14.1,0,27.2,4,38.3,11.1c-22.6-1.8-62.6,3.4-96,50.9c-8.3,11.7-9.9,25.8-7,40.9
			c-4.6-9.3-7-19.7-7-30.8C2.6,34.6,34.8,2.4,74.5,2.4L74.5,2.4z"/>
		<path class="st4" d="M74.5,15.7c32.4,0,58.8,26.4,58.8,58.8c0,32.4-26.4,58.6-58.8,58.6c-32.4,0-58.6-26.2-58.6-58.6
			C15.9,42.1,42.1,15.7,74.5,15.7L74.5,15.7z"/>
		<path class="st2" d="M74.5,21.5c29.2,0,53,23.8,53,53c0,29.2-23.8,52.8-53,52.8c-29.2,0-52.8-23.6-52.8-52.8
			C21.7,45.3,45.3,21.5,74.5,21.5L74.5,21.5z"/>
		<path class="st3" d="M107.3,33c12.3,9.7,20.1,24.6,20.1,41.5c0,29.2-23.8,52.8-53,52.8c-13.3,0-25.4-4.8-34.8-13.1
			C129.5,112,109.3,39.5,107.3,33L107.3,33z"/>
		<path class="st5" d="M74.5,16.7c31.8,0,57.8,26,57.8,57.8s-26,57.6-57.8,57.6s-57.6-25.8-57.6-57.6S42.7,16.7,74.5,16.7L74.5,16.7
			z M75.3,22.1c30.2,0,54.6,24.4,54.6,54.6c0,30.2-24.4,54.6-54.6,54.6s-54.6-24.4-54.6-54.6C20.7,46.5,45.1,22.1,75.3,22.1
			L75.3,22.1z"/>
		<path class="st2" d="M56.4,109.3h8.1h1.4v5.4h7.2v-5.4h5v5.4h7.2v-5.8c14.5-1.8,17.3-11.3,17.3-18.5c0-14.1-7.5-16.1-12.7-16.9
			v-0.2c6.6-1.2,10.9-7.4,10.9-15.5c0-10.1-6-15.5-15.5-16.5v-5.8h-7.2v5.6h-5v-5.6h-7.2v5.6h-1.4h-8.1h-8.1V53h8.1v44.5h-8.1v11.9
			H56.4z M72.5,53h4.4c5.8,0,7.9,3.8,7.9,7.2c0,4.8-2.4,8.1-7.9,8.1h-4.4V53z M72.5,78.9h5.2c4.8,0,8.3,3,8.3,9.7
			c0,4.8-2,8.9-8.7,8.9h-4.8V78.9z"/>
		<path class="st4" d="M54,106.9H62h1.4v5.4h7.2v-5.4h5v5.4h7v-5.8c14.7-1.8,17.5-11.3,17.5-18.5c0-14.1-7.7-16.3-12.7-16.9v-0.2
			c6.6-1.2,10.7-7.4,10.7-15.5c0-10.1-6-15.5-15.5-16.5V33h-7v5.6h-5V33h-7.2v5.6H62H54h-8.1v11.9H54V95h-8.1v11.9H54z M70.1,50.5
			h4.4c5.8,0,7.9,3.8,7.9,7.2c0,4.8-2.4,8.1-7.9,8.1h-4.4V50.5z M70.1,76.5h5.2c4.8,0,8.3,2.8,8.3,9.7c0,4.6-2.2,8.9-8.7,8.9h-4.8
			V76.5z"/>
	</g>
</g>
</svg>
