<svg xmlns="http://www.w3.org/2000/svg" height="512pt" version="1.1" viewBox="0 0 512 512.00002" width="512pt">
<g id="surface1">
<path d="M 256 512 C 114.515625 512 0 397.503906 0 256 C 0 114.515625 114.496094 0 256 0 C 397.480469 0 512 114.496094 512 256 C 512 397.484375 397.503906 512 256 512 Z M 256 512 " style=" stroke:none;fill-rule:nonzero;fill:rgb(100%,80.392157%,0%);fill-opacity:1;" />
<path d="M 256 0.00390625 L 256 511.996094 C 397.492188 511.996094 511.996094 397.511719 511.996094 256 C 511.996094 114.507812 397.511719 0.00390625 256 0.00390625 Z M 256 0.00390625 " style=" stroke:none;fill-rule:nonzero;fill:rgb(93.333333%,74.901961%,0%);fill-opacity:1;" />
<path d="M 480.945312 256 C 480.945312 380.039062 380.039062 480.945312 256 480.945312 C 131.960938 480.945312 31.054688 380.039062 31.054688 256 C 31.054688 131.960938 131.960938 31.054688 256 31.054688 C 380.039062 31.054688 480.945312 131.960938 480.945312 256 Z M 480.945312 256 " style=" stroke:none;fill-rule:nonzero;fill:rgb(100%,89.411765%,46.666667%);fill-opacity:1;" />
<path d="M 480.945312 256 C 480.945312 380.039062 380.039062 480.945312 256 480.945312 L 256 31.054688 C 380.039062 31.054688 480.945312 131.960938 480.945312 256 Z M 480.945312 256 " style=" stroke:none;fill-rule:nonzero;fill:rgb(100%,87.058824%,33.333333%);fill-opacity:1;" />
<path d="M 256 453.898438 C 162.828125 453.898438 83.410156 389.035156 63.085938 300.351562 C 61.171875 291.992188 66.394531 283.664062 74.753906 281.75 C 83.117188 279.835938 91.441406 285.058594 93.355469 293.417969 C 110.820312 369.625 177.699219 422.847656 256 422.847656 C 334.300781 422.847656 401.183594 369.621094 418.644531 293.417969 C 420.5625 285.058594 428.886719 279.835938 437.246094 281.75 C 445.605469 283.664062 450.828125 291.992188 448.914062 300.351562 C 428.59375 389.011719 349.191406 453.898438 256 453.898438 Z M 256 453.898438 " style=" stroke:none;fill-rule:nonzero;fill:rgb(100%,96.078431%,80%);fill-opacity:1;" />
<path d="M 78.234375 230.644531 C 77.085938 230.644531 75.921875 230.515625 74.753906 230.25 C 66.394531 228.335938 61.171875 220.007812 63.085938 211.648438 C 83.40625 122.976562 162.816406 58.101562 256 58.101562 C 349.171875 58.101562 428.589844 122.96875 448.910156 211.648438 C 450.828125 220.007812 445.605469 228.335938 437.246094 230.25 C 428.894531 232.164062 420.558594 226.941406 418.644531 218.582031 C 401.179688 142.375 334.300781 89.152344 256 89.152344 C 177.699219 89.152344 110.816406 142.378906 93.351562 218.582031 C 91.707031 225.773438 85.3125 230.644531 78.234375 230.644531 Z M 78.234375 230.644531 " style=" stroke:none;fill-rule:nonzero;fill:rgb(100%,96.078431%,80%);fill-opacity:1;" />
<path d="M 309.710938 248.730469 C 333.433594 214.757812 310.441406 167.214844 268.554688 165.320312 L 268.554688 143.179688 C 268.554688 134.605469 261.601562 127.652344 253.027344 127.652344 C 244.453125 127.652344 237.503906 134.605469 237.503906 143.179688 L 237.503906 165.257812 L 207.839844 165.257812 C 199.265625 165.257812 192.316406 172.210938 192.316406 180.785156 C 192.316406 189.144531 192.316406 322.847656 192.316406 331.210938 C 192.316406 339.785156 199.265625 346.734375 207.839844 346.734375 L 237.503906 346.734375 L 237.503906 368.816406 C 237.503906 377.390625 244.453125 384.34375 253.027344 384.34375 C 261.605469 384.34375 268.554688 377.390625 268.554688 368.816406 L 268.554688 346.738281 L 281.320312 346.738281 C 310.617188 346.738281 334.453125 322.902344 334.453125 293.605469 C 334.449219 274.746094 324.566406 258.164062 309.710938 248.730469 Z M 223.367188 196.3125 L 266.128906 196.3125 C 278.304688 196.3125 288.210938 206.21875 288.210938 218.394531 C 288.210938 230.570312 278.304688 240.472656 266.128906 240.472656 L 223.367188 240.472656 Z M 281.320312 315.6875 L 223.363281 315.6875 L 223.363281 271.523438 C 231.082031 271.523438 275.113281 271.523438 281.320312 271.523438 C 293.492188 271.523438 303.398438 281.429688 303.398438 293.605469 C 303.398438 305.78125 293.492188 315.6875 281.320312 315.6875 Z M 281.320312 315.6875 " style=" stroke:none;fill-rule:nonzero;fill:rgb(100%,80.392157%,0%);fill-opacity:1;" />
<path d="M 309.707031 248.734375 C 333.425781 214.769531 310.464844 167.214844 268.554688 165.320312 L 268.554688 143.179688 C 268.554688 135.625 263.152344 129.332031 256 127.933594 L 256 196.308594 L 266.132812 196.308594 C 278.304688 196.308594 288.210938 206.214844 288.210938 218.398438 C 288.210938 230.570312 278.304688 240.472656 266.132812 240.472656 L 256 240.472656 L 256 271.523438 L 281.316406 271.523438 C 293.488281 271.523438 303.394531 281.429688 303.394531 293.601562 C 303.394531 305.785156 293.488281 315.691406 281.316406 315.691406 L 256 315.691406 L 256 384.066406 C 263.152344 382.667969 268.554688 376.375 268.554688 368.820312 L 268.554688 346.742188 L 281.316406 346.742188 C 310.621094 346.742188 334.445312 322.90625 334.445312 293.601562 C 334.445312 274.742188 324.558594 258.164062 309.707031 248.734375 Z M 309.707031 248.734375 " style=" stroke:none;fill-rule:nonzero;fill:rgb(93.333333%,74.901961%,0%);fill-opacity:1;" />
<path d="M 448.910156 300.351562 C 428.550781 389.207031 349 453.898438 256 453.898438 L 256 422.847656 C 334.300781 422.847656 401.1875 369.625 418.648438 293.417969 C 420.5625 285.054688 428.894531 279.835938 437.246094 281.75 C 445.609375 283.667969 450.824219 292 448.910156 300.351562 Z M 448.910156 300.351562 " style=" stroke:none;fill-rule:nonzero;fill:rgb(100%,92.156863%,60%);fill-opacity:1;" />
<path d="M 437.246094 230.246094 C 428.890625 232.164062 420.558594 226.945312 418.644531 218.582031 C 401.183594 142.371094 334.300781 89.152344 256 89.152344 L 256 58.101562 C 348.992188 58.101562 428.546875 122.785156 448.910156 211.648438 C 450.824219 220 445.609375 228.332031 437.246094 230.246094 Z M 437.246094 230.246094 " style=" stroke:none;fill-rule:nonzero;fill:rgb(100%,92.156863%,60%);fill-opacity:1;" />
</g>
</svg>