<?xml version="1.0" encoding="utf-8"?>
<!-- Generator: Adobe Illustrator 21.1.0, SVG Export Plug-In . SVG Version: 6.00 Build 0)  -->
<svg version="1.1" id="Layer_1" xmlns="http://www.w3.org/2000/svg" xmlns:xlink="http://www.w3.org/1999/xlink" x="0px" y="0px"
	 viewBox="0 0 290 290" style="enable-background:new 0 0 290 290;" xml:space="preserve">
<style type="text/css">
	.st0{fill:#0D47A1;}
	.st1{fill:#2967C1;}
	.st2{display:none;}
	.st3{display:inline;fill:#E34932;}
	.st4{display:inline;fill:#FF6748;}
	.st5{display:inline;}
	.st6{fill:#FF6748;}
	.st7{display:inline;fill:#F4EED8;}
	.st8{display:inline;fill:#5202B5;}
	.st9{display:inline;fill:#6D26D7;}
	.st10{fill:#0E0E15;}
	.st11{fill:#FFFFFF;}
	.st12{fill:#5202B5;}
	.st13{fill:#EBE0BE;}
	.st14{fill:#F065A6;}
	.st15{fill:#D5498F;}
	.st16{fill:#F4EED8;}
	.st17{fill:#00BEB9;}
	.st18{fill:#6D26D7;}
	.st19{fill:#E34932;}
</style>
<path class="st0" d="M-1.3,0.2l1.7,262.6l78.4-0.5c9.4-10.8,16.5-23.5,20.4-37.4c5.7-20.2,6.5-44.5,23.4-56.9
	c11.1-8.1,25.9-8.3,39.1-11.8c18.1-4.9,35.3-18.2,39.1-36.6c2.2-10.3,0.1-21.6,4.4-31.2c5.6-12.4,19.6-18.1,30.3-26.4
	c18.7-14.6,27.4-40.3,22.7-63.4L-1.3,0.2z"/>
<path class="st1" d="M-0.5,215.5l0.3,46.9l78.9-0.5c9.5-10.8,16.6-23.5,20.5-37.4c5.7-20.2,6.5-44.5,23.5-56.9
	c11.2-8.1,26.1-8.3,39.3-11.8c18.2-4.9,35.5-18.2,39.3-36.6c2.2-10.3,0.1-21.6,4.4-31.2c5.6-12.4,19.7-18.1,30.5-26.4
	c18.8-14.6,27.6-40.3,22.8-63.4l-26.8,0.2c2.3,10.8-1.4,22.7-8.5,31.5c-8.2,10.3-20.4,16.9-33,21.2c-11.6,4-24.4,6.9-32.6,16.1
	c-7.6,8.7-9.1,20.9-13.5,31.6c-5.5,13.6-16.4,25.1-29.8,31.4c-18.9,9-44,9.3-55.4,26.8c-6.8,10.4-6.5,24.4-13.9,34.5
	c-4.9,6.7-12.7,10.8-20.3,14.2C17.2,209.4,8.5,212.7-0.5,215.5z"/>
<g>
	<path class="st0" d="M193.3,180.9c0.3-1.6,1.8-2.8,3.5-2.7c1.4,0.1,2.5,1.2,2.8,2.5l1.2,0.1c1.2,0.1,2.4-0.3,3.2-1.1l0.9-0.9
		c-0.6-1.2-0.4-2.7,0.6-3.7c1.2-1.2,3.1-1.2,4.4-0.1c1.4,1.2,1.4,3.3,0.1,4.6c-1,1-2.4,1.2-3.6,0.6l-0.6,0.6c-0.9,0.9-1.3,2.3-1,3.6
		l0.2,0.9c1.3,0.2,2.4,1.1,2.7,2.5c0.3,1.6-0.7,3.3-2.3,3.7c-1.8,0.5-3.5-0.6-3.9-2.4c-0.3-1.4,0.3-2.7,1.4-3.4
		c-0.4-1.6-1.7-2.9-3.4-3.1h-0.2c-0.6,1.2-1.8,1.9-3.2,1.8C194.3,184.4,193,182.7,193.3,180.9z"/>
	<g class="st2">
		
			<ellipse transform="matrix(1 -6.593969e-03 6.593969e-03 1 -1.3018 0.9657)" class="st3" cx="145.8" cy="197.9" rx="24.4" ry="24.4"/>
		
			<ellipse transform="matrix(1 -6.593969e-03 6.593969e-03 1 -1.3018 0.9657)" class="st4" cx="145.8" cy="197.9" rx="18.3" ry="18.4"/>
		<g class="st5">
			<g>
				<path class="st6" d="M123.7,198.1c-0.1-12.2,9.8-22.2,21.9-22.3c12.2-0.1,22.1,9.8,22.2,22C168,210,158.1,220,146,220
					C133.8,220.1,123.8,210.3,123.7,198.1z M125,198.1c0.1,11.5,9.5,20.8,20.9,20.7c11.5-0.1,20.7-9.5,20.7-21s-9.5-20.8-20.9-20.7
					S124.9,186.6,125,198.1z"/>
			</g>
		</g>
		<path class="st7" d="M134,196.2c0.3-2.1,2.3-3.6,4.4-3.4c1.8,0.2,3.1,1.5,3.5,3.1l1.5,0.2c1.5,0.2,3-0.4,4.1-1.4l1.1-1.1
			c-0.7-1.5-0.5-3.4,0.8-4.6c1.5-1.5,4-1.6,5.5-0.1c1.7,1.5,1.8,4.2,0.2,5.8c-1.2,1.3-3.1,1.5-4.6,0.8l-0.8,0.8
			c-1.2,1.2-1.7,2.9-1.3,4.5l0.3,1.2c1.7,0.2,3.1,1.4,3.5,3.2c0.4,2.1-0.9,4.2-2.9,4.7c-2.2,0.6-4.5-0.8-5-3
			c-0.4-1.7,0.4-3.4,1.8-4.3c-0.5-2.1-2.2-3.6-4.3-3.9h-0.2c-0.7,1.5-2.3,2.5-4.1,2.3C135.2,200.6,133.6,198.5,134,196.2z"/>
	</g>
	<g>
		<g class="st2">
			<path class="st8" d="M62.9,314.4c0,0,39.3,2.4,87.8,2.1s87.8-3.3,87.8-3.3s-39.3-2.4-87.8-2.1S62.9,314.4,62.9,314.4z"/>
			<path class="st9" d="M151.5,316.5c0.9,0,1.8,0,2.7,0c48.5-0.3,87.8-3.3,87.8-3.3s-39.3-2.4-87.8-2.1h-1.1
				C152.5,312.9,152,314.7,151.5,316.5z"/>
			<path class="st9" d="M66.3,314.4c0,0,7.9,0.5,21.1,1c0.9-0.8,1.8-1.6,2.6-2.4C75.3,313.7,66.3,314.4,66.3,314.4z"/>
		</g>
		<g>
			<g>
				<path class="st10" d="M43.1,184.1l-0.4-66.8c0-3,2.4-5.5,5.5-5.5l121-0.8c3,0,5.5,2.4,5.5,5.5l0.4,66.8L43.1,184.1z"/>
				<path class="st11" d="M46.1,118.5l0.4,65.6l125-0.8l-0.4-65.6c0-1.4-1.2-2.6-2.6-2.6l-119.8,0.8C47.3,115.9,46.1,117,46.1,118.5
					z"/>
				<g>
					<g>
						<g>
							
								<rect x="74.4" y="125.1" transform="matrix(1 -6.593969e-03 6.593969e-03 1 -0.9697 0.4968)" class="st12" width="0.9" height="44.4"/>
							
								<rect x="87.7" y="125" transform="matrix(1 -6.593969e-03 6.593969e-03 1 -0.9687 0.5845)" class="st12" width="0.9" height="44.4"/>
							
								<rect x="101.1" y="124.9" transform="matrix(1 -6.593969e-03 6.593969e-03 1 -0.9678 0.6728)" class="st12" width="0.9" height="44.4"/>
							
								<rect x="114.5" y="124.8" transform="matrix(1 -6.593969e-03 6.593969e-03 1 -0.9668 0.7612)" class="st12" width="0.9" height="44.4"/>
							
								<rect x="127.9" y="124.7" transform="matrix(1 -6.593969e-03 6.593969e-03 1 -0.9659 0.8495)" class="st12" width="0.9" height="44.4"/>
							
								<rect x="141.3" y="124.6" transform="matrix(1 -6.593969e-03 6.593969e-03 1 -0.9649 0.9379)" class="st12" width="0.9" height="44.4"/>
						</g>
						
							<rect x="65" y="174.4" transform="matrix(1 -6.593969e-03 6.593969e-03 1 -1.1506 0.7222)" class="st12" width="87.9" height="0.9"/>
					</g>
				</g>
				<g>
					<g>
						
							<rect x="149" y="128.7" transform="matrix(1 -6.593969e-03 6.593969e-03 1 -0.8502 1.0399)" class="st13" width="16.5" height="1.6"/>
						
							<rect x="149" y="133.1" transform="matrix(1 -6.593969e-03 6.593969e-03 1 -0.8796 1.0397)" class="st13" width="16.5" height="1.6"/>
						
							<rect x="149" y="137.7" transform="matrix(1 -6.593969e-03 6.593969e-03 1 -0.9098 1.0402)" class="st13" width="16.5" height="1.6"/>
						
							<rect x="149.1" y="142.3" transform="matrix(1 -6.593969e-03 6.593969e-03 1 -0.9399 1.0407)" class="st13" width="16.5" height="1.6"/>
					</g>
					<g>
						
							<ellipse transform="matrix(1 -6.593969e-03 6.593969e-03 1 -0.8135 1.0756)" class="st14" cx="162.7" cy="123.9" rx="1.5" ry="1.5"/>
						
							<ellipse transform="matrix(1 -6.593969e-03 6.593969e-03 1 -0.8136 1.0393)" class="st14" cx="157.2" cy="123.9" rx="1.5" ry="1.5"/>
						
							<ellipse transform="matrix(1 -6.593969e-03 6.593969e-03 1 -0.8144 1.0037)" class="st14" cx="151.8" cy="124" rx="1.5" ry="1.5"/>
					</g>
				</g>
				<polygon class="st15" points="69.9,128.2 83.3,132.6 79.1,136.3 88.1,146.4 101.5,127.9 115.5,147.4 128.3,131.9 153.2,164 
					150.9,165.7 128.2,136.4 115.3,152 101.5,132.7 88.3,150.8 77,138.2 72.8,142 				"/>
				<g>
					<g>
						<path class="st0" d="M52.9,141.4c0.1-0.7,0.7-1.1,1.4-1.1c0.6,0.1,1,0.5,1.1,1l0.5,0.1c0.5,0.1,0.9-0.1,1.3-0.5l0.3-0.3
							c-0.2-0.5-0.2-1.1,0.2-1.5c0.5-0.5,1.2-0.5,1.7,0s0.6,1.3,0.1,1.8c-0.4,0.4-1,0.5-1.4,0.3l-0.2,0.2c-0.4,0.4-0.5,0.9-0.4,1.4
							l0.1,0.4c0.5,0.1,1,0.4,1.1,1s-0.3,1.3-0.9,1.5c-0.7,0.2-1.4-0.2-1.6-1c-0.1-0.5,0.1-1.1,0.6-1.3c-0.1-0.7-0.7-1.1-1.3-1.2
							h-0.1c-0.2,0.5-0.7,0.8-1.3,0.7C53.3,142.7,52.7,142.1,52.9,141.4z"/>
						<g>
							<g>
								<path class="st0" d="M56.5,149.5c-0.6,0-1.2,0.3-1.6,0.8h-0.4c0.4-0.7,1.2-1.1,2-1.1c1.4,0,2.5,1.1,2.5,2.5
									s-1.1,2.5-2.5,2.5c-0.8,0-1.6-0.4-2.1-1.1h0.4c0.4,0.5,1,0.7,1.6,0.7c1.2,0,2.1-1,2.1-2.1C58.6,150.4,57.7,149.5,56.5,149.5
									z"/>
								<polygon class="st0" points="53.1,150.6 53.8,150.6 55.8,150.6 55.8,151.3 53.7,151.3 53,151.3 52.7,151.3 52.7,150.6 
																	"/>
								<path class="st0" d="M53.7,151.9h2.1v0.7h-1.9c0.1,0.1,0.1,0.3,0.2,0.4c0.5,0.9,1.5,1.5,2.5,1.5c1.6,0,2.9-1.3,2.9-2.9
									s-1.3-2.9-2.9-2.9c-1.1,0-2,0.6-2.5,1.5h-0.8c0.5-1.3,1.8-2.2,3.3-2.2c2,0,3.6,1.6,3.6,3.6s-1.6,3.6-3.6,3.6
									c-1.5,0-2.8-0.9-3.3-2.2c-0.1-0.1-0.1-0.3-0.2-0.4h-0.4v-0.7H53L53.7,151.9z"/>
							</g>
						</g>
						<path class="st0" d="M54.2,162.3c0,1,0.6,1.6,1.7,1.6v0.9h0.9v-0.9h0.4v0.9h0.9v-0.9h0.7v-1.2h-0.7v-3.5h0.7V158h-0.7v-0.8
							h-0.9v0.8h-0.4v-0.8h-0.9v0.8c-0.9,0.1-1.5,0.6-1.5,1.5c0,0.6,0.3,1.1,0.8,1.3C54.5,160.9,54.2,161.5,54.2,162.3z M56.9,160.4
							H56c-0.1,0-0.2,0-0.2,0c-0.2-0.1-0.3-0.3-0.3-0.5c0-0.3,0.1-0.4,0.3-0.5c0.1,0,0.1,0,0.2,0h0.9V160.4z M55.4,162.1
							c0-0.3,0.2-0.5,0.4-0.6c0.1,0,0.1,0,0.2,0h0.9v1.2H56c-0.1,0-0.2,0-0.2,0C55.5,162.6,55.4,162.4,55.4,162.1z"/>
						<g>
							<g>
								<polygon class="st12" points="56.3,128.7 58.6,132.4 56.3,133.5 54,132.5 								"/>
								<polygon class="st12" points="56.3,136.9 54,133.2 56.3,134.7 58.6,133.1 								"/>
							</g>
						</g>
					</g>
				</g>
			</g>
			<g>
				<path class="st16" d="M39.6,195.2l139.1-0.9c4.8,0,8.7-4,8.7-8.8v-2.3l-156.6,1v2.3C30.8,191.3,34.7,195.2,39.6,195.2z"/>
				
					<rect x="94.3" y="183.6" transform="matrix(1 -6.593969e-03 6.593969e-03 1 -1.2203 0.723)" class="st13" width="29.4" height="3.6"/>
				<path class="st13" d="M30.7,184.2v2.3c0,4.8,4,8.7,8.8,8.7l139.1-0.9c4.8,0,8.7-4,8.7-8.8v-2.3h-0.1c-0.7,4.2-4.2,7.3-8.6,7.4
					l-139.1,0.9C35.2,191.5,31.5,188.4,30.7,184.2L30.7,184.2z"/>
			</g>
		</g>
		<g>
			<path class="st17" d="M21.5,144.8l69.6-0.5c1.1,0,1.9-0.9,1.9-1.9l-0.1-16c0-1.1-0.9-1.9-1.9-1.9L21.4,125
				c-1.1,0-1.9,0.9-1.9,1.9l0.1,16C19.6,144,20.4,144.9,21.5,144.8z"/>
			<g>
				
					<rect x="76.3" y="128" transform="matrix(1 -6.593969e-03 6.593969e-03 1 -0.8851 0.5479)" class="st11" width="12.8" height="12.9"/>
				<g>
					
						<rect x="23.3" y="128.4" transform="matrix(1 -6.593969e-03 6.593969e-03 1 -0.8532 0.3101)" class="st11" width="46.6" height="2.3"/>
					
						<rect x="23.4" y="133.6" transform="matrix(1 -6.593969e-03 6.593969e-03 1 -0.8877 0.3107)" class="st11" width="46.6" height="2.3"/>
					
						<rect x="42.7" y="138.8" transform="matrix(1 -6.593969e-03 6.593969e-03 1 -0.9218 0.3744)" class="st11" width="27.3" height="2.3"/>
				</g>
			</g>
		</g>
		<g>
			<path class="st17" d="M140.7,169l61.6-0.4c0.9,0,1.7-0.8,1.7-1.7l-0.1-14.2c0-0.9-0.8-1.7-1.7-1.7l-61.6,0.4
				c-0.9,0-1.7,0.8-1.7,1.7l0.1,14.2C139,168.3,139.7,169,140.7,169z"/>
			<g>
				<g>
					<g>
						
							<rect x="142.2" y="154.3" transform="matrix(1 -6.593969e-03 6.593969e-03 1 -1.021 1.077)" class="st11" width="41.3" height="2.1"/>
						
							<rect x="142.2" y="159" transform="matrix(1 -6.593969e-03 6.593969e-03 1 -1.0521 1.0775)" class="st11" width="41.3" height="2.1"/>
						
							<rect x="159.5" y="163.6" transform="matrix(1 -6.593969e-03 6.593969e-03 1 -1.0817 1.1347)" class="st11" width="24.1" height="2.1"/>
					</g>
				</g>
				<g>
					
						<rect x="185.6" y="154.1" transform="matrix(1 -6.593969e-03 6.593969e-03 1 -1.0276 1.2777)" class="st11" width="15.4" height="4.7"/>
					
						<rect x="185.6" y="160.9" transform="matrix(1 -6.593969e-03 6.593969e-03 1 -1.0721 1.2785)" class="st11" width="15.4" height="4.7"/>
				</g>
			</g>
		</g>
		<g>
			<path class="st14" d="M65.3,172.9l45.1-0.3c0.9,0,1.7-0.8,1.7-1.7l-0.1-14.2c0-0.9-0.8-1.7-1.7-1.7l-45.1,0.3
				c-0.9,0-1.7,0.8-1.7,1.7l0.1,14.2C63.6,172.1,64.4,172.9,65.3,172.9z"/>
			<g>
				<g>
					<g>
						
							<rect x="66.9" y="158.2" transform="matrix(1 -6.593969e-03 6.593969e-03 1 -1.0484 0.5808)" class="st11" width="41.3" height="2.1"/>
						
							<rect x="66.9" y="162.9" transform="matrix(1 -6.593969e-03 6.593969e-03 1 -1.0789 0.5806)" class="st11" width="41.3" height="2.1"/>
						
							<rect x="84.1" y="167.5" transform="matrix(1 -6.593969e-03 6.593969e-03 1 -1.1092 0.6379)" class="st11" width="24.1" height="2.1"/>
					</g>
				</g>
			</g>
		</g>
		<g>
			<path class="st14" d="M113.4,142.2l40.4-0.3c0.8,0,1.5-0.7,1.5-1.5l-0.1-12.7c0-0.8-0.7-1.5-1.5-1.5l-40.4,0.3
				c-0.8,0-1.5,0.7-1.5,1.5l0.1,12.7C111.9,141.6,112.6,142.2,113.4,142.2z"/>
			<g>
				<g>
					<g>
						
							<rect x="114.9" y="129.2" transform="matrix(1 -6.593969e-03 6.593969e-03 1 -0.855 0.8823)" class="st11" width="37" height="1.8"/>
						
							<rect x="114.8" y="133.4" transform="matrix(1 -6.593969e-03 6.593969e-03 1 -0.8824 0.8821)" class="st11" width="37" height="1.8"/>
						
							<rect x="130.2" y="137.5" transform="matrix(1 -6.593969e-03 6.593969e-03 1 -0.9097 0.9333)" class="st11" width="21.7" height="1.8"/>
					</g>
				</g>
			</g>
		</g>
	</g>
	<path class="st11" d="M187.1,80.9l0.5-1.9l0.6,1.9c0.5,1.6,1.6,3,3.1,3.8l0,0l0,0c-1.5,0.8-2.6,2.2-3,3.8l-0.5,1.9l-0.6-1.9
		c-0.5-1.6-1.6-3-3.1-3.8l0,0l0,0C185.6,83.9,186.6,82.5,187.1,80.9z"/>
	<path class="st11" d="M24.1,78l0.5-1.9l0.6,1.9c0.5,1.6,1.6,3,3.1,3.8l0,0l0,0c-1.5,0.8-2.6,2.2-3,3.8l-0.5,1.9l-0.6-1.9
		c-0.5-1.6-1.6-3-3.1-3.8l0,0l0,0C22.6,81,23.6,79.7,24.1,78z"/>
	<path class="st11" d="M67.1,84.5l0.5-1.9l0.6,1.9c0.5,1.6,1.6,3,3.1,3.8l0,0l0,0c-1.5,0.8-2.6,2.2-3,3.8L67.7,94l-0.6-1.9
		c-0.5-1.6-1.6-3-3.1-3.8l0,0l0,0C65.6,87.5,66.7,86.1,67.1,84.5z"/>
	<path class="st11" d="M181.1,72.3l0.4-1.4l0.4,1.4c0.3,1.2,1.1,2.1,2.2,2.7l0,0l0,0c-1,0.6-1.8,1.6-2.1,2.7l-0.4,1.4l-0.4-1.4
		c-0.3-1.2-1.1-2.1-2.2-2.7l0,0l0,0C180,74.5,180.8,73.5,181.1,72.3z"/>
	<path class="st11" d="M69.1,65.5l0.4-1.4l0.4,1.4c0.3,1.2,1.1,2.1,2.2,2.7l0,0l0,0c-1,0.6-1.8,1.6-2.1,2.7l-0.4,1.4l-0.4-1.4
		c-0.3-1.2-1.1-2.1-2.2-2.7l0,0l0,0C68,67.6,68.8,66.6,69.1,65.5z"/>
	<path class="st11" d="M29.4,69.2l0.4-1.4l0.4,1.4c0.3,1.2,1.1,2.1,2.2,2.7l0,0l0,0c-1,0.6-1.8,1.6-2.1,2.7L29.8,76l-0.4-1.4
		c-0.3-1.2-1.1-2.1-2.2-2.7l0,0l0,0C28.3,71.4,29.1,70.4,29.4,69.2z"/>
	<path class="st11" d="M27.4,160.2l0.4-1.4l0.4,1.4c0.3,1.2,1.1,2.1,2.2,2.7l0,0l0,0c-1,0.6-1.8,1.6-2.1,2.7l-0.4,1.4l-0.4-1.4
		c-0.3-1.2-1.1-2.1-2.2-2.7l0,0l0,0C26.4,162.3,27.1,161.3,27.4,160.2z"/>
	<path class="st11" d="M203.3,135.1l0.4-1.4l0.4,1.4c0.3,1.2,1.1,2.1,2.2,2.7l0,0l0,0c-1,0.6-1.8,1.6-2.1,2.7l-0.4,1.4l-0.4-1.4
		c-0.3-1.2-1.1-2.1-2.2-2.7l0,0l0,0C202.3,137.2,203,136.2,203.3,135.1z"/>
	<g class="st2">
		
			<ellipse transform="matrix(1 -6.593969e-03 6.593969e-03 1 -1.5527 1.4717)" class="st3" cx="222.4" cy="236.2" rx="20.6" ry="20.6"/>
		
			<ellipse transform="matrix(1 -6.593969e-03 6.593969e-03 1 -1.5527 1.4717)" class="st4" cx="222.4" cy="236.2" rx="15.5" ry="15.5"/>
		<g class="st5">
			<g>
				<path class="st6" d="M203.7,236.3c-0.1-10.3,8.2-18.7,18.5-18.8s18.7,8.3,18.8,18.6s-8.2,18.7-18.5,18.8
					S203.8,246.6,203.7,236.3z M204.8,236.3c0.1,9.7,8,17.6,17.7,17.5s17.5-8,17.5-17.7c-0.1-9.7-8-17.5-17.7-17.5
					C212.5,218.7,204.7,226.6,204.8,236.3z"/>
			</g>
		</g>
		<path class="st7" d="M215.8,239.8c0,2.8,1.9,4.5,4.7,4.6v2.4h2.6v-2.4h1.2v2.4h2.6v-2.4h2V241H227l-0.1-9.9h1.9v-3.4h-2v-2.1h-2.6
			v2.1H223v-2.1h-2.6v2.2c-2.6,0.2-4.3,1.8-4.3,4.2c0,1.7,0.9,3.1,2.2,3.6C216.8,236,215.8,237.7,215.8,239.8z M223.7,234.3h-2.6
			c-0.2,0-0.5,0-0.7-0.1c-0.5-0.2-0.8-0.8-0.8-1.5s0.3-1.2,0.8-1.5c0.2-0.1,0.4-0.1,0.7-0.1h2.6V234.3z M219.2,239.2
			c0-0.8,0.5-1.4,1.2-1.6c0.2-0.1,0.4-0.1,0.7-0.1h2.6v3.5h-2.6c-0.2,0-0.5,0-0.7-0.1C219.7,240.7,219.3,240.1,219.2,239.2z"/>
	</g>
	<g class="st2">
		<g class="st5">
			<ellipse transform="matrix(1 -6.593969e-03 6.593969e-03 1 -2.197 1.2674)" class="st18" cx="191.1" cy="333.8" rx="1" ry="1"/>
			<ellipse transform="matrix(1 -6.593969e-03 6.593969e-03 1 -2.1971 1.2384)" class="st18" cx="186.7" cy="333.8" rx="1" ry="1"/>
			<ellipse transform="matrix(1 -6.593969e-03 6.593969e-03 1 -2.1972 1.2094)" class="st18" cx="182.3" cy="333.8" rx="1" ry="1"/>
			<ellipse transform="matrix(1 -6.593969e-03 6.593969e-03 1 -2.1972 1.1803)" class="st18" cx="177.9" cy="333.8" rx="1" ry="1"/>
			<ellipse transform="matrix(1 -6.593969e-03 6.593969e-03 1 -2.198 1.152)" class="st18" cx="173.6" cy="333.9" rx="1" ry="1"/>
			<ellipse transform="matrix(1 -6.593969e-03 6.593969e-03 1 -2.1981 1.123)" class="st18" cx="169.2" cy="333.9" rx="1" ry="1"/>
			<ellipse transform="matrix(1 -6.593969e-03 6.593969e-03 1 -2.1982 1.094)" class="st18" cx="164.8" cy="333.9" rx="1" ry="1"/>
			<ellipse transform="matrix(1 -6.593969e-03 6.593969e-03 1 -2.1989 1.065)" class="st18" cx="160.4" cy="334" rx="1" ry="1"/>
		</g>
	</g>
	<g class="st2">
		<g class="st5">
			<ellipse transform="matrix(1 -6.593969e-03 6.593969e-03 1 -2.1309 1.7017)" class="st18" cx="257" cy="324" rx="1" ry="1"/>
			<ellipse transform="matrix(1 -6.593969e-03 6.593969e-03 1 -2.131 1.6727)" class="st18" cx="252.6" cy="324" rx="1" ry="1"/>
			<ellipse transform="matrix(1 -6.593969e-03 6.593969e-03 1 -2.1318 1.6437)" class="st18" cx="248.2" cy="324.1" rx="1" ry="1"/>
			<ellipse transform="matrix(1 -6.593969e-03 6.593969e-03 1 -2.1318 1.6154)" class="st18" cx="243.9" cy="324.1" rx="1" ry="1"/>
			<ellipse transform="matrix(1 -6.593969e-03 6.593969e-03 1 -2.1319 1.5863)" class="st18" cx="239.5" cy="324.1" rx="1" ry="1"/>
			<ellipse transform="matrix(1 -6.593969e-03 6.593969e-03 1 -2.1327 1.5573)" class="st18" cx="235.1" cy="324.2" rx="1" ry="1"/>
			<ellipse transform="matrix(1 -6.593969e-03 6.593969e-03 1 -2.1328 1.5283)" class="st18" cx="230.7" cy="324.2" rx="1" ry="1"/>
			<ellipse transform="matrix(1 -6.593969e-03 6.593969e-03 1 -2.1329 1.4993)" class="st18" cx="226.3" cy="324.2" rx="1" ry="1"/>
		</g>
	</g>
	<g class="st2">
		<g class="st5">
			<ellipse transform="matrix(1 -6.593969e-03 6.593969e-03 1 -1.1044 0.8253)" class="st18" cx="124.6" cy="167.9" rx="1" ry="1"/>
			<ellipse transform="matrix(1 -6.593969e-03 6.593969e-03 1 -1.1045 0.7963)" class="st18" cx="120.2" cy="167.9" rx="1" ry="1"/>
			<ellipse transform="matrix(1 -6.593969e-03 6.593969e-03 1 -1.1046 0.7672)" class="st18" cx="115.8" cy="167.9" rx="1" ry="1"/>
			<ellipse transform="matrix(1 -6.593969e-03 6.593969e-03 1 -1.1054 0.7382)" class="st18" cx="111.4" cy="168" rx="1" ry="1"/>
			<ellipse transform="matrix(1 -6.593969e-03 6.593969e-03 1 -1.1055 0.7092)" class="st18" cx="107" cy="168" rx="1" ry="1"/>
			<ellipse transform="matrix(1 -6.593969e-03 6.593969e-03 1 -1.1056 0.6802)" class="st18" cx="102.6" cy="168" rx="1" ry="1"/>
			<ellipse transform="matrix(1 -6.593969e-03 6.593969e-03 1 -1.1063 0.6512)" class="st18" cx="98.2" cy="168.1" rx="1" ry="1"/>
			<ellipse transform="matrix(1 -6.593969e-03 6.593969e-03 1 -1.1064 0.6228)" class="st18" cx="93.9" cy="168.1" rx="1" ry="1"/>
		</g>
	</g>
	<g class="st2">
		<ellipse transform="matrix(1 -6.593969e-03 6.593969e-03 1 -1.1827 1.692)" class="st8" cx="256" cy="180.2" rx="1" ry="1"/>
		<ellipse transform="matrix(1 -6.593969e-03 6.593969e-03 1 -1.1828 1.663)" class="st8" cx="251.6" cy="180.2" rx="1" ry="1"/>
		<ellipse transform="matrix(1 -6.593969e-03 6.593969e-03 1 -1.1829 1.634)" class="st8" cx="247.2" cy="180.2" rx="1" ry="1"/>
		<ellipse transform="matrix(1 -6.593969e-03 6.593969e-03 1 -1.1836 1.605)" class="st8" cx="242.8" cy="180.3" rx="1" ry="1"/>
		<ellipse transform="matrix(1 -6.593969e-03 6.593969e-03 1 -1.1837 1.576)" class="st8" cx="238.4" cy="180.3" rx="1" ry="1"/>
		<ellipse transform="matrix(1 -6.593969e-03 6.593969e-03 1 -1.1838 1.5469)" class="st8" cx="234" cy="180.3" rx="1" ry="1"/>
		<ellipse transform="matrix(1 -6.593969e-03 6.593969e-03 1 -1.1846 1.5186)" class="st8" cx="229.7" cy="180.4" rx="1" ry="1"/>
		<ellipse transform="matrix(1 -6.593969e-03 6.593969e-03 1 -1.1847 1.4896)" class="st8" cx="225.3" cy="180.4" rx="1" ry="1"/>
	</g>
	<g class="st2">
		<g class="st5">
			<g>
				
					<ellipse transform="matrix(1 -6.593969e-03 6.593969e-03 1 -1.2881 1.3204)" class="st19" cx="199.6" cy="196" rx="15.2" ry="15.2"/>
				
					<ellipse transform="matrix(1 -6.593969e-03 6.593969e-03 1 -1.2881 1.3204)" class="st6" cx="199.6" cy="196" rx="11.4" ry="11.5"/>
				<g>
					<g>
						<path class="st6" d="M185.8,196.1c-0.1-7.6,6.1-13.8,13.7-13.9c7.6-0.1,13.8,6.1,13.9,13.7c0.1,7.6-6.1,13.8-13.7,13.9
							C192.1,209.8,185.9,203.7,185.8,196.1z M186.6,196.1c0,7.2,5.9,13,13.1,12.9c7.2,0,12.9-5.9,12.9-13.1c0-7.2-5.9-13-13.1-12.9
							C192.4,183,186.6,188.9,186.6,196.1z"/>
					</g>
				</g>
			</g>
		</g>
		<g class="st5">
			<polygon class="st16" points="199.6,187.3 204.5,195.2 199.6,197.6 194.7,195.3 			"/>
			<polygon class="st16" points="199.7,204.6 194.7,196.7 199.6,199.9 204.5,196.7 			"/>
		</g>
	</g>
	<path class="st0" d="M89.7,209.9c-0.1-2.2-1.6-3.6-3.9-3.6l-0.1-2l-2.1,0.1l0.1,1.9h-1l-0.1-1.9l-2.1,0.1l0.1,1.9H79l0.1,2.7h1.5
		l0.2,7.9h-1.5l0.1,2.7H81l0.1,1.7l2.1-0.1l-0.1-1.7h1l0.1,1.7l2.1-0.1l-0.1-1.7c2.1-0.2,3.4-1.5,3.3-3.5c0-1.4-0.8-2.5-1.9-2.8
		C89,212.9,89.7,211.6,89.7,209.9z M83.5,214.4l2.1-0.1c0.2,0,0.4,0,0.5,0.1c0.4,0.2,0.7,0.6,0.7,1.2c0,0.6-0.2,1-0.6,1.2
		c-0.2,0.1-0.3,0.1-0.5,0.1l-2.1,0.1L83.5,214.4z M86.9,210.4c0,0.7-0.3,1.1-0.9,1.3c-0.2,0-0.3,0.1-0.5,0.1l-2.1,0.1l-0.1-2.8
		l2.1-0.1c0.2,0,0.4,0,0.5,0C86.5,209.2,86.9,209.7,86.9,210.4z"/>
	<g>
		<g>
			<path class="st1" d="M136.8,43.5c-1.6,0-3.1,0.7-4,1.9h-1.1c1.1-1.7,3-2.8,5.1-2.8c3.4,0,6.2,2.7,6.2,6.2c0,3.4-2.7,6.2-6.2,6.3
				c-2.1,0-4-1.1-5.2-2.7h1.1c1,1.1,2.4,1.8,4,1.8c2.9,0,5.3-2.4,5.3-5.4C142.1,45.8,139.7,43.4,136.8,43.5z"/>
			<polygon class="st1" points="128.1,46.3 129.9,46.3 134.8,46.3 134.8,48 129.6,48.1 127.8,48.1 127.1,48.1 127.1,46.3 			"/>
			<path class="st1" d="M129.6,49.6h5.3v1.8H130c0.1,0.4,0.3,0.7,0.5,1c1.3,2.2,3.6,3.7,6.4,3.7c4,0,7.2-3.3,7.2-7.3
				s-3.3-7.3-7.3-7.2c-2.8,0-5.1,1.6-6.4,3.9h-1.9c1.3-3.3,4.5-5.6,8.3-5.6c5,0,9.1,4,9.1,9s-4,9.1-9,9.1c-3.7,0-6.9-2.2-8.3-5.4
				c-0.1-0.3-0.3-0.7-0.4-1h-1v-1.8h0.7L129.6,49.6z"/>
		</g>
	</g>
	<g>
		<g>
			<path class="st0" d="M162.1,209.6c-1.6,0-3.1,0.7-4,1.9H157c1.1-1.7,3-2.8,5.1-2.8c3.4,0,6.2,2.7,6.2,6.2c0,3.4-2.7,6.2-6.2,6.3
				c-2.1,0-4-1.1-5.2-2.7h1.1c1,1.1,2.4,1.8,4,1.8c2.9,0,5.3-2.4,5.3-5.4C167.4,212,165,209.6,162.1,209.6z"/>
			<polygon class="st0" points="153.5,212.5 155.3,212.5 160.2,212.4 160.2,214.2 154.9,214.2 153.1,214.2 152.5,214.2 152.5,212.5 
							"/>
			<path class="st0" d="M154.9,215.7h5.3v1.8h-4.9c0.1,0.4,0.3,0.7,0.5,1c1.3,2.2,3.6,3.7,6.4,3.7c4,0,7.2-3.3,7.2-7.3
				s-3.3-7.3-7.3-7.2c-2.8,0-5.1,1.6-6.4,3.9h-1.9c1.3-3.3,4.5-5.6,8.3-5.6c5,0,9.1,4,9.1,9s-4,9.1-9,9.1c-3.7,0-6.9-2.2-8.3-5.4
				c-0.1-0.3-0.3-0.7-0.4-1h-1v-1.8h0.7L154.9,215.7z"/>
		</g>
	</g>
	<g>
		<polygon class="st1" points="50.6,57.5 56.5,66.8 50.7,69.6 44.9,66.9 		"/>
		<polygon class="st1" points="50.7,77.9 44.9,68.6 50.7,72.4 56.5,68.5 		"/>
	</g>
	<g class="st2">
		<g class="st5">
			
				<ellipse transform="matrix(1 -6.593969e-03 6.593969e-03 1 -1.4561 0.5818)" class="st19" cx="87.5" cy="221.1" rx="17.3" ry="17.3"/>
			<ellipse transform="matrix(1 -6.593969e-03 6.593969e-03 1 -1.4561 0.5818)" class="st6" cx="87.5" cy="221.1" rx="13" ry="13"/>
			<g>
				<g>
					<path class="st6" d="M71.9,221.2c-0.1-8.6,6.9-15.7,15.5-15.8s15.7,6.9,15.7,15.6c0.1,8.6-6.9,15.7-15.5,15.8
						C79,236.8,71.9,229.8,71.9,221.2z M72.8,221.2c0.1,8.1,6.7,14.7,14.8,14.7c8.1-0.1,14.7-6.7,14.6-14.9
						c-0.1-8.1-6.7-14.7-14.8-14.7C79.3,206.4,72.7,213,72.8,221.2z"/>
				</g>
			</g>
		</g>
		<g class="st5">
			<g>
				<path class="st16" d="M87.8,216.3c-1.4,0-2.7,0.7-3.6,1.7h-1c1-1.5,2.7-2.5,4.6-2.5c3.1,0,5.6,2.5,5.6,5.5
					c0,3.1-2.5,5.6-5.5,5.6c-1.9,0-3.6-1-4.6-2.4h1c0.9,1,2.2,1.7,3.6,1.6c2.6,0,4.8-2.2,4.7-4.8C92.6,218.4,90.4,216.3,87.8,216.3z
					"/>
				<polygon class="st16" points="80,218.9 81.7,218.9 86.1,218.8 86.1,220.4 81.3,220.4 79.8,220.5 79.2,220.5 79.1,218.9 				"/>
				<path class="st16" d="M81.3,221.8H86v1.6h-4.4c0.1,0.3,0.3,0.6,0.4,0.9c1.1,2,3.3,3.3,5.7,3.3c3.6,0,6.5-3,6.5-6.6
					s-3-6.5-6.6-6.5c-2.5,0-4.6,1.4-5.7,3.5h-1.7c1.2-2.9,4.1-5,7.4-5c4.5,0,8.1,3.6,8.1,8.1s-3.6,8.1-8,8.2c-3.3,0-6.2-2-7.5-4.9
					c-0.1-0.3-0.2-0.6-0.3-0.9H79v-1.6h0.6L81.3,221.8z"/>
			</g>
		</g>
	</g>
	<path class="st1" d="M164.6,43c0.9,0.9,2.5,0.9,3.4,0c0.7-0.7,0.9-1.8,0.5-2.7l1.9-1.9l7.6-0.1c0.3,0.6,0.9,1,1.6,1
		c1,0,1.8-0.8,1.8-1.8s-0.8-1.8-1.8-1.8c-0.7,0-1.3,0.4-1.6,1l-8.3,0.1l-2.3,2.4c-0.9-0.4-2-0.3-2.7,0.5
		C163.6,40.6,163.6,42.1,164.6,43z M164.9,40c0.5-0.5,1.2-0.7,1.9-0.4c0.3,0.1,0.5,0.2,0.7,0.4s0.4,0.4,0.4,0.7
		c0.2,0.6,0.1,1.4-0.4,1.9c-0.7,0.7-1.9,0.7-2.6,0C164.2,41.9,164.2,40.8,164.9,40z"/>
	<path class="st0" d="M38.5,225.5c-0.7-0.7-1.8-0.9-2.7-0.5l-2.4-2.3l-8.3,0.1c-0.3-0.6-0.9-1-1.6-1c-1,0-1.8,0.8-1.8,1.8
		s0.8,1.8,1.8,1.8c0.7,0,1.3-0.4,1.6-1l7.6-0.1l1.9,1.9c-0.4,0.9-0.3,2,0.5,2.7c0.9,0.9,2.5,0.9,3.4,0
		C39.5,228,39.4,226.5,38.5,225.5z M38.1,228.5c-0.7,0.7-1.9,0.7-2.6,0c-0.5-0.5-0.7-1.3-0.4-1.9c0.1-0.3,0.2-0.5,0.4-0.7
		s0.4-0.4,0.7-0.4c0.6-0.2,1.4-0.1,1.9,0.4C38.8,226.7,38.8,227.8,38.1,228.5z"/>
	<path class="st0" d="M47.6,228.7c-0.9-0.9-2.5-0.9-3.4,0c-0.7,0.7-0.9,1.8-0.5,2.7l-1.9,1.9l-7.6,0.1c-0.3-0.6-0.9-1-1.6-1
		c-1,0-1.8,0.8-1.8,1.8s0.8,1.8,1.8,1.8c0.7,0,1.3-0.4,1.6-1l8.3-0.1l2.3-2.4c0.9,0.4,2,0.3,2.7-0.5
		C48.5,231.2,48.5,229.7,47.6,228.7z M47.2,231.7c-0.5,0.5-1.2,0.7-1.9,0.4c-0.3-0.1-0.5-0.2-0.7-0.4s-0.4-0.4-0.4-0.7
		c-0.2-0.6-0.1-1.4,0.4-1.9c0.7-0.7,1.9-0.7,2.6,0C47.9,229.8,47.9,231,47.2,231.7z"/>
	<path class="st1" d="M170.2,48.3c0.9,0.9,2.5,0.9,3.4,0c0.7-0.7,0.9-1.8,0.5-2.7l1.9-1.9l7.6-0.1c0.3,0.6,0.9,1,1.6,1
		c1,0,1.8-0.8,1.8-1.8s-0.8-1.8-1.8-1.8c-0.7,0-1.3,0.4-1.6,1l-8.3,0.1l-2.3,2.4c-0.9-0.4-2-0.3-2.7,0.5
		C169.3,45.8,169.3,47.3,170.2,48.3z M170.6,45.2c0.5-0.5,1.2-0.7,1.9-0.4c0.3,0.1,0.5,0.2,0.7,0.4s0.4,0.4,0.4,0.7
		c0.2,0.6,0.1,1.4-0.4,1.9c-0.7,0.7-1.9,0.7-2.6,0C169.9,47.1,169.9,46,170.6,45.2z"/>
	<g>
		<polygon class="st1" points="25.1,45 27.3,41 29.6,45 28.4,45 28.4,48.7 26.3,48.7 26.3,45 		"/>
		<polygon class="st1" points="21.2,49.6 23.4,45.6 25.7,49.5 24.5,49.5 24.6,53.3 22.4,53.3 22.4,49.6 		"/>
	</g>
	<g>
		<polygon class="st0" points="215.6,97.8 213.3,101.8 211,97.9 212.2,97.8 212.2,94.1 214.3,94.1 214.3,97.8 		"/>
		<polygon class="st0" points="219.4,93.2 217.2,97.2 214.9,93.3 216.1,93.3 216.1,89.6 218.2,89.5 218.2,93.3 		"/>
	</g>
	<g>
		<polygon class="st0" points="62.1,211.9 67.7,215.1 62.1,218.3 62.1,216.6 56.9,216.6 56.8,213.6 62.1,213.6 		"/>
		<polygon class="st0" points="55.6,206.3 61.2,209.5 55.6,212.8 55.6,211.1 50.4,211.1 50.3,208.1 55.6,208.1 		"/>
	</g>
	<g>
		<polygon class="st1" points="129,97.8 124.1,95 129,92.1 129,93.6 133.6,93.6 133.6,96.3 129,96.3 		"/>
		<polygon class="st1" points="134.7,102.6 129.8,99.8 134.6,97 134.6,98.5 139.3,98.4 139.3,101.1 134.7,101.1 		"/>
	</g>
</g>
<path class="st0" d="M109.4,231.3c5.4,0,5.5,8.4,0.1,8.4C104,239.8,103.9,231.4,109.4,231.3z"/>
<path class="st0" d="M124.6,211.1c-5.4,0-5.4,8.4,0,8.4S130,211.1,124.6,211.1z"/>
</svg>
