<?xml version="1.0" standalone="no"?><!-- Generator: Gravit.io --><svg xmlns="http://www.w3.org/2000/svg" xmlns:xlink="http://www.w3.org/1999/xlink" style="isolation:isolate" viewBox="0 0 595.276 841.89" width="595.276" height="841.89"><defs><clipPath id="_clipPath_n0cnQTJFMsnu5NxxPgcODTY8U3VqQKBy"><rect width="595.276" height="841.89"/></clipPath></defs><g clip-path="url(#_clipPath_n0cnQTJFMsnu5NxxPgcODTY8U3VqQKBy)"><g transform="matrix(1,0,0,1,172.701,553.743)"><text transform="matrix(1,0,0,1,0,48)" style="font-family:&quot;Code Bold&quot;;font-weight:400;font-size:60px;font-style:normal;fill:#000000;stroke:none;">Ramzino</text></g><path d=" M 211.883 506.658 C 211.883 498.063 250.308 491.085 297.638 491.085 C 344.967 491.085 383.392 498.063 383.392 506.658 C 383.392 515.253 344.967 522.23 297.638 522.23 C 250.308 522.23 211.883 515.253 211.883 506.658 Z " fill="rgb(0,0,0)" fill-opacity="0.05"/><path d=" M 197.27 437.76 C 187.28 425.86 179.48 412.28 174.24 397.65 C 169.21 383.51 166.64 368.63 166.64 353.63 C 166.64 334.82 170.67 316.22 178.46 299.1 C 186.55 281.38 198.49 265.69 213.42 253.19 C 225.32 243.19 238.91 235.39 253.54 230.15 C 267.67 225.12 282.56 222.55 297.56 222.55 C 316.37 222.55 334.96 226.58 352.08 234.37 C 369.8 242.46 385.49 254.4 398 269.33 C 408 281.23 415.8 294.82 421.03 309.45 C 426.07 323.58 428.64 338.47 428.63 353.47 C 428.64 372.28 424.61 390.87 416.82 408 C 408.73 425.71 396.78 441.4 381.85 453.91 C 369.95 463.91 356.37 471.71 341.73 476.94 C 327.6 481.98 312.71 484.55 297.72 484.54 C 278.91 484.55 260.31 480.52 243.19 472.73 C 225.47 464.64 209.78 452.69 197.27 437.76 Z  M 208.77 428.12 C 199.91 417.58 193 405.55 188.37 392.6 C 183.91 380.09 181.64 366.91 181.64 353.63 C 181.64 336.96 185.2 320.49 192.11 305.32 C 199.27 289.64 209.85 275.75 223.07 264.68 C 233.6 255.82 245.63 248.92 258.59 244.28 C 271.1 239.82 284.28 237.55 297.56 237.55 C 314.22 237.55 330.7 241.12 345.86 248.02 C 361.55 255.18 375.44 265.76 386.51 278.98 C 395.36 289.51 402.27 301.54 406.91 314.5 C 411.36 327.01 413.64 340.19 413.63 353.47 C 413.64 370.13 410.07 386.61 403.17 401.77 C 396.01 417.46 385.43 431.35 372.21 442.42 C 361.68 451.27 349.65 458.18 336.69 462.82 C 324.18 467.27 311 469.55 297.72 469.54 C 281.05 469.55 264.58 465.98 249.41 459.08 C 233.73 451.92 219.84 441.34 208.77 428.12 Z " fill-rule="evenodd" fill="rgb(0,0,0)"/><path d=" M 344.216 404.031 C 346.452 398.849 345.783 392.673 341.959 388.115 L 341.959 388.115 C 336.528 381.644 326.779 380.871 320.2 386.391 C 313.622 391.911 312.69 401.646 318.12 408.118 C 321.945 412.676 327.913 414.408 333.406 413.104 L 350.63 436.834 L 364.594 425.117 L 344.216 404.031 Z  M 198.025 432.942 Q 190.072 423.464 179.14 402.323 L 358.469 249.009 Q 378.794 264.066 387.26 274.155 C 431.078 326.376 424.257 404.347 372.036 448.166 C 319.815 491.984 241.843 485.163 198.025 432.942 L 198.025 432.942 Z " fill-rule="evenodd" fill="rgb(0,0,0)"/></g></svg>