<?xml version="1.0" standalone="no"?><!-- Generator: Gravit.io --><svg xmlns="http://www.w3.org/2000/svg" xmlns:xlink="http://www.w3.org/1999/xlink" style="isolation:isolate" viewBox="0 0 595.276 841.89" width="595.276" height="841.89"><defs><clipPath id="_clipPath_fFPq7B933KMxfSekevYO7AA5xlNnPsgg"><rect width="595.276" height="841.89"/></clipPath></defs><g clip-path="url(#_clipPath_fFPq7B933KMxfSekevYO7AA5xlNnPsgg)"><rect width="595.276" height="841.89" style="fill:rgb(13,71,161)"/><g transform="matrix(1,0,0,1,172.701,553.743)"><text transform="matrix(1,0,0,1,0,48)" style="font-family:&quot;Code Bold&quot;;font-weight:400;font-size:60px;font-style:normal;fill:#ffffff;stroke:none;">Ramzino</text></g><ellipse vector-effect="non-scaling-stroke" cx="297.6377952755906" cy="506.6578107958386" rx="85.75469902439795" ry="15.572490636138781" fill="rgb(0,0,0)" fill-opacity="0.1"/><path d=" M 203.02 432.942 C 159.202 380.721 166.024 302.749 218.244 258.931 C 270.465 215.112 348.437 221.934 392.255 274.155 C 436.074 326.376 429.252 404.347 377.031 448.166 C 324.81 491.984 246.839 485.163 203.02 432.942 Z " fill="none" vector-effect="non-scaling-stroke" stroke-width="15" stroke="rgb(255,255,255)" stroke-linejoin="miter" stroke-linecap="square" stroke-miterlimit="3"/><path d=" M 344.216 404.031 C 346.452 398.849 345.783 392.673 341.959 388.115 L 341.959 388.115 C 336.528 381.644 326.779 380.871 320.2 386.391 C 313.622 391.911 312.69 401.646 318.12 408.118 C 321.945 412.676 327.913 414.408 333.406 413.104 L 350.63 436.834 L 364.594 425.117 L 344.216 404.031 Z  M 198.025 432.942 Q 190.072 423.464 179.14 402.323 L 358.469 249.009 Q 378.794 264.066 387.26 274.155 C 431.078 326.376 424.257 404.347 372.036 448.166 C 319.815 491.984 241.843 485.163 198.025 432.942 L 198.025 432.942 Z " fill-rule="evenodd" fill="rgb(255,255,255)"/></g></svg>