<?xml version="1.0" encoding="utf-8"?>
<!-- Generator: Adobe Illustrator 21.1.0, SVG Export Plug-In . SVG Version: 6.00 Build 0)  -->
<svg version="1.1" id="Layer_1" xmlns="http://www.w3.org/2000/svg" xmlns:xlink="http://www.w3.org/1999/xlink" x="0px" y="0px"
	 viewBox="0 0 150 150" style="enable-background:new 0 0 150 150;" xml:space="preserve">
<style type="text/css">
	.st0{display:none;}
	.st1{fill:#221F20;}
	.st2{display:inline;}
	.st3{fill-rule:evenodd;clip-rule:evenodd;fill:#FBEC27;}
	.st4{fill-rule:evenodd;clip-rule:evenodd;fill:#FBBA2D;}
	.st5{fill-rule:evenodd;clip-rule:evenodd;fill:#FBCE37;}
	.st6{fill-rule:evenodd;clip-rule:evenodd;fill:#FBEE3D;}
	.st7{fill-rule:evenodd;clip-rule:evenodd;fill:#DC9D3B;}
	.st8{fill-rule:evenodd;clip-rule:evenodd;fill:#FBF37F;}
	.st9{display:none;fill:#221F20;}
</style>
<g class="st0">
	<path class="st1" d="M31.1,121.1v-11.3h4.8v1.8h-3.2v3.1h2.4v1.7h-2.4v3.1h3.2v1.8H31.1z M38.8,111.5h-1.8v-1.7h5.3v1.7h-1.8v9.6
		h-1.8V111.5z M45.5,116.4v4.7h-1.8v-11.2h1.8v4.7h2v-4.7h1.8v11.2h-1.8v-4.7H45.5z M50.8,121.1v-11.3h4.8v1.8h-3.2v3.1h2.2v1.7
		h-2.2v3.1h3.2v1.8H50.8z M59.4,109.9c0.9,0,1.7,0.2,2.1,0.7c0.4,0.5,0.6,1.1,0.6,1.9v1.7c0,0.8-0.4,1.5-0.9,2l1.3,5h-1.9l-1.1-4.3
		c0,0,0,0-0.1,0h-0.9v4.3h-1.8v-11.2H59.4z M60.5,112.6c0-0.7-0.4-1.1-1.1-1.1h-0.9v3.7h0.9c0.4,0,0.6-0.1,0.7-0.4
		c0.2-0.1,0.4-0.4,0.4-0.7V112.6z M63.9,121.1v-11.3h4.8v1.8h-3.2v3.1h2.4v1.7h-2.4v3.1h3.2v1.8H63.9z M72.6,121.2
		c-0.8,0-1.4-0.2-1.9-0.8c-0.6-0.5-0.8-1.1-0.8-1.9v-8.6h1.7v8.6c0,0.2,0.1,0.5,0.2,0.7c0.2,0.2,0.5,0.2,0.7,0.2
		c0.4,0,0.5,0,0.7-0.2c0.2-0.2,0.2-0.5,0.2-0.7v-8.6h1.9v8.6c0,0.8-0.4,1.4-0.8,1.9C73.9,121,73.3,121.2,72.6,121.2L72.6,121.2z
		 M78.5,121.1h-1.8v-11.3h2.5l1.5,8.2l1.5-8.2h2.4v11.3H83V114l-1.5,7.1h-1.3l-1.7-7.1V121.1z"/>
	<g class="st2">
		<path class="st3" d="M75,0c41.6,0,75,33.4,75,75c0,41.4-33.4,75-75,75c-41.4,0-75-33.6-75-75C0,33.4,33.6,0,75,0L75,0z"/>
		<path class="st4" d="M75,2.4c40.1,0,72.6,32.4,72.6,72.6c0,39.9-32.4,72.4-72.6,72.4c-39.9,0-72.4-32.4-72.4-72.4
			C2.6,34.9,35.1,2.4,75,2.4L75,2.4z"/>
		<path class="st5" d="M75,2.4c14.2,0,27.4,4.1,38.5,11.1C90.6,11.8,50.3,17,16.8,64.9C8.5,76.6,6.9,90.8,9.5,106
			c-4.5-9.3-6.9-19.9-6.9-31C2.6,34.9,35.1,2.4,75,2.4L75,2.4z"/>
		<path class="st6" d="M75,15.8c32.6,0,59.2,26.6,59.2,59.2c0,32.6-26.6,59-59.2,59c-32.6,0-59-26.4-59-59
			C16,42.4,42.4,15.8,75,15.8L75,15.8z"/>
		<path class="st4" d="M75,21.7c29.4,0,53.3,23.9,53.3,53.3c0,29.4-23.9,53.1-53.3,53.1c-29.4,0-53.3-23.7-53.3-53.1
			C21.7,45.6,45.6,21.7,75,21.7L75,21.7z"/>
		<path class="st5" d="M108,33.2C120.4,43,128.3,58,128.3,75c0,29.4-23.9,53.1-53.3,53.1c-13.4,0-25.7-4.9-35.1-13.2
			C130.3,112.7,110.1,39.7,108,33.2L108,33.2z"/>
		<path class="st7" d="M75,16.8c32,0,58,26.1,58,58.2s-25.9,58-58,58c-32,0-58-25.9-58-58S43,16.8,75,16.8L75,16.8z M75.8,22.3
			c30.2,0,54.9,24.5,54.9,54.9c0,30.4-24.7,54.9-54.9,54.9c-30.4,0-55.1-24.5-55.1-54.9C20.7,46.8,45.4,22.3,75.8,22.3L75.8,22.3z"
			/>
		<path class="st4" d="M73.2,22.9L41.8,74.4L73.2,93l31.4-18.6L73.2,22.9z M38.9,79.5l34.3,45l34.3-45L73.2,99.7L38.9,79.5z"/>
		<path class="st8" d="M73.2,28.6l-28,45.8l28,16.4l28-16.4L73.2,28.6z M42.8,78.9l30.4,39.9l30.4-39.9L73.2,96.7L42.8,78.9z"/>
		<path class="st6" d="M73.2,118.8l30.4-39.9L73.2,96.7V118.8z M101.1,74.4l-28-45.8v62.2L101.1,74.4z"/>
	</g>
</g>
<g>
	<path class="st9" d="M50.1,169.6c1.6,0,2.8,0.6,3.6,1.4c0.6,0.8,1,1.8,1,3.2v2.8c0,1.4-0.6,2.4-1.6,3.4l2.2,8.5h-3.2l-1.8-7.3
		c0,0,0,0-0.2,0h-1.6v7.3h-3v-19.4H50.1z M51.9,174.2c0-1-0.6-1.6-1.8-1.6h-1.6v6.3h1.6c0.6,0,1-0.2,1.2-0.6
		c0.4-0.2,0.6-0.6,0.6-1.2V174.2z M60.6,189h-2.8v-19.4h2.8V189z M67.9,169.6c1.4,0,2.6,0.6,3.4,1.4c0.8,0.8,1.2,2,1.2,3.2v2.8
		c0,1.2-0.6,2.4-1.4,3.2c-0.8,1-2,1.4-3.2,1.4h-1.6v7.3h-3v-19.4H67.9z M69.7,174.2c0-0.4-0.2-0.8-0.6-1.2c-0.2-0.2-0.6-0.4-1.2-0.4
		h-1.6v6.3h1.6c0.6,0,1-0.2,1.2-0.6c0.4-0.2,0.6-0.6,0.6-1.2V174.2z M79.5,169.6c1.4,0,2.4,0.6,3.2,1.4c0.8,0.8,1.2,2,1.2,3.2v2.8
		c0,1.2-0.4,2.4-1.2,3.2c-1,1-2,1.4-3.2,1.4h-1.8v7.3h-2.8v-19.4H79.5z M81.1,174.2c0-0.4,0-0.8-0.4-1.2c-0.2-0.2-0.6-0.4-1.2-0.4
		h-1.8v6.3h1.8c0.4,0,0.8-0.2,1.2-0.6c0.4-0.2,0.4-0.6,0.4-1.2V174.2z M94.3,189h-7.9v-19.4h2.8V186h5.1V189z M96.3,189v-19.4h8.3v3
		h-5.5v5.3h4.1v2.8h-4.1v5.3h5.5v3H96.3z"/>
	<g>
		<path class="st3" d="M75,0c41.6,0,75,33.6,75,75s-33.4,75-75,75c-41.4,0-75-33.6-75-75S33.6,0,75,0L75,0z"/>
		<path class="st4" d="M75,2.6c40.1,0,72.6,32.4,72.6,72.3c0,39.9-32.4,72.3-72.6,72.3c-39.9,0-72.4-32.4-72.4-72.3
			C2.6,35,35.1,2.6,75,2.6L75,2.6z"/>
		<path class="st5" d="M75,2.6c14.2,0,27.4,4.1,38.5,10.9C90.6,12,50.3,17,16.8,65c-8.3,11.7-9.9,25.7-7.3,41.1
			C5.1,96.6,2.6,86.1,2.6,75C2.6,35,35.1,2.6,75,2.6L75,2.6z"/>
		<path class="st6" d="M75,16c32.6,0,59.2,26.3,59.2,58.9c0,32.6-26.6,59.2-59.2,59.2c-32.6,0-59-26.5-59-59.2
			C16,42.3,42.4,16,75,16L75,16z"/>
		<path class="st4" d="M75,21.7c29.4,0,53.3,23.9,53.3,53.3c0,29.4-23.9,53.3-53.3,53.3c-29.4,0-53.3-23.9-53.3-53.3
			C21.7,45.6,45.6,21.7,75,21.7L75,21.7z"/>
		<path class="st5" d="M108,33.2c12.4,9.7,20.3,24.9,20.3,41.7c0,29.4-23.9,53.3-53.3,53.3c-13.4,0-25.7-5.1-35.1-13.2
			C130.3,112.6,110.1,39.7,108,33.2L108,33.2z"/>
		<path class="st4" d="M76.8,38.5c8.9,0,16,7.1,16,16c0,7.7-5.5,14.2-12.6,15.6c0,12.4-2.4,8.1,8.5,14.4c2.8-3.4,7.1-5.5,12-5.5
			c8.7,0,16,7.1,16,16c0,8.7-7.3,16-16,16c-8.9,0-16-7.3-16-16c0-1.8,0.2-3.4,0.8-5.1c-9.9-5.9-6.9-5.9-16.8,0
			c0.6,1.6,0.8,3.2,0.8,5.1c0,8.7-7.1,16-16,16c-8.7,0-16-7.3-16-16c0-8.9,7.3-16,16-16c4.9,0,9.1,2,12,5.5c9.9-5.7,8.5-3,8.5-14.4
			c-7.5-1.2-13-7.9-13-15.6C61,45.6,68.1,38.5,76.8,38.5L76.8,38.5z"/>
		<path class="st7" d="M75,17c32,0,58,25.9,58,57.9s-25.9,57.9-58,57.9c-32,0-58-25.9-58-57.9S43,17,75,17L75,17z M75.8,22.3
			c30.2,0,54.9,24.7,54.9,55.1c0,30.2-24.7,54.9-54.9,54.9c-30.4,0-55.1-24.7-55.1-54.9C20.7,47,45.4,22.3,75.8,22.3L75.8,22.3z"/>
		<path class="st6" d="M74.8,34c8.9,0,16,7.1,16,16c0,7.7-5.5,14.2-12.8,15.6c0,12.4-2.2,8.1,8.5,14.4c3-3.2,7.3-5.5,12.2-5.5
			c8.7,0,15.8,7.3,15.8,16c0,8.9-7.1,16-15.8,16c-8.9,0-16-7.1-16-16c0-1.8,0.2-3.4,0.8-5.1c-9.9-5.9-6.9-5.9-17,0
			c0.6,1.6,1,3.2,1,5.1c0,8.9-7.3,16-16,16c-8.9,0-16-7.1-16-16c0-8.7,7.1-16,16-16c4.7,0,9.1,2.2,12,5.5c9.7-5.7,8.5-3,8.5-14.2
			c-7.5-1.4-13.2-7.9-13.2-15.8C58.8,41.1,66.1,34,74.8,34L74.8,34z"/>
	</g>
</g>
</svg>
