<?xml version="1.0"?>
<svg xmlns="http://www.w3.org/2000/svg" height="512px" viewBox="0 0 456 456" width="512px" class=""><g><g fill="#263238"><path d="m4 232c-2.207031 0-4-1.792969-4-4 0-125.71875 102.28125-228 228-228 2.207031 0 4 1.792969 4 4s-1.792969 4-4 4c-121.3125 0-220 98.695312-220 220 0 2.207031-1.792969 4-4 4zm0 0" data-original="#000000" class="" style="fill:#0D47A1" data-old_color="#000000"/><path d="m252 8h-8c-2.207031 0-4-1.792969-4-4s1.792969-4 4-4h8c2.207031 0 4 1.792969 4 4s-1.792969 4-4 4zm0 0" data-original="#000000" class="" style="fill:#0D47A1" data-old_color="#000000"/><path d="m228 456c-2.207031 0-4-1.792969-4-4s1.792969-4 4-4c121.304688 0 220-98.695312 220-220 0-2.207031 1.792969-4 4-4s4 1.792969 4 4c0 125.71875-102.28125 228-228 228zm0 0" data-original="#000000" class="" style="fill:#0D47A1" data-old_color="#000000"/><path d="m212 456h-8c-2.207031 0-4-1.792969-4-4s1.792969-4 4-4h8c2.207031 0 4 1.792969 4 4s-1.792969 4-4 4zm0 0" data-original="#000000" class="" style="fill:#0D47A1" data-old_color="#000000"/><path d="m396 24h-32c-2.207031 0-4-1.792969-4-4s1.792969-4 4-4h32c2.207031 0 4 1.792969 4 4s-1.792969 4-4 4zm0 0" data-original="#000000" class="" style="fill:#0D47A1" data-old_color="#000000"/><path d="m380 40c-2.207031 0-4-1.792969-4-4v-32c0-2.207031 1.792969-4 4-4s4 1.792969 4 4v32c0 2.207031-1.792969 4-4 4zm0 0" data-original="#000000" class="" style="fill:#0D47A1" data-old_color="#000000"/><path d="m452 76h-32c-2.207031 0-4-1.792969-4-4s1.792969-4 4-4h32c2.207031 0 4 1.792969 4 4s-1.792969 4-4 4zm0 0" data-original="#000000" class="" style="fill:#0D47A1" data-old_color="#000000"/><path d="m436 92c-2.207031 0-4-1.792969-4-4v-32c0-2.207031 1.792969-4 4-4s4 1.792969 4 4v32c0 2.207031-1.792969 4-4 4zm0 0" data-original="#000000" class="" style="fill:#0D47A1" data-old_color="#000000"/></g><path d="m222.097656 325.214844-16.304687 25.472656c-49.625-13.695312-88.488281-53.261719-101.207031-103.289062l25.023437-13.710938c6.40625-3.511719 10.390625-10.230469 10.390625-17.535156v-32.152344c0-11.046875-8.953125-20-20-20h-28c-22.089844 0-40 17.910156-40 40v8c0 106.039062 85.960938 192 192 192h8c22.089844 0 40-17.910156 40-40v-28c0-11.046875-8.953125-20-20-20h-33.054688c-6.816406 0-13.167968 3.472656-16.847656 9.214844zm0 0" fill="#40c4ff" data-original="#40C4FF" class="" style="fill:#00BFFF" data-old_color="#00B7FF"/><path d="m252 408h-7.992188c-108.078124 0-196.007812-87.921875-196.007812-196v-8c0-24.257812 19.734375-44 44-44h28c13.230469 0 24 10.769531 24 24v32.152344c0 8.777344-4.777344 16.832031-12.464844 21.046875l-22.277344 12.207031c12.855469 46.242188 48.789063 82.867188 94.773438 96.617188l14.6875-22.960938c4.433594-6.925781 11.992188-11.0625 20.21875-11.0625h33.0625c13.230469 0 24 10.769531 24 24v28c0 24.257812-19.742188 44-44 44zm-160-240c-19.847656 0-36 16.152344-36 36v8c0 103.664062 84.335938 188 188 188h8c19.847656 0 36-16.152344 36-36v-28c0-8.824219-7.175781-16-16-16h-33.054688c-5.488281 0-10.53125 2.761719-13.480468 7.375l-16.304688 25.472656c-.945312 1.488282-2.746094 2.160156-4.433594 1.703125-51.101562-14.101562-90.957031-54.78125-104.023437-106.160156-.457031-1.765625.351563-3.613281 1.953125-4.496094l25.023438-13.71875c5.128906-2.808593 8.3125-8.175781 8.3125-14.03125v-32.144531c0-8.824219-7.175782-16-16-16zm130.097656 157.214844h.078125zm0 0" fill="#263238" data-original="#263238" class="active-path" style="fill:#000000" data-old_color="#0D47A1"/><path d="m308 356.390625c-1.3125 0-2.59375-.648437-3.359375-1.832031-1.199219-1.847656-.664063-4.328125 1.191406-5.519532 41.433594-26.710937 66.167969-71.949218 66.167969-121.039062 0-79.398438-64.601562-144-144-144-49.089844 0-94.328125 24.734375-121.023438 66.167969-1.191406 1.855469-3.671874 2.40625-5.527343 1.191406-1.855469-1.191406-2.394531-3.671875-1.191407-5.519531 28.167969-43.726563 75.925782-69.839844 127.742188-69.839844 83.816406 0 152 68.183594 152 152 0 51.816406-26.113281 99.566406-69.832031 127.753906-.671875.429688-1.425781.636719-2.167969.636719zm0 0" fill="#263238" data-original="#263238" class="active-path" style="fill:#000000" data-old_color="#0D47A1"/><path d="m232 266h-48c-5.046875 0-9.558594-3.167969-11.289062-7.910156-1.71875-4.753906-.277344-10.074219 3.601562-13.304688l40.808594-34c1.832031-1.519531 2.878906-3.769531 2.878906-6.152344v-14.632812c0-4.414062-3.59375-8-8-8h-8c-4.40625 0-8 3.585938-8 8v16c0 6.625-5.367188 12-12 12s-12-5.375-12-12v-16c0-17.648438 14.351562-32 32-32h8c17.648438 0 32 14.351562 32 32v14.632812c0 9.511719-4.191406 18.480469-11.503906 24.574219l-15.34375 12.792969h14.847656c6.632812 0 12 5.375 12 12s-5.367188 12-12 12zm0 0" fill="#ffd740" data-original="#FFD740" class="" style="fill:#FFD740"/><path d="m232 270h-48c-6.710938 0-12.761719-4.238281-15.046875-10.542969-2.28125-6.320312-.351563-13.449219 4.800781-17.746093l40.804688-34c.921875-.765626 1.441406-1.878907 1.441406-3.078126v-14.632812c0-2.199219-1.792969-4-4-4h-8c-2.207031 0-4 1.800781-4 4v16c0 8.824219-7.175781 16-16 16s-16-7.175781-16-16v-16c0-19.847656 16.152344-36 36-36h8c19.847656 0 36 16.152344 36 36v14.632812c0 10.703126-4.71875 20.78125-12.945312 27.648438l-6.855469 5.71875h3.800781c8.816406 0 16 7.175781 16 16s-7.175781 16-16 16zm-28-92h8c6.617188 0 12 5.382812 12 12v14.632812c0 3.566407-1.574219 6.933594-4.320312 9.214844l-40.808594 34c-2.574219 2.152344-3.542969 5.71875-2.398438 8.871094 1.144532 3.160156 4.167969 5.273438 7.519532 5.273438h48c4.40625 0 8-3.585938 8-8 0-4.417969-3.585938-8-8-8h-14.847657c-1.679687 0-3.183593-1.054688-3.761719-2.640626-.574218-1.574218-.09375-3.351562 1.203126-4.429687l15.34375-12.792969c6.398437-5.328125 10.070312-13.167968 10.070312-21.496094v-14.632812c0-15.441406-12.558594-28-28-28h-8c-15.441406 0-28 12.558594-28 28v16c0 4.414062 3.59375 8 8 8s8-3.585938 8-8v-16c0-6.617188 5.382812-12 12-12zm0 0" fill="#263238" data-original="#263238" class="active-path" style="fill:#000000" data-old_color="#0D47A1"/><path d="m304 158c-6.632812 0-12 5.375-12 12v32h-24v-32c0-6.625-5.367188-12-12-12s-12 5.375-12 12v44c0 6.625 5.367188 12 12 12h36v28c0 6.625 5.367188 12 12 12s12-5.375 12-12v-84c0-6.632812-5.367188-12-12-12zm0 0" fill="#ffd740" data-original="#FFD740" class="" style="fill:#FFD740"/><path d="m304 270c-8.824219 0-16-7.175781-16-16v-24h-32c-8.824219 0-16-7.175781-16-16v-44c0-8.824219 7.175781-16 16-16s16 7.175781 16 16v28h16v-28c0-8.824219 7.175781-16 16-16s16 7.175781 16 16v84c0 8.824219-7.175781 16-16 16zm-48-108c-4.414062 0-8 3.585938-8 8v44c0 4.414062 3.585938 8 8 8h36c2.207031 0 4 1.792969 4 4v28c0 4.414062 3.585938 8 8 8s8-3.585938 8-8v-84c0-4.414062-3.585938-8-8-8s-8 3.585938-8 8v32c0 2.207031-1.792969 4-4 4h-24c-2.207031 0-4-1.792969-4-4v-32c0-4.414062-3.585938-8-8-8zm0 0" fill="#263238" data-original="#263238" class="active-path" style="fill:#000000" data-old_color="#0D47A1"/></g> </svg>
